<svg width="40" height="40" viewBox="0 0 40 40" fill="none" xmlns="http://www.w3.org/2000/svg">
<g id="Frame 1" clip-path="url(#clip0_47_9)">
<g id="Calculatrice classique" filter="url(#filter0_d_47_9)">
<g id="Layer 2">
<g id="Vector">
<path d="M30.3055 37.5L30.3012 37.5L10.7041 37.5H10.6999C10.4045 37.4975 10.1132 37.4334 9.84304 37.3121C9.57292 37.1909 9.32992 37.0154 9.12709 36.7971C8.92431 36.5789 8.7655 36.3221 8.65842 36.0419C8.55159 35.7624 8.49796 35.4643 8.5 35.1642V6.07237V6.07129L30.3055 37.5ZM30.3055 37.5C30.6001 37.4975 30.8906 37.4335 31.1602 37.3126C31.4296 37.1917 31.672 37.0166 31.8743 36.7989C32.0766 36.5812 32.235 36.325 32.3418 36.0455C32.4483 35.7668 32.5018 35.4694 32.4998 35.1702V6.07968L30.3055 37.5Z" fill="black"/>
<path d="M30.3055 37.5L30.3012 37.5L10.7041 37.5H10.6999C10.4045 37.4975 10.1132 37.4334 9.84304 37.3121C9.57292 37.1909 9.32992 37.0154 9.12709 36.7971C8.92431 36.5789 8.7655 36.3221 8.65842 36.0419C8.55159 35.7624 8.49796 35.4643 8.5 35.1642V6.07237V6.07129L30.3055 37.5ZM30.3055 37.5C30.6001 37.4975 30.8906 37.4335 31.1602 37.3126C31.4296 37.1917 31.672 37.0166 31.8743 36.7989C32.0766 36.5812 32.235 36.325 32.3418 36.0455C32.4483 35.7668 32.5018 35.4694 32.4998 35.1702V6.07968L30.3055 37.5Z" stroke="black" stroke-linejoin="round"/>
<path d="M30.3055 37.5L30.3012 37.5L10.7041 37.5H10.6999C10.4045 37.4975 10.1132 37.4334 9.84304 37.3121C9.57292 37.1909 9.32992 37.0154 9.12709 36.7971C8.92431 36.5789 8.7655 36.3221 8.65842 36.0419C8.55159 35.7624 8.49796 35.4643 8.5 35.1642V6.07237V6.07129L30.3055 37.5ZM30.3055 37.5C30.6001 37.4975 30.8906 37.4335 31.1602 37.3126C31.4296 37.1917 31.672 37.0166 31.8743 36.7989C32.0766 36.5812 32.235 36.325 32.3418 36.0455C32.4483 35.7668 32.5018 35.4694 32.4998 35.1702V6.07968L30.3055 37.5Z" stroke="black" stroke-opacity="0.63" stroke-linejoin="round"/>
</g>
<g id="Vector_2">
<path d="M30.3055 37.2627L30.3013 37.2627L10.7042 37.2627H10.6999C10.4045 37.2602 10.1133 37.1961 9.8431 37.0748C9.57297 36.9536 9.32997 36.7781 9.12714 36.5598C8.92437 36.3416 8.76556 36.0848 8.65847 35.8046C8.55164 35.5251 8.49801 35.227 8.50006 34.9269V5.83507V5.83399L30.3055 37.2627ZM30.3055 37.2627C30.6002 37.2602 30.8907 37.1962 31.1602 37.0753C31.4297 36.9544 31.6721 36.7793 31.8744 36.5616C32.0766 36.3439 32.235 36.0877 32.3418 35.8082C32.4484 35.5294 32.5019 35.2321 32.4998 34.9329V5.84237C32.5027 5.54259 32.45 5.24457 32.3441 4.96497L31.8765 5.14204L30.3055 37.2627Z" fill="#F28C19"/>
<path d="M30.3055 37.2627L30.3013 37.2627L10.7042 37.2627H10.6999C10.4045 37.2602 10.1133 37.1961 9.8431 37.0748C9.57297 36.9536 9.32997 36.7781 9.12714 36.5598C8.92437 36.3416 8.76556 36.0848 8.65847 35.8046C8.55164 35.5251 8.49801 35.227 8.50006 34.9269V5.83507V5.83399L30.3055 37.2627ZM30.3055 37.2627C30.6002 37.2602 30.8907 37.1962 31.1602 37.0753C31.4297 36.9544 31.6721 36.7793 31.8744 36.5616C32.0766 36.3439 32.235 36.0877 32.3418 35.8082C32.4484 35.5294 32.5019 35.2321 32.4998 34.9329V5.84237C32.5027 5.54259 32.45 5.24457 32.3441 4.96497L31.8765 5.14204L30.3055 37.2627Z" stroke="black" stroke-linejoin="round"/>
<path d="M30.3055 37.2627L30.3013 37.2627L10.7042 37.2627H10.6999C10.4045 37.2602 10.1133 37.1961 9.8431 37.0748C9.57297 36.9536 9.32997 36.7781 9.12714 36.5598C8.92437 36.3416 8.76556 36.0848 8.65847 35.8046C8.55164 35.5251 8.49801 35.227 8.50006 34.9269V5.83507V5.83399L30.3055 37.2627ZM30.3055 37.2627C30.6002 37.2602 30.8907 37.1962 31.1602 37.0753C31.4297 36.9544 31.6721 36.7793 31.8744 36.5616C32.0766 36.3439 32.235 36.0877 32.3418 35.8082C32.4484 35.5294 32.5019 35.2321 32.4998 34.9329V5.84237C32.5027 5.54259 32.45 5.24457 32.3441 4.96497L31.8765 5.14204L30.3055 37.2627Z" stroke="black" stroke-opacity="0.63" stroke-linejoin="round"/>
</g>
<g id="Vector_3">
<path d="M30.7653 12.8975V12.8972L30.7625 7.29883C30.7625 7.29875 30.7625 7.29866 30.7625 7.29858C30.7624 6.94192 30.6289 6.59452 30.3829 6.33407C30.136 6.07259 29.7948 5.91992 29.4326 5.91992H11.5755C11.2132 5.91992 10.872 6.07259 10.6251 6.33407C10.3791 6.59458 10.2456 6.94208 10.2456 7.29883V12.8975C10.2456 13.2542 10.3791 13.6017 10.6251 13.8622C10.872 14.1237 11.2132 14.2764 11.5755 14.2764H29.4353C29.6141 14.2764 29.7904 14.239 29.9538 14.1674C30.1171 14.0957 30.2636 13.9915 30.3857 13.8622L30.0222 13.5189L30.3857 13.8622C30.5077 13.733 30.6031 13.5811 30.6677 13.4159C30.7323 13.2508 30.7653 13.0747 30.7653 12.8975Z" fill="#E6E6E6"/>
<path d="M30.7653 12.8975V12.8972L30.7625 7.29883C30.7625 7.29875 30.7625 7.29866 30.7625 7.29858C30.7624 6.94192 30.6289 6.59452 30.3829 6.33407C30.136 6.07259 29.7948 5.91992 29.4326 5.91992H11.5755C11.2132 5.91992 10.872 6.07259 10.6251 6.33407C10.3791 6.59458 10.2456 6.94208 10.2456 7.29883V12.8975C10.2456 13.2542 10.3791 13.6017 10.6251 13.8622C10.872 14.1237 11.2132 14.2764 11.5755 14.2764H29.4353C29.6141 14.2764 29.7904 14.239 29.9538 14.1674C30.1171 14.0957 30.2636 13.9915 30.3857 13.8622L30.0222 13.5189L30.3857 13.8622C30.5077 13.733 30.6031 13.5811 30.6677 13.4159C30.7323 13.2508 30.7653 13.0747 30.7653 12.8975Z" stroke="black" stroke-linejoin="round"/>
<path d="M30.7653 12.8975V12.8972L30.7625 7.29883C30.7625 7.29875 30.7625 7.29866 30.7625 7.29858C30.7624 6.94192 30.6289 6.59452 30.3829 6.33407C30.136 6.07259 29.7948 5.91992 29.4326 5.91992H11.5755C11.2132 5.91992 10.872 6.07259 10.6251 6.33407C10.3791 6.59458 10.2456 6.94208 10.2456 7.29883V12.8975C10.2456 13.2542 10.3791 13.6017 10.6251 13.8622C10.872 14.1237 11.2132 14.2764 11.5755 14.2764H29.4353C29.6141 14.2764 29.7904 14.239 29.9538 14.1674C30.1171 14.0957 30.2636 13.9915 30.3857 13.8622L30.0222 13.5189L30.3857 13.8622C30.5077 13.733 30.6031 13.5811 30.6677 13.4159C30.7323 13.2508 30.7653 13.0747 30.7653 12.8975Z" stroke="black" stroke-opacity="0.63" stroke-linejoin="round"/>
</g>
<g id="Vector_4">
<mask id="path-4-outside-1_47_9" maskUnits="userSpaceOnUse" x="10.2961" y="19.5117" width="6" height="6" fill="black">
<rect fill="white" x="10.2961" y="19.5117" width="6" height="6"/>
<path d="M14.8537 23.5499C14.8501 23.674 14.8004 23.7915 14.7155 23.8771C14.6305 23.9626 14.5172 24.0093 14.4 24.0069H11.747C11.6301 24.0093 11.517 23.9625 11.4326 23.8769C11.3481 23.7913 11.299 23.6737 11.2961 23.5499V20.9688C11.299 20.845 11.3481 20.7275 11.4326 20.6418C11.517 20.5562 11.6301 20.5094 11.747 20.5118H14.4C14.5172 20.5094 14.6305 20.5561 14.7155 20.6416C14.8004 20.7272 14.8501 20.8448 14.8537 20.9688V23.5499Z"/>
</mask>
<path d="M14.8537 23.5499C14.8501 23.674 14.8004 23.7915 14.7155 23.8771C14.6305 23.9626 14.5172 24.0093 14.4 24.0069H11.747C11.6301 24.0093 11.517 23.9625 11.4326 23.8769C11.3481 23.7913 11.299 23.6737 11.2961 23.5499V20.9688C11.299 20.845 11.3481 20.7275 11.4326 20.6418C11.517 20.5562 11.6301 20.5094 11.747 20.5118H14.4C14.5172 20.5094 14.6305 20.5561 14.7155 20.6416C14.8004 20.7272 14.8501 20.8448 14.8537 20.9688V23.5499Z" fill="white"/>
<path d="M14.8537 23.5499L15.8533 23.579C15.8535 23.5693 15.8537 23.5596 15.8537 23.5499H14.8537ZM14.4 24.0069L14.4202 23.0071C14.4135 23.007 14.4067 23.0069 14.4 23.0069V24.0069ZM11.747 24.0069V23.0069C11.7403 23.0069 11.7336 23.007 11.7268 23.0071L11.747 24.0069ZM11.2961 23.5499H10.2961C10.2961 23.5577 10.2962 23.5655 10.2964 23.5733L11.2961 23.5499ZM11.2961 20.9688L10.2964 20.9454C10.2962 20.9532 10.2961 20.961 10.2961 20.9688H11.2961ZM11.747 20.5118L11.7268 21.5116C11.7336 21.5117 11.7403 21.5118 11.747 21.5118V20.5118ZM14.4 20.5118V21.5118C14.4067 21.5118 14.4135 21.5117 14.4202 21.5116L14.4 20.5118ZM14.8537 20.9688H15.8537C15.8537 20.9591 15.8535 20.9494 15.8533 20.9397L14.8537 20.9688ZM13.8541 23.5207C13.8576 23.3994 13.9061 23.273 14.0058 23.1726L15.4252 24.5816C15.6947 24.31 15.8425 23.9485 15.8533 23.579L13.8541 23.5207ZM14.0058 23.1726C14.1074 23.0703 14.2553 23.0038 14.4202 23.0071L14.3798 25.0067C14.7791 25.0148 15.1537 24.855 15.4252 24.5816L14.0058 23.1726ZM14.4 23.0069H11.747V25.0069H14.4V23.0069ZM11.7268 23.0071C11.8932 23.0038 12.0423 23.0711 12.1444 23.1746L10.7207 24.5792C10.9918 24.854 11.367 25.0148 11.7672 25.0067L11.7268 23.0071ZM12.1444 23.1746C12.2446 23.2761 12.293 23.4039 12.2958 23.5265L10.2964 23.5733C10.3051 23.9435 10.4515 24.3064 10.7207 24.5792L12.1444 23.1746ZM12.2961 23.5499V20.9688H10.2961V23.5499H12.2961ZM12.2958 20.9923C12.293 21.1148 12.2446 21.2426 12.1444 21.3442L10.7207 19.9395C10.4515 20.2123 10.3051 20.5752 10.2964 20.9454L12.2958 20.9923ZM12.1444 21.3442C12.0423 21.4476 11.8932 21.515 11.7268 21.5116L11.7672 19.512C11.367 19.5039 10.9918 19.6647 10.7207 19.9395L12.1444 21.3442ZM11.747 21.5118H14.4V19.5118H11.747V21.5118ZM14.4202 21.5116C14.2553 21.5149 14.1074 21.4485 14.0058 21.3461L15.4252 19.9371C15.1537 19.6637 14.7791 19.5039 14.3798 19.512L14.4202 21.5116ZM14.0058 21.3461C13.9061 21.2457 13.8576 21.1193 13.8541 20.998L15.8533 20.9397C15.8425 20.5702 15.6947 20.2087 15.4252 19.9371L14.0058 21.3461ZM13.8537 20.9688V23.5499H15.8537V20.9688H13.8537Z" fill="black" mask="url(#path-4-outside-1_47_9)"/>
<path d="M14.8537 23.5499L15.8533 23.579C15.8535 23.5693 15.8537 23.5596 15.8537 23.5499H14.8537ZM14.4 24.0069L14.4202 23.0071C14.4135 23.007 14.4067 23.0069 14.4 23.0069V24.0069ZM11.747 24.0069V23.0069C11.7403 23.0069 11.7336 23.007 11.7268 23.0071L11.747 24.0069ZM11.2961 23.5499H10.2961C10.2961 23.5577 10.2962 23.5655 10.2964 23.5733L11.2961 23.5499ZM11.2961 20.9688L10.2964 20.9454C10.2962 20.9532 10.2961 20.961 10.2961 20.9688H11.2961ZM11.747 20.5118L11.7268 21.5116C11.7336 21.5117 11.7403 21.5118 11.747 21.5118V20.5118ZM14.4 20.5118V21.5118C14.4067 21.5118 14.4135 21.5117 14.4202 21.5116L14.4 20.5118ZM14.8537 20.9688H15.8537C15.8537 20.9591 15.8535 20.9494 15.8533 20.9397L14.8537 20.9688ZM13.8541 23.5207C13.8576 23.3994 13.9061 23.273 14.0058 23.1726L15.4252 24.5816C15.6947 24.31 15.8425 23.9485 15.8533 23.579L13.8541 23.5207ZM14.0058 23.1726C14.1074 23.0703 14.2553 23.0038 14.4202 23.0071L14.3798 25.0067C14.7791 25.0148 15.1537 24.855 15.4252 24.5816L14.0058 23.1726ZM14.4 23.0069H11.747V25.0069H14.4V23.0069ZM11.7268 23.0071C11.8932 23.0038 12.0423 23.0711 12.1444 23.1746L10.7207 24.5792C10.9918 24.854 11.367 25.0148 11.7672 25.0067L11.7268 23.0071ZM12.1444 23.1746C12.2446 23.2761 12.293 23.4039 12.2958 23.5265L10.2964 23.5733C10.3051 23.9435 10.4515 24.3064 10.7207 24.5792L12.1444 23.1746ZM12.2961 23.5499V20.9688H10.2961V23.5499H12.2961ZM12.2958 20.9923C12.293 21.1148 12.2446 21.2426 12.1444 21.3442L10.7207 19.9395C10.4515 20.2123 10.3051 20.5752 10.2964 20.9454L12.2958 20.9923ZM12.1444 21.3442C12.0423 21.4476 11.8932 21.515 11.7268 21.5116L11.7672 19.512C11.367 19.5039 10.9918 19.6647 10.7207 19.9395L12.1444 21.3442ZM11.747 21.5118H14.4V19.5118H11.747V21.5118ZM14.4202 21.5116C14.2553 21.5149 14.1074 21.4485 14.0058 21.3461L15.4252 19.9371C15.1537 19.6637 14.7791 19.5039 14.3798 19.512L14.4202 21.5116ZM14.0058 21.3461C13.9061 21.2457 13.8576 21.1193 13.8541 20.998L15.8533 20.9397C15.8425 20.5702 15.6947 20.2087 15.4252 19.9371L14.0058 21.3461ZM13.8537 20.9688V23.5499H15.8537V20.9688H13.8537Z" fill="black" fill-opacity="0.63" mask="url(#path-4-outside-1_47_9)"/>
</g>
<g id="Vector_5">
<path d="M15.3509 28.7997L15.3508 28.7997C15.345 29.0467 15.2472 29.2869 15.0704 29.4662C14.894 29.645 14.6522 29.7485 14.3959 29.745H11.7524C11.6272 29.7473 11.5034 29.7239 11.388 29.6769C11.2702 29.6288 11.1644 29.5575 11.0759 29.4683C10.9875 29.3792 10.918 29.2741 10.8701 29.1597C10.8221 29.0453 10.7964 28.923 10.7935 28.7996L10.7932 28.788H10.7933V26.2069V26.1952L10.7935 26.1952C10.7964 26.0722 10.8221 25.9503 10.8699 25.8363M15.3509 28.7997L10.8699 25.8363M15.3509 28.7997L15.3509 28.7875L15.3482 26.2093L15.3483 26.2093L15.348 26.1981C15.3422 25.9511 15.2445 25.7109 15.0676 25.5317C14.8912 25.3529 14.6495 25.2493 14.3932 25.2528H11.7497C11.6249 25.2506 11.5014 25.2739 11.3864 25.3208C11.2689 25.3686 11.1634 25.4398 11.0752 25.5286C10.987 25.6174 10.9177 25.7222 10.8699 25.8363M15.3509 28.7997L10.8699 25.8363" fill="white"/>
<path d="M15.3509 28.7997L15.3508 28.7997C15.345 29.0467 15.2472 29.2869 15.0704 29.4662C14.894 29.645 14.6522 29.7485 14.3959 29.745H11.7524C11.6272 29.7473 11.5034 29.7239 11.388 29.6769C11.2702 29.6288 11.1644 29.5575 11.0759 29.4683C10.9875 29.3792 10.918 29.2741 10.8701 29.1597C10.8221 29.0453 10.7964 28.923 10.7935 28.7996L10.7932 28.788H10.7933V26.2069V26.1952L10.7935 26.1952C10.7964 26.0722 10.8221 25.9503 10.8699 25.8363M15.3509 28.7997L10.8699 25.8363M15.3509 28.7997L15.3509 28.7875L15.3482 26.2093L15.3483 26.2093L15.348 26.1981C15.3422 25.9511 15.2445 25.7109 15.0676 25.5317C14.8912 25.3529 14.6495 25.2493 14.3932 25.2528H11.7497C11.6249 25.2506 11.5014 25.2739 11.3864 25.3208C11.2689 25.3686 11.1634 25.4398 11.0752 25.5286C10.987 25.6174 10.9177 25.7222 10.8699 25.8363M15.3509 28.7997L10.8699 25.8363" stroke="black" stroke-linejoin="round"/>
<path d="M15.3509 28.7997L15.3508 28.7997C15.345 29.0467 15.2472 29.2869 15.0704 29.4662C14.894 29.645 14.6522 29.7485 14.3959 29.745H11.7524C11.6272 29.7473 11.5034 29.7239 11.388 29.6769C11.2702 29.6288 11.1644 29.5575 11.0759 29.4683C10.9875 29.3792 10.918 29.2741 10.8701 29.1597C10.8221 29.0453 10.7964 28.923 10.7935 28.7996L10.7932 28.788H10.7933V26.2069V26.1952L10.7935 26.1952C10.7964 26.0722 10.8221 25.9503 10.8699 25.8363M15.3509 28.7997L10.8699 25.8363M15.3509 28.7997L15.3509 28.7875L15.3482 26.2093L15.3483 26.2093L15.348 26.1981C15.3422 25.9511 15.2445 25.7109 15.0676 25.5317C14.8912 25.3529 14.6495 25.2493 14.3932 25.2528H11.7497C11.6249 25.2506 11.5014 25.2739 11.3864 25.3208C11.2689 25.3686 11.1634 25.4398 11.0752 25.5286C10.987 25.6174 10.9177 25.7222 10.8699 25.8363M15.3509 28.7997L10.8699 25.8363" stroke="black" stroke-opacity="0.63" stroke-linejoin="round"/>
</g>
<g id="Vector_6">
<mask id="path-7-outside-2_47_9" maskUnits="userSpaceOnUse" x="10.2933" y="29.9912" width="6" height="6" fill="black">
<rect fill="white" x="10.2933" y="29.9912" width="6" height="6"/>
<path d="M14.8509 34.0294C14.8495 34.0906 14.8367 34.1508 14.8132 34.2068C14.7898 34.2627 14.7562 34.3132 14.7143 34.3554C14.6724 34.3976 14.6231 34.4306 14.5692 34.4526C14.5153 34.4745 14.4578 34.485 14.4 34.4835H11.7443C11.6865 34.485 11.629 34.4745 11.5751 34.4526C11.5211 34.4306 11.4718 34.3976 11.43 34.3554C11.3881 34.3132 11.3545 34.2627 11.331 34.2068C11.3076 34.1508 11.2948 34.0906 11.2933 34.0294V31.4483C11.2962 31.3245 11.3453 31.2069 11.4298 31.1213C11.5143 31.0357 11.6273 30.9889 11.7443 30.9913H14.4C14.5169 30.9889 14.63 31.0357 14.7145 31.1213C14.799 31.2069 14.848 31.3245 14.8509 31.4483V34.0294Z"/>
</mask>
<path d="M14.8509 34.0294C14.8495 34.0906 14.8367 34.1508 14.8132 34.2068C14.7898 34.2627 14.7562 34.3132 14.7143 34.3554C14.6724 34.3976 14.6231 34.4306 14.5692 34.4526C14.5153 34.4745 14.4578 34.485 14.4 34.4835H11.7443C11.6865 34.485 11.629 34.4745 11.5751 34.4526C11.5211 34.4306 11.4718 34.3976 11.43 34.3554C11.3881 34.3132 11.3545 34.2627 11.331 34.2068C11.3076 34.1508 11.2948 34.0906 11.2933 34.0294V31.4483C11.2962 31.3245 11.3453 31.2069 11.4298 31.1213C11.5143 31.0357 11.6273 30.9889 11.7443 30.9913H14.4C14.5169 30.9889 14.63 31.0357 14.7145 31.1213C14.799 31.2069 14.848 31.3245 14.8509 31.4483V34.0294Z" fill="white"/>
<path d="M14.8509 34.0294L15.8506 34.0528C15.8508 34.045 15.8509 34.0372 15.8509 34.0294H14.8509ZM14.4 34.4835L14.427 33.4839C14.418 33.4836 14.409 33.4835 14.4 33.4835V34.4835ZM11.7443 34.4835V33.4835C11.7353 33.4835 11.7263 33.4836 11.7173 33.4839L11.7443 34.4835ZM11.2933 34.0294H10.2933C10.2933 34.0372 10.2934 34.045 10.2936 34.0528L11.2933 34.0294ZM11.2933 31.4483L10.2936 31.4249C10.2934 31.4327 10.2933 31.4405 10.2933 31.4483H11.2933ZM11.7443 30.9913L11.7241 31.9911C11.7308 31.9912 11.7375 31.9913 11.7443 31.9913V30.9913ZM14.4 30.9913V31.9913C14.4067 31.9913 14.4135 31.9912 14.4202 31.9911L14.4 30.9913ZM14.8509 31.4483H15.8509C15.8509 31.4405 15.8508 31.4327 15.8506 31.4249L14.8509 31.4483ZM13.8512 34.0059C13.8527 33.9435 13.8657 33.8805 13.891 33.8203L15.7355 34.5933C15.8077 34.4212 15.8463 34.2376 15.8506 34.0528L13.8512 34.0059ZM13.891 33.8203C13.9162 33.7599 13.954 33.7018 14.0047 33.6508L15.4239 35.06C15.5584 34.9246 15.6634 34.7655 15.7355 34.5933L13.891 33.8203ZM14.0047 33.6508C14.0556 33.5996 14.1186 33.5563 14.1918 33.5265L14.9466 35.3786C15.1276 35.3048 15.2893 35.1955 15.4239 35.06L14.0047 33.6508ZM14.1918 33.5265C14.265 33.4966 14.3452 33.4816 14.427 33.4839L14.373 35.4831C14.5704 35.4884 14.7655 35.4524 14.9466 35.3786L14.1918 33.5265ZM14.4 33.4835H11.7443V35.4835H14.4V33.4835ZM11.7173 33.4839C11.7991 33.4816 11.8792 33.4966 11.9525 33.5265L11.1976 35.3786C11.3788 35.4524 11.5739 35.4884 11.7712 35.4831L11.7173 33.4839ZM11.9525 33.5265C12.0256 33.5563 12.0887 33.5996 12.1395 33.6508L10.7204 35.06C10.855 35.1955 11.0166 35.3048 11.1976 35.3786L11.9525 33.5265ZM12.1395 33.6508C12.1903 33.7018 12.228 33.7599 12.2533 33.8203L10.4087 34.5933C10.4809 34.7655 10.5859 34.9246 10.7204 35.06L12.1395 33.6508ZM12.2533 33.8203C12.2786 33.8805 12.2916 33.9435 12.2931 34.0059L10.2936 34.0528C10.2979 34.2377 10.3366 34.4212 10.4087 34.5933L12.2533 33.8203ZM12.2933 34.0294V31.4483H10.2933V34.0294H12.2933ZM12.2931 31.4718C12.2902 31.5943 12.2419 31.7221 12.1416 31.8236L10.7179 30.419C10.4487 30.6918 10.3023 31.0547 10.2936 31.4249L12.2931 31.4718ZM12.1416 31.8236C12.0395 31.9271 11.8904 31.9944 11.7241 31.9911L11.7644 29.9915C11.3643 29.9834 10.989 30.1442 10.7179 30.419L12.1416 31.8236ZM11.7443 31.9913H14.4V29.9913H11.7443V31.9913ZM14.4202 31.9911C14.2539 31.9944 14.1047 31.9271 14.0026 31.8236L15.4263 30.419C15.1552 30.1442 14.78 29.9834 14.3798 29.9915L14.4202 31.9911ZM14.0026 31.8236C13.9024 31.7221 13.8541 31.5943 13.8512 31.4718L15.8506 31.4249C15.842 31.0547 15.6955 30.6918 15.4263 30.419L14.0026 31.8236ZM13.8509 31.4483V34.0294H15.8509V31.4483H13.8509Z" fill="black" mask="url(#path-7-outside-2_47_9)"/>
<path d="M14.8509 34.0294L15.8506 34.0528C15.8508 34.045 15.8509 34.0372 15.8509 34.0294H14.8509ZM14.4 34.4835L14.427 33.4839C14.418 33.4836 14.409 33.4835 14.4 33.4835V34.4835ZM11.7443 34.4835V33.4835C11.7353 33.4835 11.7263 33.4836 11.7173 33.4839L11.7443 34.4835ZM11.2933 34.0294H10.2933C10.2933 34.0372 10.2934 34.045 10.2936 34.0528L11.2933 34.0294ZM11.2933 31.4483L10.2936 31.4249C10.2934 31.4327 10.2933 31.4405 10.2933 31.4483H11.2933ZM11.7443 30.9913L11.7241 31.9911C11.7308 31.9912 11.7375 31.9913 11.7443 31.9913V30.9913ZM14.4 30.9913V31.9913C14.4067 31.9913 14.4135 31.9912 14.4202 31.9911L14.4 30.9913ZM14.8509 31.4483H15.8509C15.8509 31.4405 15.8508 31.4327 15.8506 31.4249L14.8509 31.4483ZM13.8512 34.0059C13.8527 33.9435 13.8657 33.8805 13.891 33.8203L15.7355 34.5933C15.8077 34.4212 15.8463 34.2376 15.8506 34.0528L13.8512 34.0059ZM13.891 33.8203C13.9162 33.7599 13.954 33.7018 14.0047 33.6508L15.4239 35.06C15.5584 34.9246 15.6634 34.7655 15.7355 34.5933L13.891 33.8203ZM14.0047 33.6508C14.0556 33.5996 14.1186 33.5563 14.1918 33.5265L14.9466 35.3786C15.1276 35.3048 15.2893 35.1955 15.4239 35.06L14.0047 33.6508ZM14.1918 33.5265C14.265 33.4966 14.3452 33.4816 14.427 33.4839L14.373 35.4831C14.5704 35.4884 14.7655 35.4524 14.9466 35.3786L14.1918 33.5265ZM14.4 33.4835H11.7443V35.4835H14.4V33.4835ZM11.7173 33.4839C11.7991 33.4816 11.8792 33.4966 11.9525 33.5265L11.1976 35.3786C11.3788 35.4524 11.5739 35.4884 11.7712 35.4831L11.7173 33.4839ZM11.9525 33.5265C12.0256 33.5563 12.0887 33.5996 12.1395 33.6508L10.7204 35.06C10.855 35.1955 11.0166 35.3048 11.1976 35.3786L11.9525 33.5265ZM12.1395 33.6508C12.1903 33.7018 12.228 33.7599 12.2533 33.8203L10.4087 34.5933C10.4809 34.7655 10.5859 34.9246 10.7204 35.06L12.1395 33.6508ZM12.2533 33.8203C12.2786 33.8805 12.2916 33.9435 12.2931 34.0059L10.2936 34.0528C10.2979 34.2377 10.3366 34.4212 10.4087 34.5933L12.2533 33.8203ZM12.2933 34.0294V31.4483H10.2933V34.0294H12.2933ZM12.2931 31.4718C12.2902 31.5943 12.2419 31.7221 12.1416 31.8236L10.7179 30.419C10.4487 30.6918 10.3023 31.0547 10.2936 31.4249L12.2931 31.4718ZM12.1416 31.8236C12.0395 31.9271 11.8904 31.9944 11.7241 31.9911L11.7644 29.9915C11.3643 29.9834 10.989 30.1442 10.7179 30.419L12.1416 31.8236ZM11.7443 31.9913H14.4V29.9913H11.7443V31.9913ZM14.4202 31.9911C14.2539 31.9944 14.1047 31.9271 14.0026 31.8236L15.4263 30.419C15.1552 30.1442 14.78 29.9834 14.3798 29.9915L14.4202 31.9911ZM14.0026 31.8236C13.9024 31.7221 13.8541 31.5943 13.8512 31.4718L15.8506 31.4249C15.842 31.0547 15.6955 30.6918 15.4263 30.419L14.0026 31.8236ZM13.8509 31.4483V34.0294H15.8509V31.4483H13.8509Z" fill="black" fill-opacity="0.63" mask="url(#path-7-outside-2_47_9)"/>
</g>
<g id="Vector_7">
<path d="M20.3026 23.5614L20.3027 23.5614L20.3028 23.5503L20.3055 20.9721L20.3056 20.9721L20.3055 20.9628C20.3033 20.8393 20.2781 20.7168 20.2307 20.6021C20.1832 20.4874 20.114 20.3819 20.0258 20.2925C19.9375 20.203 19.8318 20.1314 19.7139 20.0831L19.5244 20.5458L19.7139 20.0831C19.5985 20.0358 19.4745 20.0123 19.3492 20.0146H16.7043C16.5795 20.0123 16.456 20.0356 16.341 20.0825C16.2235 20.1303 16.118 20.2015 16.0298 20.2904C15.9416 20.3791 15.8723 20.4839 15.8245 20.598C15.7767 20.712 15.751 20.8339 15.7481 20.9569L15.7479 20.9569V20.9687V23.5497H15.7478L15.7481 23.5614C15.7539 23.8084 15.8516 24.0487 16.0285 24.2279L16.3844 23.8767L16.0285 24.2279C16.2049 24.4067 16.4466 24.5102 16.7029 24.5067H19.3478C19.6041 24.5102 19.8458 24.4067 20.0222 24.2279C20.1991 24.0487 20.2968 23.8084 20.3026 23.5614Z" fill="white"/>
<path d="M20.3026 23.5614L20.3027 23.5614L20.3028 23.5503L20.3055 20.9721L20.3056 20.9721L20.3055 20.9628C20.3033 20.8393 20.2781 20.7168 20.2307 20.6021C20.1832 20.4874 20.114 20.3819 20.0258 20.2925C19.9375 20.203 19.8318 20.1314 19.7139 20.0831L19.5244 20.5458L19.7139 20.0831C19.5985 20.0358 19.4745 20.0123 19.3492 20.0146H16.7043C16.5795 20.0123 16.456 20.0356 16.341 20.0825C16.2235 20.1303 16.118 20.2015 16.0298 20.2904C15.9416 20.3791 15.8723 20.4839 15.8245 20.598C15.7767 20.712 15.751 20.8339 15.7481 20.9569L15.7479 20.9569V20.9687V23.5497H15.7478L15.7481 23.5614C15.7539 23.8084 15.8516 24.0487 16.0285 24.2279L16.3844 23.8767L16.0285 24.2279C16.2049 24.4067 16.4466 24.5102 16.7029 24.5067H19.3478C19.6041 24.5102 19.8458 24.4067 20.0222 24.2279C20.1991 24.0487 20.2968 23.8084 20.3026 23.5614Z" stroke="black" stroke-linejoin="round"/>
<path d="M20.3026 23.5614L20.3027 23.5614L20.3028 23.5503L20.3055 20.9721L20.3056 20.9721L20.3055 20.9628C20.3033 20.8393 20.2781 20.7168 20.2307 20.6021C20.1832 20.4874 20.114 20.3819 20.0258 20.2925C19.9375 20.203 19.8318 20.1314 19.7139 20.0831L19.5244 20.5458L19.7139 20.0831C19.5985 20.0358 19.4745 20.0123 19.3492 20.0146H16.7043C16.5795 20.0123 16.456 20.0356 16.341 20.0825C16.2235 20.1303 16.118 20.2015 16.0298 20.2904C15.9416 20.3791 15.8723 20.4839 15.8245 20.598C15.7767 20.712 15.751 20.8339 15.7481 20.9569L15.7479 20.9569V20.9687V23.5497H15.7478L15.7481 23.5614C15.7539 23.8084 15.8516 24.0487 16.0285 24.2279L16.3844 23.8767L16.0285 24.2279C16.2049 24.4067 16.4466 24.5102 16.7029 24.5067H19.3478C19.6041 24.5102 19.8458 24.4067 20.0222 24.2279C20.1991 24.0487 20.2968 23.8084 20.3026 23.5614Z" stroke="black" stroke-opacity="0.63" stroke-linejoin="round"/>
</g>
<g id="Vector_8">
<path d="M20.3027 28.7998L20.3028 28.7998L20.3028 28.7906L20.3 26.2095L20.3001 26.2095L20.2999 26.1983C20.2941 25.9513 20.1963 25.7111 20.0195 25.5319L19.6662 25.8804L20.0195 25.5319C19.8431 25.3531 19.6013 25.2495 19.345 25.253H16.7002C16.4439 25.2495 16.2021 25.3531 16.0257 25.5319C15.8489 25.7111 15.7511 25.9513 15.7453 26.1983L15.7452 26.1983V26.21V28.7911L15.7454 28.8057C15.7526 29.0527 15.8518 29.2925 16.0298 29.4707C16.207 29.648 16.4487 29.7499 16.7043 29.7452H19.3451C19.4698 29.748 19.5934 29.7252 19.7086 29.6787C19.8269 29.631 19.933 29.5596 20.0217 29.4703C20.1104 29.381 20.1799 29.2756 20.2275 29.1608L19.7658 28.969L20.2275 29.1608C20.2752 29.0461 20.3005 28.9234 20.3027 28.7998Z" fill="white"/>
<path d="M20.3027 28.7998L20.3028 28.7998L20.3028 28.7906L20.3 26.2095L20.3001 26.2095L20.2999 26.1983C20.2941 25.9513 20.1963 25.7111 20.0195 25.5319L19.6662 25.8804L20.0195 25.5319C19.8431 25.3531 19.6013 25.2495 19.345 25.253H16.7002C16.4439 25.2495 16.2021 25.3531 16.0257 25.5319C15.8489 25.7111 15.7511 25.9513 15.7453 26.1983L15.7452 26.1983V26.21V28.7911L15.7454 28.8057C15.7526 29.0527 15.8518 29.2925 16.0298 29.4707C16.207 29.648 16.4487 29.7499 16.7043 29.7452H19.3451C19.4698 29.748 19.5934 29.7252 19.7086 29.6787C19.8269 29.631 19.933 29.5596 20.0217 29.4703C20.1104 29.381 20.1799 29.2756 20.2275 29.1608L19.7658 28.969L20.2275 29.1608C20.2752 29.0461 20.3005 28.9234 20.3027 28.7998Z" stroke="black" stroke-linejoin="round"/>
<path d="M20.3027 28.7998L20.3028 28.7998L20.3028 28.7906L20.3 26.2095L20.3001 26.2095L20.2999 26.1983C20.2941 25.9513 20.1963 25.7111 20.0195 25.5319L19.6662 25.8804L20.0195 25.5319C19.8431 25.3531 19.6013 25.2495 19.345 25.253H16.7002C16.4439 25.2495 16.2021 25.3531 16.0257 25.5319C15.8489 25.7111 15.7511 25.9513 15.7453 26.1983L15.7452 26.1983V26.21V28.7911L15.7454 28.8057C15.7526 29.0527 15.8518 29.2925 16.0298 29.4707C16.207 29.648 16.4487 29.7499 16.7043 29.7452H19.3451C19.4698 29.748 19.5934 29.7252 19.7086 29.6787C19.8269 29.631 19.933 29.5596 20.0217 29.4703C20.1104 29.381 20.1799 29.2756 20.2275 29.1608L19.7658 28.969L20.2275 29.1608C20.2752 29.0461 20.3005 28.9234 20.3027 28.7998Z" stroke="black" stroke-opacity="0.63" stroke-linejoin="round"/>
</g>
<g id="Vector_9">
<mask id="path-11-outside-3_47_9" maskUnits="userSpaceOnUse" x="15.2452" y="29.991" width="6" height="6" fill="black">
<rect fill="white" x="15.2452" y="29.991" width="6" height="6"/>
<path d="M19.8028 34.0292C19.7999 34.153 19.7508 34.2706 19.6663 34.3562C19.5818 34.4419 19.4688 34.4886 19.3518 34.4862H16.6961C16.6382 34.4882 16.5806 34.4779 16.5265 34.4561C16.4724 34.4343 16.4229 34.4013 16.381 34.359C16.339 34.3168 16.3054 34.2661 16.2821 34.21C16.2588 34.1539 16.2462 34.0934 16.2452 34.0321V31.4482C16.2488 31.3241 16.2985 31.2065 16.3834 31.121C16.4683 31.0354 16.5817 30.9887 16.6989 30.9911H19.3518C19.4096 30.9896 19.4671 31.0001 19.521 31.0221C19.575 31.044 19.6243 31.0771 19.6661 31.1192C19.708 31.1614 19.7416 31.2119 19.7651 31.2678C19.7885 31.3238 19.8013 31.384 19.8028 31.4452V34.0292Z"/>
</mask>
<path d="M19.8028 34.0292C19.7999 34.153 19.7508 34.2706 19.6663 34.3562C19.5818 34.4419 19.4688 34.4886 19.3518 34.4862H16.6961C16.6382 34.4882 16.5806 34.4779 16.5265 34.4561C16.4724 34.4343 16.4229 34.4013 16.381 34.359C16.339 34.3168 16.3054 34.2661 16.2821 34.21C16.2588 34.1539 16.2462 34.0934 16.2452 34.0321V31.4482C16.2488 31.3241 16.2985 31.2065 16.3834 31.121C16.4683 31.0354 16.5817 30.9887 16.6989 30.9911H19.3518C19.4096 30.9896 19.4671 31.0001 19.521 31.0221C19.575 31.044 19.6243 31.0771 19.6661 31.1192C19.708 31.1614 19.7416 31.2119 19.7651 31.2678C19.7885 31.3238 19.8013 31.384 19.8028 31.4452V34.0292Z" fill="white"/>
<path d="M19.8028 34.0292L20.8025 34.0526C20.8027 34.0448 20.8028 34.037 20.8028 34.0292H19.8028ZM19.3518 34.4862L19.372 33.4864C19.3653 33.4863 19.3586 33.4862 19.3518 33.4862V34.4862ZM16.6961 34.4862V33.4862C16.6849 33.4862 16.6736 33.4864 16.6624 33.4868L16.6961 34.4862ZM16.2452 34.0321H15.2452C15.2452 34.038 15.2452 34.0438 15.2453 34.0496L16.2452 34.0321ZM16.2452 31.4482L15.2456 31.419C15.2453 31.4287 15.2452 31.4384 15.2452 31.4482H16.2452ZM16.6989 30.9911L16.6786 31.9909C16.6854 31.991 16.6921 31.9911 16.6989 31.9911V30.9911ZM19.3518 30.9911V31.9911C19.3608 31.9911 19.3698 31.991 19.3788 31.9908L19.3518 30.9911ZM19.8028 31.4452H20.8028C20.8028 31.4374 20.8027 31.4296 20.8025 31.4218L19.8028 31.4452ZM18.803 34.0058C18.8059 33.8832 18.8542 33.7555 18.9545 33.6539L20.3782 35.0586C20.6474 34.7857 20.7938 34.4228 20.8025 34.0526L18.803 34.0058ZM18.9545 33.6539C19.0566 33.5504 19.2057 33.4831 19.372 33.4864L19.3317 35.486C19.7318 35.4941 20.1071 35.3333 20.3782 35.0586L18.9545 33.6539ZM19.3518 33.4862H16.6961V35.4862H19.3518V33.4862ZM16.6624 33.4868C16.7452 33.484 16.8265 33.4988 16.9009 33.5288L16.1521 35.3834C16.3347 35.4571 16.5313 35.4924 16.7298 35.4857L16.6624 33.4868ZM16.9009 33.5288C16.9751 33.5588 17.0391 33.6025 17.0906 33.6544L15.6714 35.0636C15.8068 35.2 15.9697 35.3097 16.1521 35.3834L16.9009 33.5288ZM17.0906 33.6544C17.142 33.7062 17.1802 33.7651 17.2056 33.8263L15.3587 34.5937C15.4307 34.7671 15.5361 34.9274 15.6714 35.0636L17.0906 33.6544ZM17.2056 33.8263C17.231 33.8875 17.2439 33.9513 17.245 34.0147L15.2453 34.0496C15.2486 34.2355 15.2866 34.4203 15.3587 34.5937L17.2056 33.8263ZM17.2452 34.0321V31.4482H15.2452V34.0321H17.2452ZM17.2448 31.4773C17.2412 31.5986 17.1928 31.725 17.0931 31.8255L15.6737 30.4164C15.4041 30.688 15.2564 31.0495 15.2456 31.419L17.2448 31.4773ZM17.0931 31.8255C16.9915 31.9278 16.8435 31.9943 16.6786 31.9909L16.7191 29.9913C16.3198 29.9832 15.9451 30.143 15.6737 30.4164L17.0931 31.8255ZM16.6989 31.9911H19.3518V29.9911H16.6989V31.9911ZM19.3788 31.9908C19.297 31.993 19.2169 31.978 19.1436 31.9481L19.8985 30.096C19.7173 30.0222 19.5222 29.9862 19.3249 29.9915L19.3788 31.9908ZM19.1436 31.9481C19.0705 31.9183 19.0074 31.875 18.9566 31.8238L20.3757 30.4146C20.2411 30.2791 20.0795 30.1698 19.8985 30.096L19.1436 31.9481ZM18.9566 31.8238C18.9058 31.7728 18.8681 31.7147 18.8428 31.6543L20.6874 30.8813C20.6152 30.7091 20.5102 30.55 20.3757 30.4146L18.9566 31.8238ZM18.8428 31.6543C18.8175 31.5941 18.8045 31.5311 18.803 31.4687L20.8025 31.4218C20.7981 31.237 20.7595 31.0534 20.6874 30.8813L18.8428 31.6543ZM18.8028 31.4452V34.0292H20.8028V31.4452H18.8028Z" fill="black" mask="url(#path-11-outside-3_47_9)"/>
<path d="M19.8028 34.0292L20.8025 34.0526C20.8027 34.0448 20.8028 34.037 20.8028 34.0292H19.8028ZM19.3518 34.4862L19.372 33.4864C19.3653 33.4863 19.3586 33.4862 19.3518 33.4862V34.4862ZM16.6961 34.4862V33.4862C16.6849 33.4862 16.6736 33.4864 16.6624 33.4868L16.6961 34.4862ZM16.2452 34.0321H15.2452C15.2452 34.038 15.2452 34.0438 15.2453 34.0496L16.2452 34.0321ZM16.2452 31.4482L15.2456 31.419C15.2453 31.4287 15.2452 31.4384 15.2452 31.4482H16.2452ZM16.6989 30.9911L16.6786 31.9909C16.6854 31.991 16.6921 31.9911 16.6989 31.9911V30.9911ZM19.3518 30.9911V31.9911C19.3608 31.9911 19.3698 31.991 19.3788 31.9908L19.3518 30.9911ZM19.8028 31.4452H20.8028C20.8028 31.4374 20.8027 31.4296 20.8025 31.4218L19.8028 31.4452ZM18.803 34.0058C18.8059 33.8832 18.8542 33.7555 18.9545 33.6539L20.3782 35.0586C20.6474 34.7857 20.7938 34.4228 20.8025 34.0526L18.803 34.0058ZM18.9545 33.6539C19.0566 33.5504 19.2057 33.4831 19.372 33.4864L19.3317 35.486C19.7318 35.4941 20.1071 35.3333 20.3782 35.0586L18.9545 33.6539ZM19.3518 33.4862H16.6961V35.4862H19.3518V33.4862ZM16.6624 33.4868C16.7452 33.484 16.8265 33.4988 16.9009 33.5288L16.1521 35.3834C16.3347 35.4571 16.5313 35.4924 16.7298 35.4857L16.6624 33.4868ZM16.9009 33.5288C16.9751 33.5588 17.0391 33.6025 17.0906 33.6544L15.6714 35.0636C15.8068 35.2 15.9697 35.3097 16.1521 35.3834L16.9009 33.5288ZM17.0906 33.6544C17.142 33.7062 17.1802 33.7651 17.2056 33.8263L15.3587 34.5937C15.4307 34.7671 15.5361 34.9274 15.6714 35.0636L17.0906 33.6544ZM17.2056 33.8263C17.231 33.8875 17.2439 33.9513 17.245 34.0147L15.2453 34.0496C15.2486 34.2355 15.2866 34.4203 15.3587 34.5937L17.2056 33.8263ZM17.2452 34.0321V31.4482H15.2452V34.0321H17.2452ZM17.2448 31.4773C17.2412 31.5986 17.1928 31.725 17.0931 31.8255L15.6737 30.4164C15.4041 30.688 15.2564 31.0495 15.2456 31.419L17.2448 31.4773ZM17.0931 31.8255C16.9915 31.9278 16.8435 31.9943 16.6786 31.9909L16.7191 29.9913C16.3198 29.9832 15.9451 30.143 15.6737 30.4164L17.0931 31.8255ZM16.6989 31.9911H19.3518V29.9911H16.6989V31.9911ZM19.3788 31.9908C19.297 31.993 19.2169 31.978 19.1436 31.9481L19.8985 30.096C19.7173 30.0222 19.5222 29.9862 19.3249 29.9915L19.3788 31.9908ZM19.1436 31.9481C19.0705 31.9183 19.0074 31.875 18.9566 31.8238L20.3757 30.4146C20.2411 30.2791 20.0795 30.1698 19.8985 30.096L19.1436 31.9481ZM18.9566 31.8238C18.9058 31.7728 18.8681 31.7147 18.8428 31.6543L20.6874 30.8813C20.6152 30.7091 20.5102 30.55 20.3757 30.4146L18.9566 31.8238ZM18.8428 31.6543C18.8175 31.5941 18.8045 31.5311 18.803 31.4687L20.8025 31.4218C20.7981 31.237 20.7595 31.0534 20.6874 30.8813L18.8428 31.6543ZM18.8028 31.4452V34.0292H20.8028V31.4452H18.8028Z" fill="black" fill-opacity="0.63" mask="url(#path-11-outside-3_47_9)"/>
</g>
<g id="Vector_10">
<path d="M25.2684 23.5584L25.2684 23.5584V23.5498V20.9716H25.2686L25.2683 20.9603C25.2655 20.8354 25.2391 20.7116 25.1902 20.596C25.1412 20.4803 25.0701 20.3743 24.9797 20.2849L24.6294 20.639L24.9797 20.2849C24.8893 20.1955 24.7813 20.1244 24.6613 20.0775C24.5455 20.0322 24.4217 20.0107 24.297 20.0146H21.6561C21.5308 20.0123 21.4068 20.0359 21.2914 20.0831C21.1735 20.1314 21.0678 20.2031 20.9795 20.2926C20.8913 20.382 20.8221 20.4875 20.7747 20.6022C20.7272 20.7169 20.702 20.8394 20.6999 20.9629L20.6998 20.9629V20.9716V23.5498H20.6996L20.6999 23.5615C20.7057 23.8085 20.8035 24.0487 20.9803 24.228C21.1567 24.4068 21.3985 24.5103 21.6548 24.5068H24.308C24.4332 24.5096 24.5571 24.4867 24.6727 24.4401C24.7912 24.3922 24.8977 24.3206 24.9866 24.231C25.0755 24.1415 25.1452 24.0357 25.193 23.9206C25.2408 23.8055 25.2662 23.6825 25.2684 23.5584Z" fill="white"/>
<path d="M25.2684 23.5584L25.2684 23.5584V23.5498V20.9716H25.2686L25.2683 20.9603C25.2655 20.8354 25.2391 20.7116 25.1902 20.596C25.1412 20.4803 25.0701 20.3743 24.9797 20.2849L24.6294 20.639L24.9797 20.2849C24.8893 20.1955 24.7813 20.1244 24.6613 20.0775C24.5455 20.0322 24.4217 20.0107 24.297 20.0146H21.6561C21.5308 20.0123 21.4068 20.0359 21.2914 20.0831C21.1735 20.1314 21.0678 20.2031 20.9795 20.2926C20.8913 20.382 20.8221 20.4875 20.7747 20.6022C20.7272 20.7169 20.702 20.8394 20.6999 20.9629L20.6998 20.9629V20.9716V23.5498H20.6996L20.6999 23.5615C20.7057 23.8085 20.8035 24.0487 20.9803 24.228C21.1567 24.4068 21.3985 24.5103 21.6548 24.5068H24.308C24.4332 24.5096 24.5571 24.4867 24.6727 24.4401C24.7912 24.3922 24.8977 24.3206 24.9866 24.231C25.0755 24.1415 25.1452 24.0357 25.193 23.9206C25.2408 23.8055 25.2662 23.6825 25.2684 23.5584Z" stroke="black" stroke-linejoin="round"/>
<path d="M25.2684 23.5584L25.2684 23.5584V23.5498V20.9716H25.2686L25.2683 20.9603C25.2655 20.8354 25.2391 20.7116 25.1902 20.596C25.1412 20.4803 25.0701 20.3743 24.9797 20.2849L24.6294 20.639L24.9797 20.2849C24.8893 20.1955 24.7813 20.1244 24.6613 20.0775C24.5455 20.0322 24.4217 20.0107 24.297 20.0146H21.6561C21.5308 20.0123 21.4068 20.0359 21.2914 20.0831C21.1735 20.1314 21.0678 20.2031 20.9795 20.2926C20.8913 20.382 20.8221 20.4875 20.7747 20.6022C20.7272 20.7169 20.702 20.8394 20.6999 20.9629L20.6998 20.9629V20.9716V23.5498H20.6996L20.6999 23.5615C20.7057 23.8085 20.8035 24.0487 20.9803 24.228C21.1567 24.4068 21.3985 24.5103 21.6548 24.5068H24.308C24.4332 24.5096 24.5571 24.4867 24.6727 24.4401C24.7912 24.3922 24.8977 24.3206 24.9866 24.231C25.0755 24.1415 25.1452 24.0357 25.193 23.9206C25.2408 23.8055 25.2662 23.6825 25.2684 23.5584Z" stroke="black" stroke-opacity="0.63" stroke-linejoin="round"/>
</g>
<g id="Vector_11">
<path d="M30.0818 23.6405L30.0819 23.6405L30.082 23.6294L30.0847 21.0395L30.0845 21.0244C30.0773 20.7776 29.9786 20.5381 29.8014 20.3595L29.4492 20.7091L29.8014 20.3595C29.6246 20.1814 29.383 20.0784 29.1269 20.0819H26.4835C26.3587 20.0797 26.2352 20.103 26.1202 20.1499C26.0027 20.1977 25.8972 20.2689 25.809 20.3577C25.7208 20.4465 25.6515 20.5513 25.6037 20.6654C25.5559 20.7794 25.5302 20.9013 25.5273 21.0243L25.5271 21.0243V21.036V23.6288H25.527L25.5273 23.6405C25.5331 23.8875 25.6308 24.1278 25.8077 24.307C25.9841 24.4858 26.2258 24.5893 26.4821 24.5858H29.127C29.3833 24.5893 29.625 24.4858 29.8014 24.307C29.9783 24.1278 30.076 23.8875 30.0818 23.6405Z" fill="white"/>
<path d="M30.0818 23.6405L30.0819 23.6405L30.082 23.6294L30.0847 21.0395L30.0845 21.0244C30.0773 20.7776 29.9786 20.5381 29.8014 20.3595L29.4492 20.7091L29.8014 20.3595C29.6246 20.1814 29.383 20.0784 29.1269 20.0819H26.4835C26.3587 20.0797 26.2352 20.103 26.1202 20.1499C26.0027 20.1977 25.8972 20.2689 25.809 20.3577C25.7208 20.4465 25.6515 20.5513 25.6037 20.6654C25.5559 20.7794 25.5302 20.9013 25.5273 21.0243L25.5271 21.0243V21.036V23.6288H25.527L25.5273 23.6405C25.5331 23.8875 25.6308 24.1278 25.8077 24.307C25.9841 24.4858 26.2258 24.5893 26.4821 24.5858H29.127C29.3833 24.5893 29.625 24.4858 29.8014 24.307C29.9783 24.1278 30.076 23.8875 30.0818 23.6405Z" stroke="black" stroke-linejoin="round"/>
<path d="M30.0818 23.6405L30.0819 23.6405L30.082 23.6294L30.0847 21.0395L30.0845 21.0244C30.0773 20.7776 29.9786 20.5381 29.8014 20.3595L29.4492 20.7091L29.8014 20.3595C29.6246 20.1814 29.383 20.0784 29.1269 20.0819H26.4835C26.3587 20.0797 26.2352 20.103 26.1202 20.1499C26.0027 20.1977 25.8972 20.2689 25.809 20.3577C25.7208 20.4465 25.6515 20.5513 25.6037 20.6654C25.5559 20.7794 25.5302 20.9013 25.5273 21.0243L25.5271 21.0243V21.036V23.6288H25.527L25.5273 23.6405C25.5331 23.8875 25.6308 24.1278 25.8077 24.307C25.9841 24.4858 26.2258 24.5893 26.4821 24.5858H29.127C29.3833 24.5893 29.625 24.4858 29.8014 24.307C29.9783 24.1278 30.076 23.8875 30.0818 23.6405Z" stroke="black" stroke-opacity="0.63" stroke-linejoin="round"/>
</g>
<g id="Vector_12">
<path d="M25.2684 28.8028L25.2683 28.8028C25.2625 29.0498 25.1648 29.29 24.9879 29.4692C24.8115 29.648 24.5698 29.7516 24.3134 29.7481H21.6548C21.3988 29.7516 21.1572 29.6486 20.9804 29.4705C20.8031 29.2919 20.7044 29.0524 20.6972 28.8056L20.697 28.791V26.21V26.1983L20.6972 26.1983C20.7029 25.9513 20.8007 25.711 20.9775 25.5318M25.2684 28.8028L20.9775 25.5318M25.2684 28.8028V28.791V26.21H25.2686L25.2683 26.1989C25.2655 26.073 25.2389 25.9482 25.1892 25.8317L24.7293 26.0279L25.1892 25.8317C25.1395 25.7152 25.0674 25.6086 24.9757 25.519C24.8839 25.4293 24.7744 25.3585 24.653 25.3123L24.4756 25.7792L24.653 25.3123C24.537 25.2683 24.4132 25.2479 24.2888 25.2529H21.652C21.3957 25.2494 21.154 25.353 20.9775 25.5318M25.2684 28.8028L20.9775 25.5318" fill="white"/>
<path d="M25.2684 28.8028L25.2683 28.8028C25.2625 29.0498 25.1648 29.29 24.9879 29.4692C24.8115 29.648 24.5698 29.7516 24.3134 29.7481H21.6548C21.3988 29.7516 21.1572 29.6486 20.9804 29.4705C20.8031 29.2919 20.7044 29.0524 20.6972 28.8056L20.697 28.791V26.21V26.1983L20.6972 26.1983C20.7029 25.9513 20.8007 25.711 20.9775 25.5318M25.2684 28.8028L20.9775 25.5318M25.2684 28.8028V28.791V26.21H25.2686L25.2683 26.1989C25.2655 26.073 25.2389 25.9482 25.1892 25.8317L24.7293 26.0279L25.1892 25.8317C25.1395 25.7152 25.0674 25.6086 24.9757 25.519C24.8839 25.4293 24.7744 25.3585 24.653 25.3123L24.4756 25.7792L24.653 25.3123C24.537 25.2683 24.4132 25.2479 24.2888 25.2529H21.652C21.3957 25.2494 21.154 25.353 20.9775 25.5318M25.2684 28.8028L20.9775 25.5318" stroke="black" stroke-linejoin="round"/>
<path d="M25.2684 28.8028L25.2683 28.8028C25.2625 29.0498 25.1648 29.29 24.9879 29.4692C24.8115 29.648 24.5698 29.7516 24.3134 29.7481H21.6548C21.3988 29.7516 21.1572 29.6486 20.9804 29.4705C20.8031 29.2919 20.7044 29.0524 20.6972 28.8056L20.697 28.791V26.21V26.1983L20.6972 26.1983C20.7029 25.9513 20.8007 25.711 20.9775 25.5318M25.2684 28.8028L20.9775 25.5318M25.2684 28.8028V28.791V26.21H25.2686L25.2683 26.1989C25.2655 26.073 25.2389 25.9482 25.1892 25.8317L24.7293 26.0279L25.1892 25.8317C25.1395 25.7152 25.0674 25.6086 24.9757 25.519C24.8839 25.4293 24.7744 25.3585 24.653 25.3123L24.4756 25.7792L24.653 25.3123C24.537 25.2683 24.4132 25.2479 24.2888 25.2529H21.652C21.3957 25.2494 21.154 25.353 20.9775 25.5318M25.2684 28.8028L20.9775 25.5318" stroke="black" stroke-opacity="0.63" stroke-linejoin="round"/>
</g>
<g id="Vector_13">
<path d="M25.2683 34.041L25.2684 34.041V34.0293V31.4512H25.2686L25.2683 31.4394C25.2625 31.1924 25.1648 30.9522 24.9879 30.773L24.6347 31.1215L24.9879 30.773C24.8115 30.5942 24.5698 30.4906 24.3134 30.4941H21.6713C21.5467 30.4913 21.4232 30.514 21.308 30.5603C21.1899 30.6078 21.0836 30.6788 20.9947 30.7678C20.9059 30.8567 20.8361 30.9618 20.7879 31.0763C20.7398 31.1907 20.7139 31.3131 20.711 31.4366L20.7109 31.4366V31.4482V34.0293H20.7107L20.711 34.041C20.7168 34.288 20.8145 34.5282 20.9914 34.7075C21.1678 34.8863 21.4095 34.9898 21.6659 34.9863H24.3134C24.5697 34.9898 24.8115 34.8863 24.9879 34.7075C25.1648 34.5282 25.2625 34.288 25.2683 34.041Z" fill="white"/>
<path d="M25.2683 34.041L25.2684 34.041V34.0293V31.4512H25.2686L25.2683 31.4394C25.2625 31.1924 25.1648 30.9522 24.9879 30.773L24.6347 31.1215L24.9879 30.773C24.8115 30.5942 24.5698 30.4906 24.3134 30.4941H21.6713C21.5467 30.4913 21.4232 30.514 21.308 30.5603C21.1899 30.6078 21.0836 30.6788 20.9947 30.7678C20.9059 30.8567 20.8361 30.9618 20.7879 31.0763C20.7398 31.1907 20.7139 31.3131 20.711 31.4366L20.7109 31.4366V31.4482V34.0293H20.7107L20.711 34.041C20.7168 34.288 20.8145 34.5282 20.9914 34.7075C21.1678 34.8863 21.4095 34.9898 21.6659 34.9863H24.3134C24.5697 34.9898 24.8115 34.8863 24.9879 34.7075C25.1648 34.5282 25.2625 34.288 25.2683 34.041Z" stroke="black" stroke-linejoin="round"/>
<path d="M25.2683 34.041L25.2684 34.041V34.0293V31.4512H25.2686L25.2683 31.4394C25.2625 31.1924 25.1648 30.9522 24.9879 30.773L24.6347 31.1215L24.9879 30.773C24.8115 30.5942 24.5698 30.4906 24.3134 30.4941H21.6713C21.5467 30.4913 21.4232 30.514 21.308 30.5603C21.1899 30.6078 21.0836 30.6788 20.9947 30.7678C20.9059 30.8567 20.8361 30.9618 20.7879 31.0763C20.7398 31.1907 20.7139 31.3131 20.711 31.4366L20.7109 31.4366V31.4482V34.0293H20.7107L20.711 34.041C20.7168 34.288 20.8145 34.5282 20.9914 34.7075C21.1678 34.8863 21.4095 34.9898 21.6659 34.9863H24.3134C24.5697 34.9898 24.8115 34.8863 24.9879 34.7075C25.1648 34.5282 25.2625 34.288 25.2683 34.041Z" stroke="black" stroke-opacity="0.63" stroke-linejoin="round"/>
</g>
<g id="Vector_14">
<mask id="path-17-outside-4_47_9" maskUnits="userSpaceOnUse" x="10.1716" y="14.9414" width="6" height="6" fill="black">
<rect fill="white" x="10.1716" y="14.9414" width="6" height="6"/>
<path d="M14.9782 18.5431C14.9775 18.5964 14.9668 18.6491 14.9467 18.698C14.9267 18.747 14.8977 18.7913 14.8615 18.8283C14.8252 18.8653 14.7824 18.8944 14.7355 18.9138C14.6886 18.9333 14.6385 18.9427 14.5881 18.9415H11.5617C11.5115 18.9427 11.4617 18.9334 11.4149 18.9141C11.3682 18.8949 11.3255 18.8661 11.2893 18.8293C11.2531 18.7926 11.224 18.7487 11.2038 18.7001C11.1836 18.6514 11.1727 18.5991 11.1716 18.546V16.337C11.1727 16.2839 11.1836 16.2316 11.2038 16.183C11.224 16.1343 11.2531 16.0904 11.2893 16.0537C11.3255 16.017 11.3682 15.9881 11.4149 15.9689C11.4617 15.9496 11.5115 15.9403 11.5617 15.9415H14.5881C14.6889 15.9391 14.7865 15.9791 14.8596 16.0526C14.9326 16.1262 14.9753 16.2274 14.9782 16.3341V18.5431Z"/>
</mask>
<path d="M14.9782 18.5431C14.9775 18.5964 14.9668 18.6491 14.9467 18.698C14.9267 18.747 14.8977 18.7913 14.8615 18.8283C14.8252 18.8653 14.7824 18.8944 14.7355 18.9138C14.6886 18.9333 14.6385 18.9427 14.5881 18.9415H11.5617C11.5115 18.9427 11.4617 18.9334 11.4149 18.9141C11.3682 18.8949 11.3255 18.8661 11.2893 18.8293C11.2531 18.7926 11.224 18.7487 11.2038 18.7001C11.1836 18.6514 11.1727 18.5991 11.1716 18.546V16.337C11.1727 16.2839 11.1836 16.2316 11.2038 16.183C11.224 16.1343 11.2531 16.0904 11.2893 16.0537C11.3255 16.017 11.3682 15.9881 11.4149 15.9689C11.4617 15.9496 11.5115 15.9403 11.5617 15.9415H14.5881C14.6889 15.9391 14.7865 15.9791 14.8596 16.0526C14.9326 16.1262 14.9753 16.2274 14.9782 16.3341V18.5431Z" fill="#CCCCCC"/>
<path d="M14.9782 18.5431L15.9782 18.5565V18.5431H14.9782ZM14.5881 18.9415L14.6112 17.9418C14.6035 17.9416 14.5958 17.9415 14.5881 17.9415V18.9415ZM11.5617 18.9415V17.9415C11.5539 17.9415 11.5462 17.9416 11.5384 17.9418L11.5617 18.9415ZM11.1716 18.546H10.1716C10.1716 18.5528 10.1717 18.5595 10.1718 18.5663L11.1716 18.546ZM11.1716 16.337L10.1718 16.3167C10.1717 16.3235 10.1716 16.3302 10.1716 16.337H11.1716ZM11.5617 15.9415L11.5384 16.9412C11.5462 16.9414 11.5539 16.9415 11.5617 16.9415V15.9415ZM14.5881 15.9415V16.9415C14.5959 16.9415 14.6037 16.9414 14.6116 16.9412L14.5881 15.9415ZM14.9782 16.3341H15.9782C15.9782 16.325 15.978 16.316 15.9778 16.3069L14.9782 16.3341ZM13.9783 18.5296C13.9792 18.4588 13.9934 18.3875 14.0212 18.3194L15.8723 19.0767C15.9402 18.9107 15.9757 18.7341 15.9781 18.5565L13.9783 18.5296ZM14.0212 18.3194C14.0491 18.2512 14.0909 18.186 14.1469 18.1287L15.5761 19.5279C15.7046 19.3966 15.8044 19.2427 15.8723 19.0767L14.0212 18.3194ZM14.1469 18.1287C14.203 18.0714 14.2725 18.0232 14.3529 17.9899L15.1181 19.8378C15.2923 19.7656 15.4474 19.6593 15.5761 19.5279L14.1469 18.1287ZM14.3529 17.9899C14.4334 17.9566 14.5214 17.9397 14.6112 17.9418L14.565 19.9412C14.7555 19.9456 14.9437 19.91 15.1181 19.8378L14.3529 17.9899ZM14.5881 17.9415H11.5617V19.9415H14.5881V17.9415ZM11.5384 17.9418C11.6278 17.9397 11.7155 17.9564 11.7957 17.9895L11.0342 19.8388C11.2079 19.9103 11.3953 19.9457 11.5849 19.9412L11.5384 17.9418ZM11.7957 17.9895C11.8758 18.0224 11.9451 18.0702 12.0013 18.1271L10.5773 19.5315C10.7059 19.6619 10.8606 19.7673 11.0342 19.8388L11.7957 17.9895ZM12.0013 18.1271C12.0573 18.1839 12.0992 18.2488 12.1274 18.3166L10.2803 19.0836C10.3488 19.2486 10.4488 19.4013 10.5773 19.5315L12.0013 18.1271ZM12.1274 18.3166C12.1555 18.3842 12.17 18.4552 12.1714 18.5257L10.1718 18.5663C10.1754 18.743 10.2118 18.9187 10.2803 19.0836L12.1274 18.3166ZM12.1716 18.546V16.337H10.1716V18.546H12.1716ZM12.1714 16.3573C12.17 16.4279 12.1555 16.4988 12.1274 16.5665L10.2803 15.7994C10.2118 15.9644 10.1754 16.14 10.1718 16.3167L12.1714 16.3573ZM12.1274 16.5665C12.0992 16.6342 12.0573 16.6991 12.0013 16.7559L10.5773 15.3515C10.4488 15.4817 10.3488 15.6345 10.2803 15.7994L12.1274 16.5665ZM12.0013 16.7559C11.9451 16.8128 11.8758 16.8606 11.7957 16.8936L11.0342 15.0442C10.8606 15.1157 10.7059 15.2211 10.5773 15.3515L12.0013 16.7559ZM11.7957 16.8936C11.7155 16.9266 11.6278 16.9433 11.5384 16.9412L11.5849 14.9418C11.3953 14.9374 11.2079 14.9727 11.0342 15.0442L11.7957 16.8936ZM11.5617 16.9415H14.5881V14.9415H11.5617V16.9415ZM14.6116 16.9412C14.4293 16.9455 14.2644 16.8724 14.1502 16.7575L15.5689 15.3478C15.3086 15.0858 14.9485 14.9328 14.5646 14.9418L14.6116 16.9412ZM14.1502 16.7575C14.0379 16.6445 13.9823 16.5007 13.9785 16.3612L15.9778 16.3069C15.9682 15.954 15.8274 15.6079 15.5689 15.3478L14.1502 16.7575ZM13.9782 16.3341V18.5431H15.9782V16.3341H13.9782Z" fill="black" mask="url(#path-17-outside-4_47_9)"/>
<path d="M14.9782 18.5431L15.9782 18.5565V18.5431H14.9782ZM14.5881 18.9415L14.6112 17.9418C14.6035 17.9416 14.5958 17.9415 14.5881 17.9415V18.9415ZM11.5617 18.9415V17.9415C11.5539 17.9415 11.5462 17.9416 11.5384 17.9418L11.5617 18.9415ZM11.1716 18.546H10.1716C10.1716 18.5528 10.1717 18.5595 10.1718 18.5663L11.1716 18.546ZM11.1716 16.337L10.1718 16.3167C10.1717 16.3235 10.1716 16.3302 10.1716 16.337H11.1716ZM11.5617 15.9415L11.5384 16.9412C11.5462 16.9414 11.5539 16.9415 11.5617 16.9415V15.9415ZM14.5881 15.9415V16.9415C14.5959 16.9415 14.6037 16.9414 14.6116 16.9412L14.5881 15.9415ZM14.9782 16.3341H15.9782C15.9782 16.325 15.978 16.316 15.9778 16.3069L14.9782 16.3341ZM13.9783 18.5296C13.9792 18.4588 13.9934 18.3875 14.0212 18.3194L15.8723 19.0767C15.9402 18.9107 15.9757 18.7341 15.9781 18.5565L13.9783 18.5296ZM14.0212 18.3194C14.0491 18.2512 14.0909 18.186 14.1469 18.1287L15.5761 19.5279C15.7046 19.3966 15.8044 19.2427 15.8723 19.0767L14.0212 18.3194ZM14.1469 18.1287C14.203 18.0714 14.2725 18.0232 14.3529 17.9899L15.1181 19.8378C15.2923 19.7656 15.4474 19.6593 15.5761 19.5279L14.1469 18.1287ZM14.3529 17.9899C14.4334 17.9566 14.5214 17.9397 14.6112 17.9418L14.565 19.9412C14.7555 19.9456 14.9437 19.91 15.1181 19.8378L14.3529 17.9899ZM14.5881 17.9415H11.5617V19.9415H14.5881V17.9415ZM11.5384 17.9418C11.6278 17.9397 11.7155 17.9564 11.7957 17.9895L11.0342 19.8388C11.2079 19.9103 11.3953 19.9457 11.5849 19.9412L11.5384 17.9418ZM11.7957 17.9895C11.8758 18.0224 11.9451 18.0702 12.0013 18.1271L10.5773 19.5315C10.7059 19.6619 10.8606 19.7673 11.0342 19.8388L11.7957 17.9895ZM12.0013 18.1271C12.0573 18.1839 12.0992 18.2488 12.1274 18.3166L10.2803 19.0836C10.3488 19.2486 10.4488 19.4013 10.5773 19.5315L12.0013 18.1271ZM12.1274 18.3166C12.1555 18.3842 12.17 18.4552 12.1714 18.5257L10.1718 18.5663C10.1754 18.743 10.2118 18.9187 10.2803 19.0836L12.1274 18.3166ZM12.1716 18.546V16.337H10.1716V18.546H12.1716ZM12.1714 16.3573C12.17 16.4279 12.1555 16.4988 12.1274 16.5665L10.2803 15.7994C10.2118 15.9644 10.1754 16.14 10.1718 16.3167L12.1714 16.3573ZM12.1274 16.5665C12.0992 16.6342 12.0573 16.6991 12.0013 16.7559L10.5773 15.3515C10.4488 15.4817 10.3488 15.6345 10.2803 15.7994L12.1274 16.5665ZM12.0013 16.7559C11.9451 16.8128 11.8758 16.8606 11.7957 16.8936L11.0342 15.0442C10.8606 15.1157 10.7059 15.2211 10.5773 15.3515L12.0013 16.7559ZM11.7957 16.8936C11.7155 16.9266 11.6278 16.9433 11.5384 16.9412L11.5849 14.9418C11.3953 14.9374 11.2079 14.9727 11.0342 15.0442L11.7957 16.8936ZM11.5617 16.9415H14.5881V14.9415H11.5617V16.9415ZM14.6116 16.9412C14.4293 16.9455 14.2644 16.8724 14.1502 16.7575L15.5689 15.3478C15.3086 15.0858 14.9485 14.9328 14.5646 14.9418L14.6116 16.9412ZM14.1502 16.7575C14.0379 16.6445 13.9823 16.5007 13.9785 16.3612L15.9778 16.3069C15.9682 15.954 15.8274 15.6079 15.5689 15.3478L14.1502 16.7575ZM13.9782 16.3341V18.5431H15.9782V16.3341H13.9782Z" fill="black" fill-opacity="0.63" mask="url(#path-17-outside-4_47_9)"/>
</g>
<g id="Vector_15">
<path d="M20.43 18.5559L20.4299 18.5559C20.4276 18.6708 20.4039 18.7848 20.3596 18.8916C20.3152 18.9984 20.2507 19.0967 20.1684 19.1802L19.821 18.8376L20.1683 19.1802C20.086 19.2637 19.9872 19.3309 19.8771 19.3762L20.43 18.5559ZM20.43 18.5559V18.5458M20.43 18.5559V18.5458M20.43 18.5458V16.3397H20.4301L20.4299 16.3295C20.4276 16.2146 20.4039 16.1006 20.3596 15.9939L20.3596 15.9939C20.3152 15.8871 20.2507 15.7888 20.1684 15.7053L19.83 16.039L20.1684 15.7053C20.086 15.6217 19.9872 15.5546 19.8771 15.5092C19.769 15.4647 19.6529 15.4424 19.5354 15.4442H16.5181C16.2785 15.4405 16.0525 15.5368 15.8874 15.7029C15.7216 15.8697 15.6299 16.0934 15.6236 16.3232L15.6235 16.3232V16.3368V18.5428H15.6234M20.43 18.5458L15.6234 18.5428M15.6234 18.5428L15.6236 18.553L15.6234 18.5428ZM16.5166 19.4413H19.5354H16.5135H16.5166Z" fill="#CCCCCC"/>
<path d="M20.43 18.5559L20.4299 18.5559C20.4276 18.6708 20.4039 18.7848 20.3596 18.8916C20.3152 18.9984 20.2507 19.0967 20.1684 19.1802L19.821 18.8376L20.1683 19.1802C20.086 19.2637 19.9872 19.3309 19.8771 19.3762L20.43 18.5559ZM20.43 18.5559V18.5458M20.43 18.5559V18.5458M20.43 18.5458V16.3397H20.4301L20.4299 16.3295C20.4276 16.2146 20.4039 16.1006 20.3596 15.9939L20.3596 15.9939C20.3152 15.8871 20.2507 15.7888 20.1684 15.7053L19.83 16.039L20.1684 15.7053C20.086 15.6217 19.9872 15.5546 19.8771 15.5092C19.769 15.4647 19.6529 15.4424 19.5354 15.4442H16.5181C16.2785 15.4405 16.0525 15.5368 15.8874 15.7029C15.7216 15.8697 15.6299 16.0934 15.6236 16.3232L15.6235 16.3232V16.3368V18.5428H15.6234M20.43 18.5458L15.6234 18.5428M15.6234 18.5428L15.6236 18.553L15.6234 18.5428ZM16.5166 19.4413H19.5354H16.5135H16.5166Z" stroke="black" stroke-linejoin="round"/>
<path d="M20.43 18.5559L20.4299 18.5559C20.4276 18.6708 20.4039 18.7848 20.3596 18.8916C20.3152 18.9984 20.2507 19.0967 20.1684 19.1802L19.821 18.8376L20.1683 19.1802C20.086 19.2637 19.9872 19.3309 19.8771 19.3762L20.43 18.5559ZM20.43 18.5559V18.5458M20.43 18.5559V18.5458M20.43 18.5458V16.3397H20.4301L20.4299 16.3295C20.4276 16.2146 20.4039 16.1006 20.3596 15.9939L20.3596 15.9939C20.3152 15.8871 20.2507 15.7888 20.1684 15.7053L19.83 16.039L20.1684 15.7053C20.086 15.6217 19.9872 15.5546 19.8771 15.5092C19.769 15.4647 19.6529 15.4424 19.5354 15.4442H16.5181C16.2785 15.4405 16.0525 15.5368 15.8874 15.7029C15.7216 15.8697 15.6299 16.0934 15.6236 16.3232L15.6235 16.3232V16.3368V18.5428H15.6234M20.43 18.5458L15.6234 18.5428M15.6234 18.5428L15.6236 18.553L15.6234 18.5428ZM16.5166 19.4413H19.5354H16.5135H16.5166Z" stroke="black" stroke-opacity="0.63" stroke-linejoin="round"/>
</g>
<g id="Vector_16">
<mask id="path-20-outside-5_47_9" maskUnits="userSpaceOnUse" x="20.0753" y="14.9441" width="6" height="5" fill="black">
<rect fill="white" x="20.0753" y="14.9441" width="6" height="5"/>
<path d="M24.8818 18.5458C24.8808 18.5989 24.8698 18.6513 24.8496 18.6999C24.8294 18.7485 24.8004 18.7924 24.7642 18.8292C24.728 18.8659 24.6853 18.8947 24.6385 18.914C24.5918 18.9332 24.5419 18.9425 24.4918 18.9413H21.4654C21.4152 18.9425 21.3654 18.9332 21.3186 18.914C21.2719 18.8947 21.2292 18.8659 21.193 18.8292C21.1567 18.7924 21.1277 18.7485 21.1075 18.6999C21.0873 18.6513 21.0764 18.5989 21.0753 18.5458V16.3398C21.0764 16.2864 21.0874 16.2338 21.1078 16.185C21.1281 16.1362 21.1574 16.0921 21.1939 16.0554C21.2304 16.0186 21.2735 15.9899 21.3205 15.9708C21.3676 15.9517 21.4178 15.9427 21.4681 15.9443H24.4918C24.5419 15.9431 24.5918 15.9524 24.6385 15.9716C24.6853 15.9909 24.728 16.0197 24.7642 16.0564C24.8004 16.0932 24.8294 16.1371 24.8496 16.1857C24.8698 16.2343 24.8808 16.2867 24.8818 16.3398V18.5458Z"/>
</mask>
<path d="M24.8818 18.5458C24.8808 18.5989 24.8698 18.6513 24.8496 18.6999C24.8294 18.7485 24.8004 18.7924 24.7642 18.8292C24.728 18.8659 24.6853 18.8947 24.6385 18.914C24.5918 18.9332 24.5419 18.9425 24.4918 18.9413H21.4654C21.4152 18.9425 21.3654 18.9332 21.3186 18.914C21.2719 18.8947 21.2292 18.8659 21.193 18.8292C21.1567 18.7924 21.1277 18.7485 21.1075 18.6999C21.0873 18.6513 21.0764 18.5989 21.0753 18.5458V16.3398C21.0764 16.2864 21.0874 16.2338 21.1078 16.185C21.1281 16.1362 21.1574 16.0921 21.1939 16.0554C21.2304 16.0186 21.2735 15.9899 21.3205 15.9708C21.3676 15.9517 21.4178 15.9427 21.4681 15.9443H24.4918C24.5419 15.9431 24.5918 15.9524 24.6385 15.9716C24.6853 15.9909 24.728 16.0197 24.7642 16.0564C24.8004 16.0932 24.8294 16.1371 24.8496 16.1857C24.8698 16.2343 24.8808 16.2867 24.8818 16.3398V18.5458Z" fill="#CCCCCC"/>
<path d="M24.8818 18.5458L25.8816 18.5661C25.8818 18.5594 25.8818 18.5526 25.8818 18.5458H24.8818ZM24.4918 18.9413L24.5151 17.9416C24.5073 17.9414 24.4995 17.9413 24.4918 17.9413V18.9413ZM21.4654 18.9413V17.9413C21.4576 17.9413 21.4498 17.9414 21.4421 17.9416L21.4654 18.9413ZM21.0753 18.5458H20.0753C20.0753 18.5526 20.0754 18.5594 20.0755 18.5661L21.0753 18.5458ZM21.0753 16.3398L20.0755 16.3196C20.0754 16.3264 20.0753 16.3331 20.0753 16.3398H21.0753ZM21.4681 15.9443L21.4372 16.9438C21.4475 16.9441 21.4578 16.9443 21.4681 16.9443V15.9443ZM24.4918 15.9443V16.9443C24.4995 16.9443 24.5073 16.9442 24.5151 16.944L24.4918 15.9443ZM24.8818 16.3398H25.8818C25.8818 16.333 25.8818 16.3262 25.8816 16.3195L24.8818 16.3398ZM23.8821 18.5255C23.8835 18.455 23.898 18.3841 23.9261 18.3164L25.7732 19.0834C25.8417 18.9185 25.8781 18.7429 25.8816 18.5661L23.8821 18.5255ZM23.9261 18.3164C23.9542 18.2486 23.9962 18.1838 24.0522 18.127L25.4762 19.5314C25.6046 19.4011 25.7047 19.2484 25.7732 19.0834L23.9261 18.3164ZM24.0522 18.127C24.1083 18.0701 24.1777 18.0223 24.2578 17.9893L25.0193 19.8386C25.1928 19.7672 25.3476 19.6617 25.4762 19.5314L24.0522 18.127ZM24.2578 17.9893C24.338 17.9562 24.4256 17.9395 24.5151 17.9416L24.4685 19.9411C24.6582 19.9455 24.8456 19.9102 25.0193 19.8386L24.2578 17.9893ZM24.4918 17.9413H21.4654V19.9413H24.4918V17.9413ZM21.4421 17.9416C21.5315 17.9395 21.6191 17.9562 21.6994 17.9893L20.9378 19.8386C21.1116 19.9102 21.2989 19.9455 21.4886 19.9411L21.4421 17.9416ZM21.6994 17.9893C21.7795 18.0223 21.8488 18.0701 21.9049 18.127L20.481 19.5314C20.6095 19.6617 20.7643 19.7672 20.9378 19.8386L21.6994 17.9893ZM21.9049 18.127C21.961 18.1838 22.0029 18.2486 22.031 18.3164L20.184 19.0834C20.2525 19.2484 20.3525 19.4011 20.481 19.5314L21.9049 18.127ZM22.031 18.3164C22.0591 18.3841 22.0737 18.455 22.0751 18.5255L20.0755 18.5661C20.0791 18.7429 20.1155 18.9185 20.184 19.0834L22.031 18.3164ZM22.0753 18.5458V16.3398H20.0753V18.5458H22.0753ZM22.0751 16.3599C22.0737 16.4308 22.059 16.502 22.0307 16.57L20.1848 15.8C20.1158 15.9656 20.0791 16.1421 20.0755 16.3196L22.0751 16.3599ZM22.0307 16.57C22.0023 16.6381 21.96 16.7032 21.9034 16.7601L20.4844 15.3507C20.3549 15.4811 20.254 15.6343 20.1848 15.8L22.0307 16.57ZM21.9034 16.7601C21.8468 16.8171 21.7768 16.8649 21.6961 16.8976L20.945 15.044C20.7701 15.1149 20.6141 15.2201 20.4844 15.3507L21.9034 16.7601ZM21.6961 16.8976C21.6152 16.9304 21.527 16.9466 21.4372 16.9438L21.4991 14.9447C21.3085 14.9388 21.12 14.9731 20.945 15.044L21.6961 16.8976ZM21.4681 16.9443H24.4918V14.9443H21.4681V16.9443ZM24.5151 16.944C24.4256 16.9461 24.338 16.9294 24.2578 16.8963L25.0193 15.047C24.8456 14.9754 24.6582 14.9401 24.4685 14.9445L24.5151 16.944ZM24.2578 16.8963C24.1777 16.8633 24.1083 16.8155 24.0522 16.7586L25.4762 15.3542C25.3476 15.2239 25.1929 15.1185 25.0193 15.047L24.2578 16.8963ZM24.0522 16.7586C23.9962 16.7018 23.9542 16.637 23.9261 16.5692L25.7732 15.8022C25.7047 15.6372 25.6046 15.4845 25.4762 15.3542L24.0522 16.7586ZM23.9261 16.5692C23.898 16.5015 23.8835 16.4306 23.8821 16.3601L25.8816 16.3195C25.8781 16.1427 25.8417 15.9671 25.7732 15.8022L23.9261 16.5692ZM23.8818 16.3398V18.5458H25.8818V16.3398H23.8818Z" fill="black" mask="url(#path-20-outside-5_47_9)"/>
<path d="M24.8818 18.5458L25.8816 18.5661C25.8818 18.5594 25.8818 18.5526 25.8818 18.5458H24.8818ZM24.4918 18.9413L24.5151 17.9416C24.5073 17.9414 24.4995 17.9413 24.4918 17.9413V18.9413ZM21.4654 18.9413V17.9413C21.4576 17.9413 21.4498 17.9414 21.4421 17.9416L21.4654 18.9413ZM21.0753 18.5458H20.0753C20.0753 18.5526 20.0754 18.5594 20.0755 18.5661L21.0753 18.5458ZM21.0753 16.3398L20.0755 16.3196C20.0754 16.3264 20.0753 16.3331 20.0753 16.3398H21.0753ZM21.4681 15.9443L21.4372 16.9438C21.4475 16.9441 21.4578 16.9443 21.4681 16.9443V15.9443ZM24.4918 15.9443V16.9443C24.4995 16.9443 24.5073 16.9442 24.5151 16.944L24.4918 15.9443ZM24.8818 16.3398H25.8818C25.8818 16.333 25.8818 16.3262 25.8816 16.3195L24.8818 16.3398ZM23.8821 18.5255C23.8835 18.455 23.898 18.3841 23.9261 18.3164L25.7732 19.0834C25.8417 18.9185 25.8781 18.7429 25.8816 18.5661L23.8821 18.5255ZM23.9261 18.3164C23.9542 18.2486 23.9962 18.1838 24.0522 18.127L25.4762 19.5314C25.6046 19.4011 25.7047 19.2484 25.7732 19.0834L23.9261 18.3164ZM24.0522 18.127C24.1083 18.0701 24.1777 18.0223 24.2578 17.9893L25.0193 19.8386C25.1928 19.7672 25.3476 19.6617 25.4762 19.5314L24.0522 18.127ZM24.2578 17.9893C24.338 17.9562 24.4256 17.9395 24.5151 17.9416L24.4685 19.9411C24.6582 19.9455 24.8456 19.9102 25.0193 19.8386L24.2578 17.9893ZM24.4918 17.9413H21.4654V19.9413H24.4918V17.9413ZM21.4421 17.9416C21.5315 17.9395 21.6191 17.9562 21.6994 17.9893L20.9378 19.8386C21.1116 19.9102 21.2989 19.9455 21.4886 19.9411L21.4421 17.9416ZM21.6994 17.9893C21.7795 18.0223 21.8488 18.0701 21.9049 18.127L20.481 19.5314C20.6095 19.6617 20.7643 19.7672 20.9378 19.8386L21.6994 17.9893ZM21.9049 18.127C21.961 18.1838 22.0029 18.2486 22.031 18.3164L20.184 19.0834C20.2525 19.2484 20.3525 19.4011 20.481 19.5314L21.9049 18.127ZM22.031 18.3164C22.0591 18.3841 22.0737 18.455 22.0751 18.5255L20.0755 18.5661C20.0791 18.7429 20.1155 18.9185 20.184 19.0834L22.031 18.3164ZM22.0753 18.5458V16.3398H20.0753V18.5458H22.0753ZM22.0751 16.3599C22.0737 16.4308 22.059 16.502 22.0307 16.57L20.1848 15.8C20.1158 15.9656 20.0791 16.1421 20.0755 16.3196L22.0751 16.3599ZM22.0307 16.57C22.0023 16.6381 21.96 16.7032 21.9034 16.7601L20.4844 15.3507C20.3549 15.4811 20.254 15.6343 20.1848 15.8L22.0307 16.57ZM21.9034 16.7601C21.8468 16.8171 21.7768 16.8649 21.6961 16.8976L20.945 15.044C20.7701 15.1149 20.6141 15.2201 20.4844 15.3507L21.9034 16.7601ZM21.6961 16.8976C21.6152 16.9304 21.527 16.9466 21.4372 16.9438L21.4991 14.9447C21.3085 14.9388 21.12 14.9731 20.945 15.044L21.6961 16.8976ZM21.4681 16.9443H24.4918V14.9443H21.4681V16.9443ZM24.5151 16.944C24.4256 16.9461 24.338 16.9294 24.2578 16.8963L25.0193 15.047C24.8456 14.9754 24.6582 14.9401 24.4685 14.9445L24.5151 16.944ZM24.2578 16.8963C24.1777 16.8633 24.1083 16.8155 24.0522 16.7586L25.4762 15.3542C25.3476 15.2239 25.1929 15.1185 25.0193 15.047L24.2578 16.8963ZM24.0522 16.7586C23.9962 16.7018 23.9542 16.637 23.9261 16.5692L25.7732 15.8022C25.7047 15.6372 25.6046 15.4845 25.4762 15.3542L24.0522 16.7586ZM23.9261 16.5692C23.898 16.5015 23.8835 16.4306 23.8821 16.3601L25.8816 16.3195C25.8781 16.1427 25.8417 15.9671 25.7732 15.8022L23.9261 16.5692ZM23.8818 16.3398V18.5458H25.8818V16.3398H23.8818Z" fill="black" fill-opacity="0.63" mask="url(#path-20-outside-5_47_9)"/>
</g>
<g id="Vector_17">
<mask id="path-22-outside-6_47_9" maskUnits="userSpaceOnUse" x="25.0382" y="14.9441" width="6" height="5" fill="black">
<rect fill="white" x="25.0382" y="14.9441" width="6" height="5"/>
<path d="M29.8337 18.5458C29.8326 18.5989 29.8217 18.6512 29.8015 18.6998C29.7813 18.7484 29.7523 18.7924 29.716 18.8291C29.6798 18.8658 29.6371 18.8946 29.5904 18.9139C29.5436 18.9331 29.4938 18.9424 29.4436 18.9413H26.4283C26.3781 18.9424 26.3283 18.9331 26.2815 18.9139C26.2348 18.8946 26.1921 18.8658 26.1559 18.8291C26.1196 18.7924 26.0906 18.7484 26.0704 18.6998C26.0502 18.6512 26.0393 18.5989 26.0382 18.5458V16.3397C26.0393 16.2866 26.0502 16.2342 26.0704 16.1856C26.0906 16.137 26.1196 16.0931 26.1559 16.0564C26.1921 16.0196 26.2348 15.9908 26.2815 15.9716C26.3283 15.9523 26.3781 15.943 26.4283 15.9442H29.4436C29.5451 15.9426 29.6431 15.9836 29.7162 16.0583C29.7893 16.1329 29.8315 16.2351 29.8337 16.3426V18.5458Z"/>
</mask>
<path d="M29.8337 18.5458C29.8326 18.5989 29.8217 18.6512 29.8015 18.6998C29.7813 18.7484 29.7523 18.7924 29.716 18.8291C29.6798 18.8658 29.6371 18.8946 29.5904 18.9139C29.5436 18.9331 29.4938 18.9424 29.4436 18.9413H26.4283C26.3781 18.9424 26.3283 18.9331 26.2815 18.9139C26.2348 18.8946 26.1921 18.8658 26.1559 18.8291C26.1196 18.7924 26.0906 18.7484 26.0704 18.6998C26.0502 18.6512 26.0393 18.5989 26.0382 18.5458V16.3397C26.0393 16.2866 26.0502 16.2342 26.0704 16.1856C26.0906 16.137 26.1196 16.0931 26.1559 16.0564C26.1921 16.0196 26.2348 15.9908 26.2815 15.9716C26.3283 15.9523 26.3781 15.943 26.4283 15.9442H29.4436C29.5451 15.9426 29.6431 15.9836 29.7162 16.0583C29.7893 16.1329 29.8315 16.2351 29.8337 16.3426V18.5458Z" fill="#CCCCCC"/>
<path d="M29.8337 18.5458L30.8335 18.5661C30.8336 18.5593 30.8337 18.5525 30.8337 18.5458H29.8337ZM29.4436 18.9413L29.4669 17.9415C29.4591 17.9414 29.4514 17.9413 29.4436 17.9413V18.9413ZM26.4283 18.9413V17.9413C26.4205 17.9413 26.4127 17.9414 26.405 17.9415L26.4283 18.9413ZM26.0382 18.5458H25.0382C25.0382 18.5525 25.0383 18.5593 25.0384 18.5661L26.0382 18.5458ZM26.0382 16.3397L25.0384 16.3194C25.0383 16.3262 25.0382 16.3329 25.0382 16.3397H26.0382ZM26.4283 15.9442L26.405 16.9439C26.4127 16.9441 26.4205 16.9442 26.4283 16.9442V15.9442ZM29.4436 15.9442V16.9442C29.4488 16.9442 29.454 16.9441 29.4591 16.9441L29.4436 15.9442ZM29.8337 16.3426H30.8337C30.8337 16.3359 30.8336 16.3291 30.8335 16.3223L29.8337 16.3426ZM28.8339 18.5255C28.8353 18.4549 28.8498 18.384 28.8779 18.3163L30.725 19.0833C30.7935 18.9184 30.8299 18.7428 30.8335 18.5661L28.8339 18.5255ZM28.8779 18.3163C28.9061 18.2486 28.948 18.1837 29.004 18.1269L30.428 19.5313C30.5565 19.401 30.6565 19.2483 30.725 19.0833L28.8779 18.3163ZM29.004 18.1269C29.0602 18.07 29.1295 18.0222 29.2096 17.9892L29.9711 19.8385C30.1447 19.7671 30.2994 19.6617 30.428 19.5313L29.004 18.1269ZM29.2096 17.9892C29.2898 17.9562 29.3775 17.9395 29.4669 17.9415L29.4204 19.941C29.6101 19.9454 29.7974 19.9101 29.9711 19.8385L29.2096 17.9892ZM29.4436 17.9413H26.4283V19.9413H29.4436V17.9413ZM26.405 17.9415C26.4944 17.9395 26.5821 17.9562 26.6623 17.9892L25.9008 19.8385C26.0745 19.9101 26.2618 19.9454 26.4515 19.941L26.405 17.9415ZM26.6623 17.9892C26.7424 18.0222 26.8117 18.07 26.8679 18.1269L25.4439 19.5313C25.5725 19.6617 25.7272 19.7671 25.9008 19.8385L26.6623 17.9892ZM26.8679 18.1269C26.9239 18.1837 26.9658 18.2486 26.9939 18.3163L25.1469 19.0833C25.2154 19.2483 25.3154 19.401 25.4439 19.5313L26.8679 18.1269ZM26.9939 18.3163C27.0221 18.384 27.0366 18.4549 27.038 18.5255L25.0384 18.5661C25.042 18.7428 25.0784 18.9184 25.1469 19.0833L26.9939 18.3163ZM27.0382 18.5458V16.3397H25.0382V18.5458H27.0382ZM27.038 16.36C27.0366 16.4305 27.0221 16.5015 26.9939 16.5691L25.1469 15.8021C25.0784 15.967 25.042 16.1427 25.0384 16.3194L27.038 16.36ZM26.9939 16.5691C26.9658 16.6369 26.9239 16.7018 26.8679 16.7585L25.4439 15.3542C25.3154 15.4844 25.2154 15.6371 25.1469 15.8021L26.9939 16.5691ZM26.8679 16.7585C26.8117 16.8155 26.7424 16.8633 26.6623 16.8962L25.9008 15.0469C25.7272 15.1184 25.5724 15.2238 25.4439 15.3542L26.8679 16.7585ZM26.6623 16.8962C26.582 16.9293 26.4944 16.946 26.405 16.9439L26.4515 14.9445C26.2618 14.94 26.0745 14.9754 25.9008 15.0469L26.6623 16.8962ZM26.4283 16.9442H29.4436V14.9442H26.4283V16.9442ZM29.4591 16.9441C29.2776 16.9469 29.1142 16.8728 29.0016 16.7578L30.4308 15.3587C30.1721 15.0945 29.8127 14.9384 29.4281 14.9443L29.4591 16.9441ZM29.0016 16.7578C28.8909 16.6448 28.8367 16.5016 28.8339 16.3629L30.8335 16.3223C30.8263 15.9686 30.6876 15.6211 30.4308 15.3587L29.0016 16.7578ZM28.8337 16.3426V18.5458H30.8337V16.3426H28.8337Z" fill="black" mask="url(#path-22-outside-6_47_9)"/>
<path d="M29.8337 18.5458L30.8335 18.5661C30.8336 18.5593 30.8337 18.5525 30.8337 18.5458H29.8337ZM29.4436 18.9413L29.4669 17.9415C29.4591 17.9414 29.4514 17.9413 29.4436 17.9413V18.9413ZM26.4283 18.9413V17.9413C26.4205 17.9413 26.4127 17.9414 26.405 17.9415L26.4283 18.9413ZM26.0382 18.5458H25.0382C25.0382 18.5525 25.0383 18.5593 25.0384 18.5661L26.0382 18.5458ZM26.0382 16.3397L25.0384 16.3194C25.0383 16.3262 25.0382 16.3329 25.0382 16.3397H26.0382ZM26.4283 15.9442L26.405 16.9439C26.4127 16.9441 26.4205 16.9442 26.4283 16.9442V15.9442ZM29.4436 15.9442V16.9442C29.4488 16.9442 29.454 16.9441 29.4591 16.9441L29.4436 15.9442ZM29.8337 16.3426H30.8337C30.8337 16.3359 30.8336 16.3291 30.8335 16.3223L29.8337 16.3426ZM28.8339 18.5255C28.8353 18.4549 28.8498 18.384 28.8779 18.3163L30.725 19.0833C30.7935 18.9184 30.8299 18.7428 30.8335 18.5661L28.8339 18.5255ZM28.8779 18.3163C28.9061 18.2486 28.948 18.1837 29.004 18.1269L30.428 19.5313C30.5565 19.401 30.6565 19.2483 30.725 19.0833L28.8779 18.3163ZM29.004 18.1269C29.0602 18.07 29.1295 18.0222 29.2096 17.9892L29.9711 19.8385C30.1447 19.7671 30.2994 19.6617 30.428 19.5313L29.004 18.1269ZM29.2096 17.9892C29.2898 17.9562 29.3775 17.9395 29.4669 17.9415L29.4204 19.941C29.6101 19.9454 29.7974 19.9101 29.9711 19.8385L29.2096 17.9892ZM29.4436 17.9413H26.4283V19.9413H29.4436V17.9413ZM26.405 17.9415C26.4944 17.9395 26.5821 17.9562 26.6623 17.9892L25.9008 19.8385C26.0745 19.9101 26.2618 19.9454 26.4515 19.941L26.405 17.9415ZM26.6623 17.9892C26.7424 18.0222 26.8117 18.07 26.8679 18.1269L25.4439 19.5313C25.5725 19.6617 25.7272 19.7671 25.9008 19.8385L26.6623 17.9892ZM26.8679 18.1269C26.9239 18.1837 26.9658 18.2486 26.9939 18.3163L25.1469 19.0833C25.2154 19.2483 25.3154 19.401 25.4439 19.5313L26.8679 18.1269ZM26.9939 18.3163C27.0221 18.384 27.0366 18.4549 27.038 18.5255L25.0384 18.5661C25.042 18.7428 25.0784 18.9184 25.1469 19.0833L26.9939 18.3163ZM27.0382 18.5458V16.3397H25.0382V18.5458H27.0382ZM27.038 16.36C27.0366 16.4305 27.0221 16.5015 26.9939 16.5691L25.1469 15.8021C25.0784 15.967 25.042 16.1427 25.0384 16.3194L27.038 16.36ZM26.9939 16.5691C26.9658 16.6369 26.9239 16.7018 26.8679 16.7585L25.4439 15.3542C25.3154 15.4844 25.2154 15.6371 25.1469 15.8021L26.9939 16.5691ZM26.8679 16.7585C26.8117 16.8155 26.7424 16.8633 26.6623 16.8962L25.9008 15.0469C25.7272 15.1184 25.5724 15.2238 25.4439 15.3542L26.8679 16.7585ZM26.6623 16.8962C26.582 16.9293 26.4944 16.946 26.405 16.9439L26.4515 14.9445C26.2618 14.94 26.0745 14.9754 25.9008 15.0469L26.6623 16.8962ZM26.4283 16.9442H29.4436V14.9442H26.4283V16.9442ZM29.4591 16.9441C29.2776 16.9469 29.1142 16.8728 29.0016 16.7578L30.4308 15.3587C30.1721 15.0945 29.8127 14.9384 29.4281 14.9443L29.4591 16.9441ZM29.0016 16.7578C28.8909 16.6448 28.8367 16.5016 28.8339 16.3629L30.8335 16.3223C30.8263 15.9686 30.6876 15.6211 30.4308 15.3587L29.0016 16.7578ZM28.8337 16.3426V18.5458H30.8337V16.3426H28.8337Z" fill="black" fill-opacity="0.63" mask="url(#path-22-outside-6_47_9)"/>
</g>
<g id="Vector_18">
<path d="M29.4409 34.8428C29.7039 34.8428 29.883 34.6889 29.9786 34.5729C30.0769 34.4537 30.1431 34.3113 30.189 34.1795C30.2824 33.9113 30.3309 33.5733 30.3309 33.2236V26.9775C30.3309 26.6279 30.2824 26.2899 30.189 26.0217C30.1431 25.8899 30.0769 25.7475 29.9786 25.6283C29.883 25.5123 29.7039 25.3584 29.4409 25.3584H26.431C26.1685 25.3584 25.9894 25.5117 25.8937 25.6272C25.7951 25.7462 25.7284 25.8883 25.682 26.0202C25.5876 26.2887 25.5382 26.6271 25.5382 26.9775V33.2236C25.5382 33.5733 25.5867 33.9113 25.6801 34.1795C25.726 34.3113 25.7922 34.4537 25.8905 34.5729C25.9861 34.6889 26.1652 34.8428 26.4283 34.8428H29.4409Z" fill="#E01C1C"/>
<path d="M29.4409 34.8428C29.7039 34.8428 29.883 34.6889 29.9786 34.5729C30.0769 34.4537 30.1431 34.3113 30.189 34.1795C30.2824 33.9113 30.3309 33.5733 30.3309 33.2236V26.9775C30.3309 26.6279 30.2824 26.2899 30.189 26.0217C30.1431 25.8899 30.0769 25.7475 29.9786 25.6283C29.883 25.5123 29.7039 25.3584 29.4409 25.3584H26.431C26.1685 25.3584 25.9894 25.5117 25.8937 25.6272C25.7951 25.7462 25.7284 25.8883 25.682 26.0202C25.5876 26.2887 25.5382 26.6271 25.5382 26.9775V33.2236C25.5382 33.5733 25.5867 33.9113 25.6801 34.1795C25.726 34.3113 25.7922 34.4537 25.8905 34.5729C25.9861 34.6889 26.1652 34.8428 26.4283 34.8428H29.4409Z" stroke="black" stroke-linejoin="round"/>
<path d="M29.4409 34.8428C29.7039 34.8428 29.883 34.6889 29.9786 34.5729C30.0769 34.4537 30.1431 34.3113 30.189 34.1795C30.2824 33.9113 30.3309 33.5733 30.3309 33.2236V26.9775C30.3309 26.6279 30.2824 26.2899 30.189 26.0217C30.1431 25.8899 30.0769 25.7475 29.9786 25.6283C29.883 25.5123 29.7039 25.3584 29.4409 25.3584H26.431C26.1685 25.3584 25.9894 25.5117 25.8937 25.6272C25.7951 25.7462 25.7284 25.8883 25.682 26.0202C25.5876 26.2887 25.5382 26.6271 25.5382 26.9775V33.2236C25.5382 33.5733 25.5867 33.9113 25.6801 34.1795C25.726 34.3113 25.7922 34.4537 25.8905 34.5729C25.9861 34.6889 26.1652 34.8428 26.4283 34.8428H29.4409Z" stroke="black" stroke-opacity="0.63" stroke-linejoin="round"/>
</g>
<g id="Vector_19">
<path d="M22.7989 8.07349C22.8937 8.19613 23.0401 8.26782 23.1951 8.26758L25.079 8.26465C25.2314 8.26441 25.3752 8.19477 25.4699 8.07546L25.6885 7.80007C25.8335 7.61728 25.8329 7.35844 25.6868 7.17641L25.4683 6.90395C25.3734 6.78564 25.2299 6.7168 25.0783 6.7168H23.1944C23.0396 6.7168 22.8936 6.78847 22.7989 6.91088L22.5858 7.18628C22.4465 7.36642 22.4465 7.61796 22.5858 7.7981L22.7989 8.07349Z" fill="black"/>
<path d="M22.7989 8.07349C22.8937 8.19613 23.0401 8.26782 23.1951 8.26758L25.079 8.26465C25.2314 8.26441 25.3752 8.19477 25.4699 8.07546L25.6885 7.80007C25.8335 7.61728 25.8329 7.35844 25.6868 7.17641L25.4683 6.90395C25.3734 6.78564 25.2299 6.7168 25.0783 6.7168H23.1944C23.0396 6.7168 22.8936 6.78847 22.7989 6.91088L22.5858 7.18628C22.4465 7.36642 22.4465 7.61796 22.5858 7.7981L22.7989 8.07349Z" stroke="black" stroke-linejoin="round"/>
<path d="M22.7989 8.07349C22.8937 8.19613 23.0401 8.26782 23.1951 8.26758L25.079 8.26465C25.2314 8.26441 25.3752 8.19477 25.4699 8.07546L25.6885 7.80007C25.8335 7.61728 25.8329 7.35844 25.6868 7.17641L25.4683 6.90395C25.3734 6.78564 25.2299 6.7168 25.0783 6.7168H23.1944C23.0396 6.7168 22.8936 6.78847 22.7989 6.91088L22.5858 7.18628C22.4465 7.36642 22.4465 7.61796 22.5858 7.7981L22.7989 8.07349Z" stroke="black" stroke-opacity="0.63" stroke-linejoin="round"/>
</g>
<g id="Vector_20">
<path d="M22.6677 10.6859C22.7624 10.8071 22.9077 10.8779 23.0616 10.8779H24.9455C25.0981 10.8779 25.2423 10.8083 25.3371 10.6887L25.5557 10.4134C25.7007 10.2306 25.7001 9.97173 25.5541 9.78969L25.3355 9.51723C25.2406 9.39892 25.0972 9.33008 24.9455 9.33008H23.0616C22.9068 9.33008 22.7608 9.40175 22.6661 9.52417L22.4531 9.79956C22.3131 9.98046 22.3138 10.2332 22.4547 10.4134L22.6677 10.6859Z" fill="black"/>
<path d="M22.6677 10.6859C22.7624 10.8071 22.9077 10.8779 23.0616 10.8779H24.9455C25.0981 10.8779 25.2423 10.8083 25.3371 10.6887L25.5557 10.4134C25.7007 10.2306 25.7001 9.97173 25.5541 9.78969L25.3355 9.51723C25.2406 9.39892 25.0972 9.33008 24.9455 9.33008H23.0616C22.9068 9.33008 22.7608 9.40175 22.6661 9.52417L22.4531 9.79956C22.3131 9.98046 22.3138 10.2332 22.4547 10.4134L22.6677 10.6859Z" stroke="black" stroke-linejoin="round"/>
<path d="M22.6677 10.6859C22.7624 10.8071 22.9077 10.8779 23.0616 10.8779H24.9455C25.0981 10.8779 25.2423 10.8083 25.3371 10.6887L25.5557 10.4134C25.7007 10.2306 25.7001 9.97173 25.5541 9.78969L25.3355 9.51723C25.2406 9.39892 25.0972 9.33008 24.9455 9.33008H23.0616C22.9068 9.33008 22.7608 9.40175 22.6661 9.52417L22.4531 9.79956C22.3131 9.98046 22.3138 10.2332 22.4547 10.4134L22.6677 10.6859Z" stroke="black" stroke-opacity="0.63" stroke-linejoin="round"/>
</g>
<g id="Vector_21">
<path d="M22.611 13.4395C22.7033 13.5238 22.8239 13.5705 22.9489 13.5703L24.8328 13.5674C24.9842 13.5671 25.1274 13.4983 25.2221 13.3802L25.4406 13.1078C25.5866 12.9257 25.5873 12.6669 25.4423 12.4841L25.2237 12.2087C25.1287 12.089 24.9841 12.0193 24.8313 12.0195L22.9474 12.0225C22.8238 12.0227 22.7046 12.0686 22.6129 12.1515L22.3114 12.4239C22.2068 12.5184 22.147 12.6527 22.1466 12.7936C22.1462 12.9345 22.2054 13.0691 22.3094 13.1641L22.611 13.4395Z" fill="black"/>
<path d="M22.611 13.4395C22.7033 13.5238 22.8239 13.5705 22.9489 13.5703L24.8328 13.5674C24.9842 13.5671 25.1274 13.4983 25.2221 13.3802L25.4406 13.1078C25.5866 12.9257 25.5873 12.6669 25.4423 12.4841L25.2237 12.2087C25.1287 12.089 24.9841 12.0193 24.8313 12.0195L22.9474 12.0225C22.8238 12.0227 22.7046 12.0686 22.6129 12.1515L22.3114 12.4239C22.2068 12.5184 22.147 12.6527 22.1466 12.7936C22.1462 12.9345 22.2054 13.0691 22.3094 13.1641L22.611 13.4395Z" stroke="black" stroke-linejoin="round"/>
<path d="M22.611 13.4395C22.7033 13.5238 22.8239 13.5705 22.9489 13.5703L24.8328 13.5674C24.9842 13.5671 25.1274 13.4983 25.2221 13.3802L25.4406 13.1078C25.5866 12.9257 25.5873 12.6669 25.4423 12.4841L25.2237 12.2087C25.1287 12.089 24.9841 12.0193 24.8313 12.0195L22.9474 12.0225C22.8238 12.0227 22.7046 12.0686 22.6129 12.1515L22.3114 12.4239C22.2068 12.5184 22.147 12.6527 22.1466 12.7936C22.1462 12.9345 22.2054 13.0691 22.3094 13.1641L22.611 13.4395Z" stroke="black" stroke-opacity="0.63" stroke-linejoin="round"/>
</g>
<g id="Vector_22">
<path d="M26.4801 8.03787C26.575 8.15905 26.7205 8.22973 26.8744 8.22949L28.7556 8.22656C28.9079 8.22632 29.0518 8.15668 29.1465 8.03737L29.365 7.76198C29.5101 7.57919 29.5094 7.32036 29.3634 7.13832L29.1448 6.86586C29.0499 6.74755 28.9065 6.67871 28.7548 6.67871H26.8709C26.7161 6.67871 26.5701 6.75038 26.4754 6.8728L26.2624 7.14819C26.1223 7.32925 26.1231 7.5823 26.2643 7.76248L26.4801 8.03787Z" fill="black"/>
<path d="M26.4801 8.03787C26.575 8.15905 26.7205 8.22973 26.8744 8.22949L28.7556 8.22656C28.9079 8.22632 29.0518 8.15668 29.1465 8.03737L29.365 7.76198C29.5101 7.57919 29.5094 7.32036 29.3634 7.13832L29.1448 6.86586C29.0499 6.74755 28.9065 6.67871 28.7548 6.67871H26.8709C26.7161 6.67871 26.5701 6.75038 26.4754 6.8728L26.2624 7.14819C26.1223 7.32925 26.1231 7.5823 26.2643 7.76248L26.4801 8.03787Z" stroke="black" stroke-linejoin="round"/>
<path d="M26.4801 8.03787C26.575 8.15905 26.7205 8.22973 26.8744 8.22949L28.7556 8.22656C28.9079 8.22632 29.0518 8.15668 29.1465 8.03737L29.365 7.76198C29.5101 7.57919 29.5094 7.32036 29.3634 7.13832L29.1448 6.86586C29.0499 6.74755 28.9065 6.67871 28.7548 6.67871H26.8709C26.7161 6.67871 26.5701 6.75038 26.4754 6.8728L26.2624 7.14819C26.1223 7.32925 26.1231 7.5823 26.2643 7.76248L26.4801 8.03787Z" stroke="black" stroke-opacity="0.63" stroke-linejoin="round"/>
</g>
<g id="Vector_23">
<path d="M26.232 10.6868C26.3268 10.8094 26.4732 10.8811 26.6282 10.8809L28.5121 10.8779C28.6635 10.8777 28.8067 10.8089 28.9014 10.6908L29.1199 10.4183C29.266 10.2363 29.2666 9.97745 29.1216 9.79466L28.903 9.51927C28.8082 9.39975 28.6639 9.33008 28.5114 9.33008H26.6274C26.4727 9.33008 26.3266 9.40175 26.232 9.52417L26.0189 9.79956C25.8796 9.9797 25.8796 10.2312 26.0189 10.4114L26.232 10.6868Z" fill="black"/>
<path d="M26.232 10.6868C26.3268 10.8094 26.4732 10.8811 26.6282 10.8809L28.5121 10.8779C28.6635 10.8777 28.8067 10.8089 28.9014 10.6908L29.1199 10.4183C29.266 10.2363 29.2666 9.97745 29.1216 9.79466L28.903 9.51927C28.8082 9.39975 28.6639 9.33008 28.5114 9.33008H26.6274C26.4727 9.33008 26.3266 9.40175 26.232 9.52417L26.0189 9.79956C25.8796 9.9797 25.8796 10.2312 26.0189 10.4114L26.232 10.6868Z" stroke="black" stroke-linejoin="round"/>
<path d="M26.232 10.6868C26.3268 10.8094 26.4732 10.8811 26.6282 10.8809L28.5121 10.8779C28.6635 10.8777 28.8067 10.8089 28.9014 10.6908L29.1199 10.4183C29.266 10.2363 29.2666 9.97745 29.1216 9.79466L28.903 9.51927C28.8082 9.39975 28.6639 9.33008 28.5114 9.33008H26.6274C26.4727 9.33008 26.3266 9.40175 26.232 9.52417L26.0189 9.79956C25.8796 9.9797 25.8796 10.2312 26.0189 10.4114L26.232 10.6868Z" stroke="black" stroke-opacity="0.63" stroke-linejoin="round"/>
</g>
<g id="Vector_24">
<path d="M26.0549 13.3381C26.1498 13.4608 26.2961 13.5325 26.4512 13.5322L28.3351 13.5293C28.4865 13.5291 28.6296 13.4602 28.7243 13.3421L28.9429 13.0697C29.0889 12.8876 29.0896 12.6288 28.9445 12.446L28.726 12.1706C28.6311 12.0511 28.4869 11.9814 28.3343 11.9814H26.4504C26.2956 11.9814 26.1496 12.0531 26.0549 12.1755L25.8419 12.4509C25.7025 12.6311 25.7025 12.8826 25.8419 13.0627L26.0549 13.3381Z" fill="black"/>
<path d="M26.0549 13.3381C26.1498 13.4608 26.2961 13.5325 26.4512 13.5322L28.3351 13.5293C28.4865 13.5291 28.6296 13.4602 28.7243 13.3421L28.9429 13.0697C29.0889 12.8876 29.0896 12.6288 28.9445 12.446L28.726 12.1706C28.6311 12.0511 28.4869 11.9814 28.3343 11.9814H26.4504C26.2956 11.9814 26.1496 12.0531 26.0549 12.1755L25.8419 12.4509C25.7025 12.6311 25.7025 12.8826 25.8419 13.0627L26.0549 13.3381Z" stroke="black" stroke-linejoin="round"/>
<path d="M26.0549 13.3381C26.1498 13.4608 26.2961 13.5325 26.4512 13.5322L28.3351 13.5293C28.4865 13.5291 28.6296 13.4602 28.7243 13.3421L28.9429 13.0697C29.0889 12.8876 29.0896 12.6288 28.9445 12.446L28.726 12.1706C28.6311 12.0511 28.4869 11.9814 28.3343 11.9814H26.4504C26.2956 11.9814 26.1496 12.0531 26.0549 12.1755L25.8419 12.4509C25.7025 12.6311 25.7025 12.8826 25.8419 13.0627L26.0549 13.3381Z" stroke="black" stroke-opacity="0.63" stroke-linejoin="round"/>
</g>
<g id="Vector_25">
<path d="M21.8417 12.8773C21.956 12.7909 22.0276 12.6596 22.0386 12.5167L22.1935 10.4952C22.204 10.3577 22.1573 10.222 22.0644 10.1201L21.8293 9.86228C21.6534 9.66945 21.3588 9.64433 21.1528 9.8046L20.8817 10.0155C20.7707 10.1019 20.7012 10.231 20.6902 10.3713L20.5326 12.3928C20.5216 12.5335 20.5706 12.6723 20.6675 12.7749L20.9054 13.0269C21.0805 13.2123 21.3672 13.2362 21.5706 13.0824L21.8417 12.8773Z" fill="black"/>
<path d="M21.8417 12.8773C21.956 12.7909 22.0276 12.6596 22.0386 12.5167L22.1935 10.4952C22.204 10.3577 22.1573 10.222 22.0644 10.1201L21.8293 9.86228C21.6534 9.66945 21.3588 9.64433 21.1528 9.8046L20.8817 10.0155C20.7707 10.1019 20.7012 10.231 20.6902 10.3713L20.5326 12.3928C20.5216 12.5335 20.5706 12.6723 20.6675 12.7749L20.9054 13.0269C21.0805 13.2123 21.3672 13.2362 21.5706 13.0824L21.8417 12.8773Z" stroke="black" stroke-linejoin="round"/>
<path d="M21.8417 12.8773C21.956 12.7909 22.0276 12.6596 22.0386 12.5167L22.1935 10.4952C22.204 10.3577 22.1573 10.222 22.0644 10.1201L21.8293 9.86228C21.6534 9.66945 21.3588 9.64433 21.1528 9.8046L20.8817 10.0155C20.7707 10.1019 20.7012 10.231 20.6902 10.3713L20.5326 12.3928C20.5216 12.5335 20.5706 12.6723 20.6675 12.7749L20.9054 13.0269C21.0805 13.2123 21.3672 13.2362 21.5706 13.0824L21.8417 12.8773Z" stroke="black" stroke-opacity="0.63" stroke-linejoin="round"/>
</g>
<g id="Vector_26">
<path d="M29.4077 10.2268C29.5203 10.1404 29.5908 10.0104 29.6019 9.86896L29.7595 7.84748C29.7704 7.70874 29.7229 7.57177 29.6285 7.46951L29.3906 7.2117C29.2135 7.01977 28.9185 6.99648 28.7135 7.15823L28.4424 7.37209C28.3327 7.45863 28.2642 7.58713 28.2535 7.72644L28.0986 9.74793C28.0879 9.88742 28.1361 10.025 28.2316 10.1273L28.4667 10.3792C28.6424 10.5675 28.9323 10.5915 29.1366 10.4348L29.4077 10.2268Z" fill="black"/>
<path d="M29.4077 10.2268C29.5203 10.1404 29.5908 10.0104 29.6019 9.86896L29.7595 7.84748C29.7704 7.70874 29.7229 7.57177 29.6285 7.46951L29.3906 7.2117C29.2135 7.01977 28.9185 6.99648 28.7135 7.15823L28.4424 7.37209C28.3327 7.45863 28.2642 7.58713 28.2535 7.72644L28.0986 9.74793C28.0879 9.88742 28.1361 10.025 28.2316 10.1273L28.4667 10.3792C28.6424 10.5675 28.9323 10.5915 29.1366 10.4348L29.4077 10.2268Z" stroke="black" stroke-linejoin="round"/>
<path d="M29.4077 10.2268C29.5203 10.1404 29.5908 10.0104 29.6019 9.86896L29.7595 7.84748C29.7704 7.70874 29.7229 7.57177 29.6285 7.46951L29.3906 7.2117C29.2135 7.01977 28.9185 6.99648 28.7135 7.15823L28.4424 7.37209C28.3327 7.45863 28.2642 7.58713 28.2535 7.72644L28.0986 9.74793C28.0879 9.88742 28.1361 10.025 28.2316 10.1273L28.4667 10.3792C28.6424 10.5675 28.9323 10.5915 29.1366 10.4348L29.4077 10.2268Z" stroke="black" stroke-opacity="0.63" stroke-linejoin="round"/>
</g>
<g id="Vector_27">
<path d="M25.8178 10.2283C25.9316 10.1418 26.003 10.0108 26.0139 9.86829L26.1688 7.8468C26.1793 7.7093 26.1326 7.57355 26.0397 7.47166L25.8045 7.21384C25.6284 7.02076 25.3334 6.99586 25.1274 7.1567L24.8535 7.37057C24.7427 7.45708 24.6735 7.58624 24.6627 7.72639L24.5078 9.74494C24.4972 9.88345 24.5446 10.0201 24.6388 10.1222L24.874 10.3771C25.0487 10.5665 25.3387 10.5921 25.5439 10.4363L25.8178 10.2283Z" fill="black"/>
<path d="M25.8178 10.2283C25.9316 10.1418 26.003 10.0108 26.0139 9.86829L26.1688 7.8468C26.1793 7.7093 26.1326 7.57355 26.0397 7.47166L25.8045 7.21384C25.6284 7.02076 25.3334 6.99586 25.1274 7.1567L24.8535 7.37057C24.7427 7.45708 24.6735 7.58624 24.6627 7.72639L24.5078 9.74494C24.4972 9.88345 24.5446 10.0201 24.6388 10.1222L24.874 10.3771C25.0487 10.5665 25.3387 10.5921 25.5439 10.4363L25.8178 10.2283Z" stroke="black" stroke-linejoin="round"/>
<path d="M25.8178 10.2283C25.9316 10.1418 26.003 10.0108 26.0139 9.86829L26.1688 7.8468C26.1793 7.7093 26.1326 7.57355 26.0397 7.47166L25.8045 7.21384C25.6284 7.02076 25.3334 6.99586 25.1274 7.1567L24.8535 7.37057C24.7427 7.45708 24.6735 7.58624 24.6627 7.72639L24.5078 9.74494C24.4972 9.88345 24.5446 10.0201 24.6388 10.1222L24.874 10.3771C25.0487 10.5665 25.3387 10.5921 25.5439 10.4363L25.8178 10.2283Z" stroke="black" stroke-opacity="0.63" stroke-linejoin="round"/>
</g>
<g id="Vector_28">
<path d="M22.0408 10.2268C22.1534 10.1404 22.2239 10.0104 22.2349 9.86896L22.3926 7.84748C22.4034 7.70975 22.3567 7.57372 22.2636 7.47165L22.0284 7.21384C21.8532 7.02171 21.5599 6.99598 21.3539 7.15466L21.08 7.36559C20.9677 7.45209 20.8974 7.58218 20.8866 7.72351L20.7317 9.745C20.7211 9.88349 20.7685 10.0202 20.8627 10.1222L21.0979 10.3771C21.2732 10.5672 21.5646 10.5922 21.7697 10.4348L22.0408 10.2268Z" fill="black"/>
<path d="M22.0408 10.2268C22.1534 10.1404 22.2239 10.0104 22.2349 9.86896L22.3926 7.84748C22.4034 7.70975 22.3567 7.57372 22.2636 7.47165L22.0284 7.21384C21.8532 7.02171 21.5599 6.99598 21.3539 7.15466L21.08 7.36559C20.9677 7.45209 20.8974 7.58218 20.8866 7.72351L20.7317 9.745C20.7211 9.88349 20.7685 10.0202 20.8627 10.1222L21.0979 10.3771C21.2732 10.5672 21.5646 10.5922 21.7697 10.4348L22.0408 10.2268Z" stroke="black" stroke-linejoin="round"/>
<path d="M22.0408 10.2268C22.1534 10.1404 22.2239 10.0104 22.2349 9.86896L22.3926 7.84748C22.4034 7.70975 22.3567 7.57372 22.2636 7.47165L22.0284 7.21384C21.8532 7.02171 21.5599 6.99598 21.3539 7.15466L21.08 7.36559C20.9677 7.45209 20.8974 7.58218 20.8866 7.72351L20.7317 9.745C20.7211 9.88349 20.7685 10.0202 20.8627 10.1222L21.0979 10.3771C21.2732 10.5672 21.5646 10.5922 21.7697 10.4348L22.0408 10.2268Z" stroke="black" stroke-opacity="0.63" stroke-linejoin="round"/>
</g>
<g id="Vector_29">
<path d="M29.2094 12.8767C29.3232 12.7902 29.3946 12.6592 29.4055 12.5167L29.5604 10.4952C29.5709 10.3577 29.5242 10.222 29.4313 10.1201L29.1961 9.86228C29.0194 9.6685 28.723 9.64422 28.517 9.80666L28.2459 10.0205C28.1364 10.1069 28.068 10.2351 28.0571 10.3742L27.8994 12.3957C27.8886 12.5354 27.9368 12.6733 28.0324 12.7757L28.2675 13.0277C28.4426 13.2152 28.7312 13.2399 28.9355 13.0847L29.2094 12.8767Z" fill="black"/>
<path d="M29.2094 12.8767C29.3232 12.7902 29.3946 12.6592 29.4055 12.5167L29.5604 10.4952C29.5709 10.3577 29.5242 10.222 29.4313 10.1201L29.1961 9.86228C29.0194 9.6685 28.723 9.64422 28.517 9.80666L28.2459 10.0205C28.1364 10.1069 28.068 10.2351 28.0571 10.3742L27.8994 12.3957C27.8886 12.5354 27.9368 12.6733 28.0324 12.7757L28.2675 13.0277C28.4426 13.2152 28.7312 13.2399 28.9355 13.0847L29.2094 12.8767Z" stroke="black" stroke-linejoin="round"/>
<path d="M29.2094 12.8767C29.3232 12.7902 29.3946 12.6592 29.4055 12.5167L29.5604 10.4952C29.5709 10.3577 29.5242 10.222 29.4313 10.1201L29.1961 9.86228C29.0194 9.6685 28.723 9.64422 28.517 9.80666L28.2459 10.0205C28.1364 10.1069 28.068 10.2351 28.0571 10.3742L27.8994 12.3957C27.8886 12.5354 27.9368 12.6733 28.0324 12.7757L28.2675 13.0277C28.4426 13.2152 28.7312 13.2399 28.9355 13.0847L29.2094 12.8767Z" stroke="black" stroke-opacity="0.63" stroke-linejoin="round"/>
</g>
<g id="Vector_30">
<path d="M23.1253 12.8773C23.2396 12.7909 23.3113 12.6596 23.3222 12.5167L23.4771 10.4952C23.4877 10.3577 23.4409 10.222 23.348 10.1201L23.1129 9.86228C22.937 9.66945 22.6424 9.64433 22.4364 9.8046L22.1653 10.0155C22.0543 10.1019 21.9848 10.231 21.9738 10.3713L21.8162 12.3928C21.8052 12.5335 21.8542 12.6723 21.9511 12.7749L22.189 13.0269C22.3641 13.2123 22.6508 13.2362 22.8542 13.0824L23.1253 12.8773Z" fill="black"/>
<path d="M23.1253 12.8773C23.2396 12.7909 23.3113 12.6596 23.3222 12.5167L23.4771 10.4952C23.4877 10.3577 23.4409 10.222 23.348 10.1201L23.1129 9.86228C22.937 9.66945 22.6424 9.64433 22.4364 9.8046L22.1653 10.0155C22.0543 10.1019 21.9848 10.231 21.9738 10.3713L21.8162 12.3928C21.8052 12.5335 21.8542 12.6723 21.9511 12.7749L22.189 13.0269C22.3641 13.2123 22.6508 13.2362 22.8542 13.0824L23.1253 12.8773Z" stroke="black" stroke-linejoin="round"/>
<path d="M23.1253 12.8773C23.2396 12.7909 23.3113 12.6596 23.3222 12.5167L23.4771 10.4952C23.4877 10.3577 23.4409 10.222 23.348 10.1201L23.1129 9.86228C22.937 9.66945 22.6424 9.64433 22.4364 9.8046L22.1653 10.0155C22.0543 10.1019 21.9848 10.231 21.9738 10.3713L21.8162 12.3928C21.8052 12.5335 21.8542 12.6723 21.9511 12.7749L22.189 13.0269C22.3641 13.2123 22.6508 13.2362 22.8542 13.0824L23.1253 12.8773Z" stroke="black" stroke-opacity="0.63" stroke-linejoin="round"/>
</g>
</g>
</g>
</g>
<defs>
<filter id="filter0_d_47_9" x="3.99995" y="3" width="33" height="43" filterUnits="userSpaceOnUse" color-interpolation-filters="sRGB">
<feFlood flood-opacity="0" result="BackgroundImageFix"/>
<feColorMatrix in="SourceAlpha" type="matrix" values="0 0 0 0 0 0 0 0 0 0 0 0 0 0 0 0 0 0 127 0" result="hardAlpha"/>
<feOffset dy="4"/>
<feGaussianBlur stdDeviation="2"/>
<feComposite in2="hardAlpha" operator="out"/>
<feColorMatrix type="matrix" values="0 0 0 0 0 0 0 0 0 0 0 0 0 0 0 0 0 0 0.25 0"/>
<feBlend mode="normal" in2="BackgroundImageFix" result="effect1_dropShadow_47_9"/>
<feBlend mode="normal" in="SourceGraphic" in2="effect1_dropShadow_47_9" result="shape"/>
</filter>
<clipPath id="clip0_47_9">
<rect width="40" height="40" fill="white"/>
</clipPath>
</defs>
</svg>
