<svg width="40" height="40" viewBox="0 0 40 40" fill="none" xmlns="http://www.w3.org/2000/svg">
<g id="Frame 2" clip-path="url(#clip0_47_10)">
<g id="Credit" filter="url(#filter0_d_47_10)">
<g id="Vector">
<path d="M7.5 29.7302C7.5 29.4542 7.27637 29.2304 7.00037 29.2302C6.72437 29.23 6.50041 29.4535 6.5 29.7295C6.5 29.7311 6.5 29.7327 6.5 29.7344L6.5 36C6.5 36.1969 6.61555 36.3755 6.79516 36.4561C6.97477 36.5368 7.185 36.5045 7.33217 36.3737L8.95314 34.933L10.5745 36.3738C10.7217 36.5046 10.9319 36.5368 11.1115 36.4561C11.2911 36.3755 11.4067 36.1969 11.4067 36V30.9721C11.4067 30.6959 11.1828 30.4721 10.9067 30.4721H8.19119C8.10319 30.4721 8.01554 30.454 7.93307 30.4184C7.85055 30.3828 7.77425 30.33 7.70908 30.2621C7.64387 30.1941 7.59117 30.1124 7.55493 30.021C7.51899 29.9304 7.50019 29.8327 7.5 29.7337V29.7302Z" fill="#FEA53B"/>
<path d="M7.5 29.7302C7.5 29.4542 7.27637 29.2304 7.00037 29.2302C6.72437 29.23 6.50041 29.4535 6.5 29.7295C6.5 29.7311 6.5 29.7327 6.5 29.7344L6.5 36C6.5 36.1969 6.61555 36.3755 6.79516 36.4561C6.97477 36.5368 7.185 36.5045 7.33217 36.3737L8.95314 34.933L10.5745 36.3738C10.7217 36.5046 10.9319 36.5368 11.1115 36.4561C11.2911 36.3755 11.4067 36.1969 11.4067 36V30.9721C11.4067 30.6959 11.1828 30.4721 10.9067 30.4721H8.19119C8.10319 30.4721 8.01554 30.454 7.93307 30.4184C7.85055 30.3828 7.77425 30.33 7.70908 30.2621C7.64387 30.1941 7.59117 30.1124 7.55493 30.021C7.51899 29.9304 7.50019 29.8327 7.5 29.7337V29.7302Z" stroke="black" stroke-linejoin="round"/>
<path d="M7.5 29.7302C7.5 29.4542 7.27637 29.2304 7.00037 29.2302C6.72437 29.23 6.50041 29.4535 6.5 29.7295C6.5 29.7311 6.5 29.7327 6.5 29.7344L6.5 36C6.5 36.1969 6.61555 36.3755 6.79516 36.4561C6.97477 36.5368 7.185 36.5045 7.33217 36.3737L8.95314 34.933L10.5745 36.3738C10.7217 36.5046 10.9319 36.5368 11.1115 36.4561C11.2911 36.3755 11.4067 36.1969 11.4067 36V30.9721C11.4067 30.6959 11.1828 30.4721 10.9067 30.4721H8.19119C8.10319 30.4721 8.01554 30.454 7.93307 30.4184C7.85055 30.3828 7.77425 30.33 7.70908 30.2621C7.64387 30.1941 7.59117 30.1124 7.55493 30.021C7.51899 29.9304 7.50019 29.8327 7.5 29.7337V29.7302Z" stroke="black" stroke-opacity="0.63" stroke-linejoin="round"/>
</g>
<g id="Vector_2">
<path d="M10.9066 3.5C10.6305 3.5 10.4066 3.72386 10.4066 4L10.4066 17.486L10.4066 30.972C10.4066 31.2482 10.6305 31.472 10.9066 31.472L26.3922 31.472C26.8473 31.472 27.2796 31.2836 27.595 30.9553C27.9098 30.6276 28.0833 30.1872 28.0833 29.7321L28.0833 5.23994C28.0833 4.78481 27.9098 4.34448 27.595 4.01677C27.2796 3.68839 26.8473 3.5 26.3922 3.5L10.9066 3.5ZM25.2109 12.4767L13.28 12.4767V11.0884L25.2109 11.0884V12.4767Z" fill="#F28C19"/>
<path d="M10.9066 3.5C10.6305 3.5 10.4066 3.72386 10.4066 4L10.4066 17.486L10.4066 30.972C10.4066 31.2482 10.6305 31.472 10.9066 31.472L26.3922 31.472C26.8473 31.472 27.2796 31.2836 27.595 30.9553C27.9098 30.6276 28.0833 30.1872 28.0833 29.7321L28.0833 5.23994C28.0833 4.78481 27.9098 4.34448 27.595 4.01677C27.2796 3.68839 26.8473 3.5 26.3922 3.5L10.9066 3.5ZM25.2109 12.4767L13.28 12.4767V11.0884L25.2109 11.0884V12.4767Z" stroke="black" stroke-linejoin="round"/>
<path d="M10.9066 3.5C10.6305 3.5 10.4066 3.72386 10.4066 4L10.4066 17.486L10.4066 30.972C10.4066 31.2482 10.6305 31.472 10.9066 31.472L26.3922 31.472C26.8473 31.472 27.2796 31.2836 27.595 30.9553C27.9098 30.6276 28.0833 30.1872 28.0833 29.7321L28.0833 5.23994C28.0833 4.78481 27.9098 4.34448 27.595 4.01677C27.2796 3.68839 26.8473 3.5 26.3922 3.5L10.9066 3.5ZM25.2109 12.4767L13.28 12.4767V11.0884L25.2109 11.0884V12.4767Z" stroke="black" stroke-opacity="0.63" stroke-linejoin="round"/>
</g>
<g id="Vector_3">
<path d="M10.9067 31.4701C11.1828 31.4701 11.4067 31.2463 11.4067 30.9701L11.4067 4C11.4067 3.72386 11.1828 3.5 10.9067 3.5L8.19119 3.5C7.73604 3.5 7.30379 3.68839 6.98832 4.01678C6.67351 4.34448 6.5 4.78481 6.5 5.23994L6.5 29.7302C6.5 30.1853 6.67351 30.6256 6.98832 30.9533C7.30379 31.2817 7.73604 31.4701 8.19119 31.4701H10.9067Z" fill="#C27620"/>
<path d="M10.9067 31.4701C11.1828 31.4701 11.4067 31.2463 11.4067 30.9701L11.4067 4C11.4067 3.72386 11.1828 3.5 10.9067 3.5L8.19119 3.5C7.73604 3.5 7.30379 3.68839 6.98832 4.01678C6.67351 4.34448 6.5 4.78481 6.5 5.23994L6.5 29.7302C6.5 30.1853 6.67351 30.6256 6.98832 30.9533C7.30379 31.2817 7.73604 31.4701 8.19119 31.4701H10.9067Z" stroke="black" stroke-linejoin="round"/>
<path d="M10.9067 31.4701C11.1828 31.4701 11.4067 31.2463 11.4067 30.9701L11.4067 4C11.4067 3.72386 11.1828 3.5 10.9067 3.5L8.19119 3.5C7.73604 3.5 7.30379 3.68839 6.98832 4.01678C6.67351 4.34448 6.5 4.78481 6.5 5.23994L6.5 29.7302C6.5 30.1853 6.67351 30.6256 6.98832 30.9533C7.30379 31.2817 7.73604 31.4701 8.19119 31.4701H10.9067Z" stroke="black" stroke-opacity="0.63" stroke-linejoin="round"/>
</g>
<g id="Vector_4">
<path d="M26.2109 10.5884C26.2109 10.3122 25.987 10.0884 25.7109 10.0884L12.78 10.0884C12.5039 10.0884 12.28 10.3122 12.28 10.5884V12.9767C12.28 13.2528 12.5039 13.4767 12.78 13.4767L25.7109 13.4767C25.987 13.4767 26.2109 13.2528 26.2109 12.9767V10.5884Z" fill="white"/>
<path d="M26.2109 10.5884C26.2109 10.3122 25.987 10.0884 25.7109 10.0884L12.78 10.0884C12.5039 10.0884 12.28 10.3122 12.28 10.5884V12.9767C12.28 13.2528 12.5039 13.4767 12.78 13.4767L25.7109 13.4767C25.987 13.4767 26.2109 13.2528 26.2109 12.9767V10.5884Z" stroke="black" stroke-linejoin="round"/>
<path d="M26.2109 10.5884C26.2109 10.3122 25.987 10.0884 25.7109 10.0884L12.78 10.0884C12.5039 10.0884 12.28 10.3122 12.28 10.5884V12.9767C12.28 13.2528 12.5039 13.4767 12.78 13.4767L25.7109 13.4767C25.987 13.4767 26.2109 13.2528 26.2109 12.9767V10.5884Z" stroke="black" stroke-opacity="0.63" stroke-linejoin="round"/>
</g>
<g id="Vector_5">
<path d="M26.2109 14.5552C26.2109 14.279 25.987 14.0552 25.7109 14.0552L12.78 14.0552C12.5039 14.0552 12.28 14.279 12.28 14.5552V15.2925C12.28 15.5686 12.5039 15.7925 12.78 15.7925L25.7109 15.7925C25.987 15.7925 26.2109 15.5686 26.2109 15.2925V14.5552Z" fill="white"/>
<path d="M26.2109 14.5552C26.2109 14.279 25.987 14.0552 25.7109 14.0552L12.78 14.0552C12.5039 14.0552 12.28 14.279 12.28 14.5552V15.2925C12.28 15.5686 12.5039 15.7925 12.78 15.7925L25.7109 15.7925C25.987 15.7925 26.2109 15.5686 26.2109 15.2925V14.5552Z" stroke="black" stroke-linejoin="round"/>
<path d="M26.2109 14.5552C26.2109 14.279 25.987 14.0552 25.7109 14.0552L12.78 14.0552C12.5039 14.0552 12.28 14.279 12.28 14.5552V15.2925C12.28 15.5686 12.5039 15.7925 12.78 15.7925L25.7109 15.7925C25.987 15.7925 26.2109 15.5686 26.2109 15.2925V14.5552Z" stroke="black" stroke-opacity="0.63" stroke-linejoin="round"/>
</g>
<g id="Layer 2">
<g id="OBJECTS">
<path id="Vector_6" d="M30.2526 26.4779V26.9779H30.7526H32.8274C32.908 26.9781 32.9928 27.0044 33.0718 27.0627C33.1516 27.1215 33.2232 27.2118 33.2697 27.3291C33.3154 27.4473 33.331 27.5812 33.3124 27.7128C33.2937 27.8448 33.2427 27.9614 33.1723 28.0501C33.1723 28.0502 33.1723 28.0502 33.1723 28.0502L28.7544 33.62L28.7544 33.62C28.7038 33.6838 28.6457 33.7299 28.5866 33.7595C28.5278 33.7889 28.4675 33.8023 28.4088 33.8018L28.4043 33.8018C28.345 33.8018 28.2841 33.7879 28.2248 33.7581C28.1655 33.7283 28.1073 33.6823 28.0565 33.6191C28.0562 33.6188 28.056 33.6185 28.0557 33.6182L23.6475 28.0505L23.6469 28.0497C23.5772 27.962 23.5264 27.8466 23.5078 27.7158C23.4891 27.585 23.5045 27.4519 23.5499 27.3344C23.5952 27.217 23.6658 27.1264 23.7448 27.0671C23.8223 27.009 23.9054 26.9822 23.9845 26.9809H26.0696H26.5696V26.4809V23.7796V23.7796C26.5696 23.6877 26.5858 23.5979 26.616 23.516C26.6463 23.4342 26.6891 23.3639 26.7394 23.3078C26.7896 23.2519 26.8454 23.2119 26.9017 23.1864C26.9578 23.1611 27.0151 23.1498 27.071 23.151L27.071 23.1511H27.0817H29.7593C29.868 23.1511 29.9875 23.1996 30.0864 23.312C30.1871 23.4264 30.2526 23.5938 30.2526 23.7796V26.4779Z" fill="#799D75" stroke="black"/>
<path id="Vector_7" d="M27.063 18.5H29.7459C29.9603 18.5 30.2392 18.7196 30.2392 19.1286V20.1568C30.2392 20.5658 29.9603 20.7853 29.7459 20.7853H27.063C26.8485 20.7853 26.5696 20.5658 26.5696 20.1568V19.1286C26.5696 18.7196 26.8485 18.5 27.063 18.5Z" fill="#799D75" stroke="black"/>
</g>
</g>
</g>
</g>
<defs>
<filter id="filter0_d_47_10" x="2" y="3" width="35.82" height="42" filterUnits="userSpaceOnUse" color-interpolation-filters="sRGB">
<feFlood flood-opacity="0" result="BackgroundImageFix"/>
<feColorMatrix in="SourceAlpha" type="matrix" values="0 0 0 0 0 0 0 0 0 0 0 0 0 0 0 0 0 0 127 0" result="hardAlpha"/>
<feOffset dy="4"/>
<feGaussianBlur stdDeviation="2"/>
<feComposite in2="hardAlpha" operator="out"/>
<feColorMatrix type="matrix" values="0 0 0 0 0 0 0 0 0 0 0 0 0 0 0 0 0 0 0.25 0"/>
<feBlend mode="normal" in2="BackgroundImageFix" result="effect1_dropShadow_47_10"/>
<feBlend mode="normal" in="SourceGraphic" in2="effect1_dropShadow_47_10" result="shape"/>
</filter>
<clipPath id="clip0_47_10">
<rect width="40" height="40" fill="white"/>
</clipPath>
</defs>
</svg>
