<svg width="40" height="40" viewBox="0 0 40 40" fill="none" xmlns="http://www.w3.org/2000/svg">
<g id="Frame 5" clip-path="url(#clip0_47_13)">
<g id="ClipBoard" filter="url(#filter0_d_47_13)">
<g id="Object">
<g id="Vector">
<path d="M26.5256 5.96582C26.5256 5.68968 26.3017 5.46582 26.0256 5.46582H15.2289C14.9528 5.46582 14.7289 5.68968 14.7289 5.96582V6.45138C14.7289 6.72753 14.9528 6.95138 15.2289 6.95138H26.0256C26.3017 6.95138 26.5256 6.72753 26.5256 6.45138V5.96582Z" stroke="black" stroke-linejoin="round"/>
<path d="M26.5256 5.96582C26.5256 5.68968 26.3017 5.46582 26.0256 5.46582H15.2289C14.9528 5.46582 14.7289 5.68968 14.7289 5.96582V6.45138C14.7289 6.72753 14.9528 6.95138 15.2289 6.95138H26.0256C26.3017 6.95138 26.5256 6.72753 26.5256 6.45138V5.96582Z" stroke="black" stroke-opacity="0.63" stroke-linejoin="round"/>
</g>
<g id="Vector_2">
<path d="M7.5 34.4241C7.49969 34.7065 7.56303 34.9842 7.68405 35.2407C7.80499 35.497 7.98024 35.7253 8.19611 35.9146C8.41186 36.1037 8.6646 36.2508 8.93848 36.3502L9.10905 35.8802L8.93848 36.3502C9.21231 36.4496 9.50396 36.5001 9.79726 36.5C9.7973 36.5 9.79734 36.5 9.79738 36.5H31.2028H31.2032C31.7925 36.4996 32.3687 36.2949 32.8029 35.9144C33.2392 35.5322 33.4997 34.9985 33.5001 34.4256V34.4253V8.02618V8.02586C33.4997 7.45292 33.2392 6.91929 32.8029 6.537C32.3687 6.15657 31.7925 5.95185 31.2032 5.95142H31.2028H27.1282C26.852 5.95142 26.6282 6.17527 26.6282 6.45142V8.55862C26.6282 8.83476 26.852 9.05862 27.1282 9.05862H30.7008V33.1063H10.2973V9.05862H14.1263C14.4025 9.05862 14.6263 8.83476 14.6263 8.55862V6.45142C14.6263 6.17527 14.4025 5.95142 14.1263 5.95142L9.79738 5.95142C9.79734 5.95142 9.7973 5.95142 9.79726 5.95142C9.50407 5.95136 9.21252 6.00185 8.93877 6.10115C8.66498 6.20047 8.4123 6.34747 8.19657 6.53649C7.98072 6.72561 7.80545 6.95377 7.68444 7.20994C7.56334 7.46629 7.49987 7.74388 7.5 8.02618V34.4241ZM7.5 34.4241C7.5 34.424 7.5 34.4239 7.5 34.4237L8 34.4244H7.5V34.4241Z" fill="#F28C19"/>
<path d="M7.5 34.4241C7.49969 34.7065 7.56303 34.9842 7.68405 35.2407C7.80499 35.497 7.98024 35.7253 8.19611 35.9146C8.41186 36.1037 8.6646 36.2508 8.93848 36.3502L9.10905 35.8802L8.93848 36.3502C9.21231 36.4496 9.50396 36.5001 9.79726 36.5C9.7973 36.5 9.79734 36.5 9.79738 36.5H31.2028H31.2032C31.7925 36.4996 32.3687 36.2949 32.8029 35.9144C33.2392 35.5322 33.4997 34.9985 33.5001 34.4256V34.4253V8.02618V8.02586C33.4997 7.45292 33.2392 6.91929 32.8029 6.537C32.3687 6.15657 31.7925 5.95185 31.2032 5.95142H31.2028H27.1282C26.852 5.95142 26.6282 6.17527 26.6282 6.45142V8.55862C26.6282 8.83476 26.852 9.05862 27.1282 9.05862H30.7008V33.1063H10.2973V9.05862H14.1263C14.4025 9.05862 14.6263 8.83476 14.6263 8.55862V6.45142C14.6263 6.17527 14.4025 5.95142 14.1263 5.95142L9.79738 5.95142C9.79734 5.95142 9.7973 5.95142 9.79726 5.95142C9.50407 5.95136 9.21252 6.00185 8.93877 6.10115C8.66498 6.20047 8.4123 6.34747 8.19657 6.53649C7.98072 6.72561 7.80545 6.95377 7.68444 7.20994C7.56334 7.46629 7.49987 7.74388 7.5 8.02618V34.4241ZM7.5 34.4241C7.5 34.424 7.5 34.4239 7.5 34.4237L8 34.4244H7.5V34.4241Z" stroke="black" stroke-linejoin="round"/>
<path d="M7.5 34.4241C7.49969 34.7065 7.56303 34.9842 7.68405 35.2407C7.80499 35.497 7.98024 35.7253 8.19611 35.9146C8.41186 36.1037 8.6646 36.2508 8.93848 36.3502L9.10905 35.8802L8.93848 36.3502C9.21231 36.4496 9.50396 36.5001 9.79726 36.5C9.7973 36.5 9.79734 36.5 9.79738 36.5H31.2028H31.2032C31.7925 36.4996 32.3687 36.2949 32.8029 35.9144C33.2392 35.5322 33.4997 34.9985 33.5001 34.4256V34.4253V8.02618V8.02586C33.4997 7.45292 33.2392 6.91929 32.8029 6.537C32.3687 6.15657 31.7925 5.95185 31.2032 5.95142H31.2028H27.1282C26.852 5.95142 26.6282 6.17527 26.6282 6.45142V8.55862C26.6282 8.83476 26.852 9.05862 27.1282 9.05862H30.7008V33.1063H10.2973V9.05862H14.1263C14.4025 9.05862 14.6263 8.83476 14.6263 8.55862V6.45142C14.6263 6.17527 14.4025 5.95142 14.1263 5.95142L9.79738 5.95142C9.79734 5.95142 9.7973 5.95142 9.79726 5.95142C9.50407 5.95136 9.21252 6.00185 8.93877 6.10115C8.66498 6.20047 8.4123 6.34747 8.19657 6.53649C7.98072 6.72561 7.80545 6.95377 7.68444 7.20994C7.56334 7.46629 7.49987 7.74388 7.5 8.02618V34.4241ZM7.5 34.4241C7.5 34.424 7.5 34.4239 7.5 34.4237L8 34.4244H7.5V34.4241Z" stroke="black" stroke-opacity="0.63" stroke-linejoin="round"/>
</g>
<g id="Vector_3">
<path d="M26.5256 6.45142C26.5256 6.17527 26.3017 5.95142 26.0256 5.95142H15.2289C14.9528 5.95142 14.7289 6.17527 14.7289 6.45142V8.55862C14.7289 8.83476 14.9528 9.05862 15.2289 9.05862H26.0256C26.3017 9.05862 26.5256 8.83476 26.5256 8.55862V6.45142Z" fill="#F28C19"/>
<path d="M26.5256 6.45142C26.5256 6.17527 26.3017 5.95142 26.0256 5.95142H15.2289C14.9528 5.95142 14.7289 6.17527 14.7289 6.45142V8.55862C14.7289 8.83476 14.9528 9.05862 15.2289 9.05862H26.0256C26.3017 9.05862 26.5256 8.83476 26.5256 8.55862V6.45142Z" stroke="black" stroke-linejoin="round"/>
<path d="M26.5256 6.45142C26.5256 6.17527 26.3017 5.95142 26.0256 5.95142H15.2289C14.9528 5.95142 14.7289 6.17527 14.7289 6.45142V8.55862C14.7289 8.83476 14.9528 9.05862 15.2289 9.05862H26.0256C26.3017 9.05862 26.5256 8.83476 26.5256 8.55862V6.45142Z" stroke="black" stroke-opacity="0.63" stroke-linejoin="round"/>
</g>
<g id="Vector_4">
<path d="M26.6378 10.0236L26.6494 10.0368M26.6378 10.0236L26.6494 10.0368M26.6378 10.0236L26.6494 10.0368M26.6378 10.0236L26.6494 10.0368M26.6494 10.0368L26.6494 10.0368M26.6494 10.0368L26.6494 10.0368M26.6494 10.0368V10.0368M26.6494 10.0368L26.6494 10.0368M26.6494 10.0368L26.6948 10.0582L26.6967 10.0591L26.6494 10.0368M26.6494 10.0368L26.6494 10.0368M26.6494 10.0368L26.6494 10.0368M26.6494 10.0368L26.6948 10.0582L26.6967 10.0591L26.6494 10.0368ZM9.79726 8.05859C9.52111 8.05859 9.29726 8.28245 9.29726 8.55859V33.6062C9.29726 33.8824 9.52111 34.1062 9.79726 34.1062H31.2028C31.4789 34.1062 31.7028 33.8824 31.7028 33.6062V8.55859C31.7028 8.28245 31.4789 8.05859 31.2028 8.05859H27.1282C26.852 8.05859 26.6282 8.28245 26.6282 8.55859V10.0297C26.6255 10.0311 26.6222 10.0325 26.6183 10.034C26.6072 10.038 26.5935 10.0406 26.5784 10.0406L14.6776 10.0406L14.6772 10.0406C14.662 10.0407 14.6481 10.038 14.6369 10.0339C14.6327 10.0324 14.6292 10.0308 14.6263 10.0293V8.55859C14.6263 8.28245 14.4025 8.05859 14.1263 8.05859H9.79726ZM26.6282 10.0592C26.6282 10.0589 26.6282 10.0585 26.6282 10.0582L26.6282 10.0592ZM28.902 28.4567H12.095V27.7811H28.902V28.4567ZM28.902 24.6646H12.095V23.9894H28.902V24.6646ZM28.902 20.873H12.095V20.1978H28.902V20.873ZM28.902 17.0813H12.095V16.4057H28.902V17.0813ZM28.902 12.6136V13.2897H12.095V12.6136H28.902Z" fill="white"/>
<path d="M26.6378 10.0236L26.6494 10.0368M26.6378 10.0236L26.6494 10.0368M26.6378 10.0236L26.6494 10.0368M26.6378 10.0236L26.6494 10.0368M26.6494 10.0368L26.6494 10.0368M26.6494 10.0368L26.6494 10.0368M26.6494 10.0368V10.0368M26.6494 10.0368L26.6494 10.0368M26.6494 10.0368L26.6948 10.0582L26.6967 10.0591L26.6494 10.0368M26.6494 10.0368L26.6494 10.0368M26.6494 10.0368L26.6494 10.0368M26.6494 10.0368L26.6948 10.0582L26.6967 10.0591L26.6494 10.0368ZM9.79726 8.05859C9.52111 8.05859 9.29726 8.28245 9.29726 8.55859V33.6062C9.29726 33.8824 9.52111 34.1062 9.79726 34.1062H31.2028C31.4789 34.1062 31.7028 33.8824 31.7028 33.6062V8.55859C31.7028 8.28245 31.4789 8.05859 31.2028 8.05859H27.1282C26.852 8.05859 26.6282 8.28245 26.6282 8.55859V10.0297C26.6255 10.0311 26.6222 10.0325 26.6183 10.034C26.6072 10.038 26.5935 10.0406 26.5784 10.0406L14.6776 10.0406L14.6772 10.0406C14.662 10.0407 14.6481 10.038 14.6369 10.0339C14.6327 10.0324 14.6292 10.0308 14.6263 10.0293V8.55859C14.6263 8.28245 14.4025 8.05859 14.1263 8.05859H9.79726ZM26.6282 10.0592C26.6282 10.0589 26.6282 10.0585 26.6282 10.0582L26.6282 10.0592ZM28.902 28.4567H12.095V27.7811H28.902V28.4567ZM28.902 24.6646H12.095V23.9894H28.902V24.6646ZM28.902 20.873H12.095V20.1978H28.902V20.873ZM28.902 17.0813H12.095V16.4057H28.902V17.0813ZM28.902 12.6136V13.2897H12.095V12.6136H28.902Z" stroke="black" stroke-linejoin="round"/>
<path d="M26.6378 10.0236L26.6494 10.0368M26.6378 10.0236L26.6494 10.0368M26.6378 10.0236L26.6494 10.0368M26.6378 10.0236L26.6494 10.0368M26.6494 10.0368L26.6494 10.0368M26.6494 10.0368L26.6494 10.0368M26.6494 10.0368V10.0368M26.6494 10.0368L26.6494 10.0368M26.6494 10.0368L26.6948 10.0582L26.6967 10.0591L26.6494 10.0368M26.6494 10.0368L26.6494 10.0368M26.6494 10.0368L26.6494 10.0368M26.6494 10.0368L26.6948 10.0582L26.6967 10.0591L26.6494 10.0368ZM9.79726 8.05859C9.52111 8.05859 9.29726 8.28245 9.29726 8.55859V33.6062C9.29726 33.8824 9.52111 34.1062 9.79726 34.1062H31.2028C31.4789 34.1062 31.7028 33.8824 31.7028 33.6062V8.55859C31.7028 8.28245 31.4789 8.05859 31.2028 8.05859H27.1282C26.852 8.05859 26.6282 8.28245 26.6282 8.55859V10.0297C26.6255 10.0311 26.6222 10.0325 26.6183 10.034C26.6072 10.038 26.5935 10.0406 26.5784 10.0406L14.6776 10.0406L14.6772 10.0406C14.662 10.0407 14.6481 10.038 14.6369 10.0339C14.6327 10.0324 14.6292 10.0308 14.6263 10.0293V8.55859C14.6263 8.28245 14.4025 8.05859 14.1263 8.05859H9.79726ZM26.6282 10.0592C26.6282 10.0589 26.6282 10.0585 26.6282 10.0582L26.6282 10.0592ZM28.902 28.4567H12.095V27.7811H28.902V28.4567ZM28.902 24.6646H12.095V23.9894H28.902V24.6646ZM28.902 20.873H12.095V20.1978H28.902V20.873ZM28.902 17.0813H12.095V16.4057H28.902V17.0813ZM28.902 12.6136V13.2897H12.095V12.6136H28.902Z" stroke="black" stroke-opacity="0.63" stroke-linejoin="round"/>
</g>
<g id="Vector_5">
<path d="M26.5256 8.55859C26.5256 8.28245 26.3017 8.05859 26.0256 8.05859H15.2289C14.9528 8.05859 14.7289 8.28245 14.7289 8.55859V9.57527C14.7289 9.85141 14.9528 10.0753 15.2289 10.0753H26.0256C26.3017 10.0753 26.5256 9.85141 26.5256 9.57527V8.55859Z" fill="white"/>
<path d="M26.5256 8.55859C26.5256 8.28245 26.3017 8.05859 26.0256 8.05859H15.2289C14.9528 8.05859 14.7289 8.28245 14.7289 8.55859V9.57527C14.7289 9.85141 14.9528 10.0753 15.2289 10.0753H26.0256C26.3017 10.0753 26.5256 9.85141 26.5256 9.57527V8.55859Z" stroke="black" stroke-linejoin="round"/>
<path d="M26.5256 8.55859C26.5256 8.28245 26.3017 8.05859 26.0256 8.05859H15.2289C14.9528 8.05859 14.7289 8.28245 14.7289 8.55859V9.57527C14.7289 9.85141 14.9528 10.0753 15.2289 10.0753H26.0256C26.3017 10.0753 26.5256 9.85141 26.5256 9.57527V8.55859Z" stroke="black" stroke-opacity="0.63" stroke-linejoin="round"/>
</g>
<g id="Vector_6">
<mask id="path-6-outside-1_47_13" maskUnits="userSpaceOnUse" x="13.1263" y="4" width="16" height="8" fill="black">
<rect fill="white" x="13.1263" y="4" width="16" height="8"/>
<path d="M14.6776 5C14.6053 4.99994 14.5336 5.01238 14.4667 5.0366C14.3998 5.06082 14.339 5.09635 14.2878 5.14116C14.2366 5.18596 14.196 5.23917 14.1683 5.29774C14.1406 5.3563 14.1263 5.41907 14.1263 5.48247V10.0582C14.1263 10.1216 14.1406 10.1843 14.1683 10.2429C14.196 10.3015 14.2366 10.3547 14.2878 10.3995C14.339 10.4443 14.3998 10.4798 14.4667 10.504C14.5336 10.5283 14.6053 10.5407 14.6776 10.5406H26.5784C26.6508 10.5408 26.7226 10.5285 26.7895 10.5043C26.8564 10.4801 26.9173 10.4446 26.9685 10.3997C27.0197 10.3549 27.0603 10.3017 27.088 10.243C27.1157 10.1844 27.1298 10.1216 27.1297 10.0582V5.48247C27.1298 5.41904 27.1157 5.35621 27.088 5.2976C27.0603 5.23898 27.0197 5.18573 26.9685 5.1409C26.9173 5.09607 26.8564 5.06054 26.7895 5.03636C26.7226 5.01218 26.6508 4.99983 26.5784 5L14.6776 5ZM26.0256 6.45139V9.57527H15.2289V5.96582H26.0256V6.45139Z"/>
</mask>
<path d="M14.6776 5C14.6053 4.99994 14.5336 5.01238 14.4667 5.0366C14.3998 5.06082 14.339 5.09635 14.2878 5.14116C14.2366 5.18596 14.196 5.23917 14.1683 5.29774C14.1406 5.3563 14.1263 5.41907 14.1263 5.48247V10.0582C14.1263 10.1216 14.1406 10.1843 14.1683 10.2429C14.196 10.3015 14.2366 10.3547 14.2878 10.3995C14.339 10.4443 14.3998 10.4798 14.4667 10.504C14.5336 10.5283 14.6053 10.5407 14.6776 10.5406H26.5784C26.6508 10.5408 26.7226 10.5285 26.7895 10.5043C26.8564 10.4801 26.9173 10.4446 26.9685 10.3997C27.0197 10.3549 27.0603 10.3017 27.088 10.243C27.1157 10.1844 27.1298 10.1216 27.1297 10.0582V5.48247C27.1298 5.41904 27.1157 5.35621 27.088 5.2976C27.0603 5.23898 27.0197 5.18573 26.9685 5.1409C26.9173 5.09607 26.8564 5.06054 26.7895 5.03636C26.7226 5.01218 26.6508 4.99983 26.5784 5L14.6776 5ZM26.0256 6.45139V9.57527H15.2289V5.96582H26.0256V6.45139Z" fill="#414141"/>
<path d="M14.6776 5L14.6768 6H14.6776V5ZM14.1263 5.48247H15.1263V5.48247L14.1263 5.48247ZM14.1263 10.0582L15.1263 10.0582V10.0582H14.1263ZM14.6776 10.5406V9.54064L14.6768 9.54064L14.6776 10.5406ZM26.5784 10.5406L26.5808 9.54064H26.5784V10.5406ZM27.1297 10.0582H26.1297L26.1297 10.0603L27.1297 10.0582ZM27.1297 5.48247L26.1297 5.48037V5.48247H27.1297ZM26.5784 5V6L26.5808 6L26.5784 5ZM26.0256 9.57527V10.5753C26.5779 10.5753 27.0256 10.1276 27.0256 9.57527H26.0256ZM15.2289 9.57527H14.2289C14.2289 10.1276 14.6766 10.5753 15.2289 10.5753V9.57527ZM15.2289 5.96582V4.96582C14.6766 4.96582 14.2289 5.41354 14.2289 5.96582H15.2289ZM26.0256 5.96582H27.0256C27.0256 5.41354 26.5779 4.96582 26.0256 4.96582V5.96582ZM14.6784 4C14.4918 3.99985 14.3044 4.03181 14.1262 4.09635L14.8072 5.97685C14.7627 5.99295 14.7188 6.00004 14.6768 6L14.6784 4ZM14.1262 4.09635C13.948 4.1609 13.7781 4.25835 13.6293 4.38864L14.9464 5.89368C14.8999 5.93435 14.8517 5.96074 14.8072 5.97685L14.1262 4.09635ZM13.6293 4.38864C13.4802 4.51914 13.3537 4.68134 13.2644 4.87002L15.0722 5.72545C15.0384 5.797 14.9931 5.85279 14.9464 5.89368L13.6293 4.38864ZM13.2644 4.87002C13.1749 5.05926 13.1263 5.26783 13.1263 5.48247L15.1263 5.48247C15.1263 5.57032 15.1063 5.65333 15.0722 5.72545L13.2644 4.87002ZM13.1263 5.48247V10.0582H15.1263V5.48247H13.1263ZM13.1263 10.0582C13.1263 10.2728 13.1748 10.4814 13.2644 10.6706L15.0722 9.8152C15.1063 9.88731 15.1263 9.97033 15.1263 10.0582L13.1263 10.0582ZM13.2644 10.6706C13.3537 10.8593 13.4802 11.0215 13.6293 11.152L14.9464 9.64697C14.9931 9.68785 15.0384 9.74364 15.0722 9.8152L13.2644 10.6706ZM13.6293 11.152C13.7781 11.2823 13.948 11.3797 14.1262 11.4443L14.8072 9.5638C14.8517 9.57991 14.8999 9.6063 14.9464 9.64697L13.6293 11.152ZM14.1262 11.4443C14.3044 11.5088 14.4917 11.5408 14.6784 11.5406L14.6768 9.54064C14.7188 9.54061 14.7627 9.5477 14.8072 9.5638L14.1262 11.4443ZM14.6776 11.5406H26.5784V9.54064H14.6776V11.5406ZM26.576 11.5406C26.763 11.5411 26.9506 11.5093 27.1292 11.4448L26.4498 9.56375C26.4945 9.54761 26.5387 9.54054 26.5808 9.54065L26.576 11.5406ZM27.1292 11.4448C27.3078 11.3803 27.4779 11.2828 27.6271 11.1523L26.3099 9.64723C26.3566 9.60638 26.4051 9.5799 26.4498 9.56375L27.1292 11.4448ZM27.6271 11.1523C27.7764 11.0215 27.9031 10.859 27.9923 10.6698L26.1836 9.81625C26.2176 9.74436 26.263 9.6883 26.3099 9.64723L27.6271 11.1523ZM27.9923 10.6698C28.0819 10.4802 28.1301 10.2711 28.1297 10.0561L26.1297 10.0603C26.1295 9.97209 26.1495 9.88869 26.1836 9.81625L27.9923 10.6698ZM28.1297 10.0582V5.48247H26.1297V10.0582H28.1297ZM28.1297 5.48457C28.1301 5.26952 28.0819 5.06048 27.9923 4.8708L26.1836 5.7244C26.1495 5.65195 26.1295 5.56856 26.1297 5.48037L28.1297 5.48457ZM27.9923 4.8708C27.9031 4.68167 27.7764 4.51911 27.6271 4.38838L26.3099 5.89342C26.263 5.85234 26.2176 5.79629 26.1836 5.7244L27.9923 4.8708ZM27.6271 4.38838C27.4779 4.25787 27.3078 4.16033 27.1292 4.09583L26.4498 5.97689C26.4051 5.96075 26.3566 5.93426 26.3099 5.89342L27.6271 4.38838ZM27.1292 4.09583C26.9506 4.03134 26.763 3.99955 26.576 4L26.5808 6C26.5387 6.0001 26.4945 5.99303 26.4498 5.97689L27.1292 4.09583ZM26.5784 4H14.6776V6H26.5784V4ZM25.0256 6.45139V9.57527H27.0256V6.45139H25.0256ZM26.0256 8.57527H15.2289V10.5753H26.0256V8.57527ZM16.2289 9.57527V5.96582H14.2289V9.57527H16.2289ZM15.2289 6.96582H26.0256V4.96582H15.2289V6.96582ZM25.0256 5.96582V6.45139H27.0256V5.96582H25.0256Z" fill="black" mask="url(#path-6-outside-1_47_13)"/>
<path d="M14.6776 5L14.6768 6H14.6776V5ZM14.1263 5.48247H15.1263V5.48247L14.1263 5.48247ZM14.1263 10.0582L15.1263 10.0582V10.0582H14.1263ZM14.6776 10.5406V9.54064L14.6768 9.54064L14.6776 10.5406ZM26.5784 10.5406L26.5808 9.54064H26.5784V10.5406ZM27.1297 10.0582H26.1297L26.1297 10.0603L27.1297 10.0582ZM27.1297 5.48247L26.1297 5.48037V5.48247H27.1297ZM26.5784 5V6L26.5808 6L26.5784 5ZM26.0256 9.57527V10.5753C26.5779 10.5753 27.0256 10.1276 27.0256 9.57527H26.0256ZM15.2289 9.57527H14.2289C14.2289 10.1276 14.6766 10.5753 15.2289 10.5753V9.57527ZM15.2289 5.96582V4.96582C14.6766 4.96582 14.2289 5.41354 14.2289 5.96582H15.2289ZM26.0256 5.96582H27.0256C27.0256 5.41354 26.5779 4.96582 26.0256 4.96582V5.96582ZM14.6784 4C14.4918 3.99985 14.3044 4.03181 14.1262 4.09635L14.8072 5.97685C14.7627 5.99295 14.7188 6.00004 14.6768 6L14.6784 4ZM14.1262 4.09635C13.948 4.1609 13.7781 4.25835 13.6293 4.38864L14.9464 5.89368C14.8999 5.93435 14.8517 5.96074 14.8072 5.97685L14.1262 4.09635ZM13.6293 4.38864C13.4802 4.51914 13.3537 4.68134 13.2644 4.87002L15.0722 5.72545C15.0384 5.797 14.9931 5.85279 14.9464 5.89368L13.6293 4.38864ZM13.2644 4.87002C13.1749 5.05926 13.1263 5.26783 13.1263 5.48247L15.1263 5.48247C15.1263 5.57032 15.1063 5.65333 15.0722 5.72545L13.2644 4.87002ZM13.1263 5.48247V10.0582H15.1263V5.48247H13.1263ZM13.1263 10.0582C13.1263 10.2728 13.1748 10.4814 13.2644 10.6706L15.0722 9.8152C15.1063 9.88731 15.1263 9.97033 15.1263 10.0582L13.1263 10.0582ZM13.2644 10.6706C13.3537 10.8593 13.4802 11.0215 13.6293 11.152L14.9464 9.64697C14.9931 9.68785 15.0384 9.74364 15.0722 9.8152L13.2644 10.6706ZM13.6293 11.152C13.7781 11.2823 13.948 11.3797 14.1262 11.4443L14.8072 9.5638C14.8517 9.57991 14.8999 9.6063 14.9464 9.64697L13.6293 11.152ZM14.1262 11.4443C14.3044 11.5088 14.4917 11.5408 14.6784 11.5406L14.6768 9.54064C14.7188 9.54061 14.7627 9.5477 14.8072 9.5638L14.1262 11.4443ZM14.6776 11.5406H26.5784V9.54064H14.6776V11.5406ZM26.576 11.5406C26.763 11.5411 26.9506 11.5093 27.1292 11.4448L26.4498 9.56375C26.4945 9.54761 26.5387 9.54054 26.5808 9.54065L26.576 11.5406ZM27.1292 11.4448C27.3078 11.3803 27.4779 11.2828 27.6271 11.1523L26.3099 9.64723C26.3566 9.60638 26.4051 9.5799 26.4498 9.56375L27.1292 11.4448ZM27.6271 11.1523C27.7764 11.0215 27.9031 10.859 27.9923 10.6698L26.1836 9.81625C26.2176 9.74436 26.263 9.6883 26.3099 9.64723L27.6271 11.1523ZM27.9923 10.6698C28.0819 10.4802 28.1301 10.2711 28.1297 10.0561L26.1297 10.0603C26.1295 9.97209 26.1495 9.88869 26.1836 9.81625L27.9923 10.6698ZM28.1297 10.0582V5.48247H26.1297V10.0582H28.1297ZM28.1297 5.48457C28.1301 5.26952 28.0819 5.06048 27.9923 4.8708L26.1836 5.7244C26.1495 5.65195 26.1295 5.56856 26.1297 5.48037L28.1297 5.48457ZM27.9923 4.8708C27.9031 4.68167 27.7764 4.51911 27.6271 4.38838L26.3099 5.89342C26.263 5.85234 26.2176 5.79629 26.1836 5.7244L27.9923 4.8708ZM27.6271 4.38838C27.4779 4.25787 27.3078 4.16033 27.1292 4.09583L26.4498 5.97689C26.4051 5.96075 26.3566 5.93426 26.3099 5.89342L27.6271 4.38838ZM27.1292 4.09583C26.9506 4.03134 26.763 3.99955 26.576 4L26.5808 6C26.5387 6.0001 26.4945 5.99303 26.4498 5.97689L27.1292 4.09583ZM26.5784 4H14.6776V6H26.5784V4ZM25.0256 6.45139V9.57527H27.0256V6.45139H25.0256ZM26.0256 8.57527H15.2289V10.5753H26.0256V8.57527ZM16.2289 9.57527V5.96582H14.2289V9.57527H16.2289ZM15.2289 6.96582H26.0256V4.96582H15.2289V6.96582ZM25.0256 5.96582V6.45139H27.0256V5.96582H25.0256Z" fill="black" fill-opacity="0.63" mask="url(#path-6-outside-1_47_13)"/>
</g>
<g id="Vector_7">
<path d="M29.902 12.1135C29.902 11.8374 29.6782 11.6135 29.402 11.6135H11.595C11.3189 11.6135 11.095 11.8374 11.095 12.1135V13.7891C11.095 14.0653 11.3189 14.2891 11.595 14.2891H29.402C29.6782 14.2891 29.902 14.0653 29.902 13.7891V12.1135Z" fill="#666666"/>
<path d="M29.902 12.1135C29.902 11.8374 29.6782 11.6135 29.402 11.6135H11.595C11.3189 11.6135 11.095 11.8374 11.095 12.1135V13.7891C11.095 14.0653 11.3189 14.2891 11.595 14.2891H29.402C29.6782 14.2891 29.902 14.0653 29.902 13.7891V12.1135Z" stroke="black" stroke-linejoin="round"/>
<path d="M29.902 12.1135C29.902 11.8374 29.6782 11.6135 29.402 11.6135H11.595C11.3189 11.6135 11.095 11.8374 11.095 12.1135V13.7891C11.095 14.0653 11.3189 14.2891 11.595 14.2891H29.402C29.6782 14.2891 29.902 14.0653 29.902 13.7891V12.1135Z" stroke="black" stroke-opacity="0.63" stroke-linejoin="round"/>
</g>
<g id="Vector_8">
<path d="M29.902 15.9058C29.902 15.6296 29.6782 15.4058 29.402 15.4058H11.595C11.3189 15.4058 11.095 15.6296 11.095 15.9058V17.5818C11.095 17.8579 11.3189 18.0818 11.595 18.0818H29.402C29.6782 18.0818 29.902 17.8579 29.902 17.5818V15.9058Z" fill="#666666"/>
<path d="M29.902 15.9058C29.902 15.6296 29.6782 15.4058 29.402 15.4058H11.595C11.3189 15.4058 11.095 15.6296 11.095 15.9058V17.5818C11.095 17.8579 11.3189 18.0818 11.595 18.0818H29.402C29.6782 18.0818 29.902 17.8579 29.902 17.5818V15.9058Z" stroke="black" stroke-linejoin="round"/>
<path d="M29.902 15.9058C29.902 15.6296 29.6782 15.4058 29.402 15.4058H11.595C11.3189 15.4058 11.095 15.6296 11.095 15.9058V17.5818C11.095 17.8579 11.3189 18.0818 11.595 18.0818H29.402C29.6782 18.0818 29.902 17.8579 29.902 17.5818V15.9058Z" stroke="black" stroke-opacity="0.63" stroke-linejoin="round"/>
</g>
<g id="Vector_9">
<path d="M29.902 19.6978C29.902 19.4216 29.6782 19.1978 29.402 19.1978H11.595C11.3189 19.1978 11.095 19.4216 11.095 19.6978V21.3729C11.095 21.649 11.3189 21.8729 11.595 21.8729H29.402C29.6782 21.8729 29.902 21.649 29.902 21.3729V19.6978Z" fill="#666666"/>
<path d="M29.902 19.6978C29.902 19.4216 29.6782 19.1978 29.402 19.1978H11.595C11.3189 19.1978 11.095 19.4216 11.095 19.6978V21.3729C11.095 21.649 11.3189 21.8729 11.595 21.8729H29.402C29.6782 21.8729 29.902 21.649 29.902 21.3729V19.6978Z" stroke="black" stroke-linejoin="round"/>
<path d="M29.902 19.6978C29.902 19.4216 29.6782 19.1978 29.402 19.1978H11.595C11.3189 19.1978 11.095 19.4216 11.095 19.6978V21.3729C11.095 21.649 11.3189 21.8729 11.595 21.8729H29.402C29.6782 21.8729 29.902 21.649 29.902 21.3729V19.6978Z" stroke="black" stroke-opacity="0.63" stroke-linejoin="round"/>
</g>
<g id="Vector_10">
<path d="M29.902 23.4895C29.902 23.2134 29.6782 22.9895 29.402 22.9895H11.595C11.3189 22.9895 11.095 23.2134 11.095 23.4895V25.1647C11.095 25.4408 11.3189 25.6647 11.595 25.6647H29.402C29.6782 25.6647 29.902 25.4408 29.902 25.1647V23.4895Z" fill="#666666"/>
<path d="M29.902 23.4895C29.902 23.2134 29.6782 22.9895 29.402 22.9895H11.595C11.3189 22.9895 11.095 23.2134 11.095 23.4895V25.1647C11.095 25.4408 11.3189 25.6647 11.595 25.6647H29.402C29.6782 25.6647 29.902 25.4408 29.902 25.1647V23.4895Z" stroke="black" stroke-linejoin="round"/>
<path d="M29.902 23.4895C29.902 23.2134 29.6782 22.9895 29.402 22.9895H11.595C11.3189 22.9895 11.095 23.2134 11.095 23.4895V25.1647C11.095 25.4408 11.3189 25.6647 11.595 25.6647H29.402C29.6782 25.6647 29.902 25.4408 29.902 25.1647V23.4895Z" stroke="black" stroke-opacity="0.63" stroke-linejoin="round"/>
</g>
<g id="Vector_11">
<path d="M29.902 27.281C29.902 27.0049 29.6782 26.781 29.402 26.781H11.595C11.3189 26.781 11.095 27.0049 11.095 27.281V28.9566C11.095 29.2327 11.3189 29.4566 11.595 29.4566H29.402C29.6782 29.4566 29.902 29.2327 29.902 28.9566V27.281Z" fill="#666666"/>
<path d="M29.902 27.281C29.902 27.0049 29.6782 26.781 29.402 26.781H11.595C11.3189 26.781 11.095 27.0049 11.095 27.281V28.9566C11.095 29.2327 11.3189 29.4566 11.595 29.4566H29.402C29.6782 29.4566 29.902 29.2327 29.902 28.9566V27.281Z" stroke="black" stroke-linejoin="round"/>
<path d="M29.902 27.281C29.902 27.0049 29.6782 26.781 29.402 26.781H11.595C11.3189 26.781 11.095 27.0049 11.095 27.281V28.9566C11.095 29.2327 11.3189 29.4566 11.595 29.4566H29.402C29.6782 29.4566 29.902 29.2327 29.902 28.9566V27.281Z" stroke="black" stroke-opacity="0.63" stroke-linejoin="round"/>
</g>
</g>
</g>
</g>
<defs>
<filter id="filter0_d_47_13" x="3" y="4" width="35.0001" height="41" filterUnits="userSpaceOnUse" color-interpolation-filters="sRGB">
<feFlood flood-opacity="0" result="BackgroundImageFix"/>
<feColorMatrix in="SourceAlpha" type="matrix" values="0 0 0 0 0 0 0 0 0 0 0 0 0 0 0 0 0 0 127 0" result="hardAlpha"/>
<feOffset dy="4"/>
<feGaussianBlur stdDeviation="2"/>
<feComposite in2="hardAlpha" operator="out"/>
<feColorMatrix type="matrix" values="0 0 0 0 0 0 0 0 0 0 0 0 0 0 0 0 0 0 0.25 0"/>
<feBlend mode="normal" in2="BackgroundImageFix" result="effect1_dropShadow_47_13"/>
<feBlend mode="normal" in="SourceGraphic" in2="effect1_dropShadow_47_13" result="shape"/>
</filter>
<clipPath id="clip0_47_13">
<rect width="40" height="40" fill="white"/>
</clipPath>
</defs>
</svg>
