<svg width="40" height="42" viewBox="0 0 40 42" fill="none" xmlns="http://www.w3.org/2000/svg">
<g id="Frame 4">
<g id="Imprimer" filter="url(#filter0_d_47_12)">
<g id="Vector">
<mask id="path-1-outside-1_47_12" maskUnits="userSpaceOnUse" x="6" y="8.44678" width="28" height="23" fill="black">
<rect fill="white" x="6" y="8.44678" width="28" height="23"/>
<path d="M26.8313 29.3303V29.9426H32.27C32.3658 29.9426 32.4607 29.9247 32.5492 29.8898C32.6378 29.8549 32.7183 29.8036 32.7861 29.7391C32.8539 29.6745 32.9076 29.5978 32.9444 29.5134C32.9811 29.429 33 29.3385 33.0001 29.2471V14.1005C33 14.0092 32.9811 13.9187 32.9444 13.8343C32.9076 13.75 32.8538 13.6733 32.786 13.6088C32.7182 13.5442 32.6378 13.493 32.5492 13.4582C32.4607 13.4233 32.3658 13.4054 32.27 13.4055H28.1603V9.7875C28.1602 9.6971 28.1224 9.61044 28.0554 9.54655C27.9883 9.48266 27.8974 9.44678 27.8026 9.44678H26.8313V14.6224H13.1683V9.44678H12.1975C12.1505 9.44673 12.104 9.4555 12.0606 9.47259C12.0172 9.48969 11.9777 9.51477 11.9444 9.54641C11.9112 9.57805 11.8848 9.61562 11.8668 9.65699C11.8487 9.69836 11.8394 9.7427 11.8394 9.7875V13.4055H7.72968C7.63391 13.4054 7.53907 13.4234 7.45057 13.4583C7.36207 13.4932 7.28165 13.5444 7.21389 13.6089C7.14613 13.6734 7.09237 13.7501 7.05567 13.8344C7.01897 13.9188 7.00006 14.0092 7 14.1005V29.2471C7.00011 29.4316 7.07698 29.6084 7.21372 29.7388C7.35046 29.8692 7.53588 29.9425 7.72926 29.9426H13.1683V29.3303H11.8394V24.5894H28.1599V29.3303H26.8313ZM31.3013 24.3242C31.4455 24.3242 31.5865 24.3649 31.7065 24.4412C31.8265 24.5176 31.92 24.6261 31.9753 24.7532C32.0305 24.8802 32.0451 25.0201 32.017 25.155C31.989 25.2899 31.9196 25.4138 31.8176 25.5112C31.7157 25.6085 31.5858 25.6748 31.4444 25.7017C31.3029 25.7286 31.1563 25.7149 31.023 25.6623C30.8897 25.6098 30.7758 25.5207 30.6956 25.4064C30.6154 25.2921 30.5725 25.1576 30.5724 25.0201C30.5724 24.9288 30.5912 24.8383 30.6278 24.7539C30.6644 24.6695 30.718 24.5928 30.7857 24.5282C30.8534 24.4636 30.9338 24.4123 31.0222 24.3773C31.1107 24.3423 31.2055 24.3243 31.3013 24.3242ZM31.3013 26.2618C31.4456 26.2617 31.5867 26.3025 31.7067 26.3789C31.8267 26.4554 31.9203 26.5641 31.9755 26.6912C32.0307 26.8184 32.0451 26.9583 32.0169 27.0933C31.9886 27.2282 31.919 27.3522 31.8169 27.4494C31.7148 27.5467 31.5847 27.6128 31.4431 27.6395C31.3015 27.6662 31.1548 27.6522 31.0215 27.5993C30.8883 27.5465 30.7745 27.4571 30.6945 27.3425C30.6146 27.2279 30.5721 27.0933 30.5724 26.9557C30.5728 26.7715 30.6497 26.595 30.7863 26.465C30.923 26.3349 31.1082 26.2618 31.3013 26.2618Z"/>
</mask>
<path d="M26.8313 29.3303V29.9426H32.27C32.3658 29.9426 32.4607 29.9247 32.5492 29.8898C32.6378 29.8549 32.7183 29.8036 32.7861 29.7391C32.8539 29.6745 32.9076 29.5978 32.9444 29.5134C32.9811 29.429 33 29.3385 33.0001 29.2471V14.1005C33 14.0092 32.9811 13.9187 32.9444 13.8343C32.9076 13.75 32.8538 13.6733 32.786 13.6088C32.7182 13.5442 32.6378 13.493 32.5492 13.4582C32.4607 13.4233 32.3658 13.4054 32.27 13.4055H28.1603V9.7875C28.1602 9.6971 28.1224 9.61044 28.0554 9.54655C27.9883 9.48266 27.8974 9.44678 27.8026 9.44678H26.8313V14.6224H13.1683V9.44678H12.1975C12.1505 9.44673 12.104 9.4555 12.0606 9.47259C12.0172 9.48969 11.9777 9.51477 11.9444 9.54641C11.9112 9.57805 11.8848 9.61562 11.8668 9.65699C11.8487 9.69836 11.8394 9.7427 11.8394 9.7875V13.4055H7.72968C7.63391 13.4054 7.53907 13.4234 7.45057 13.4583C7.36207 13.4932 7.28165 13.5444 7.21389 13.6089C7.14613 13.6734 7.09237 13.7501 7.05567 13.8344C7.01897 13.9188 7.00006 14.0092 7 14.1005V29.2471C7.00011 29.4316 7.07698 29.6084 7.21372 29.7388C7.35046 29.8692 7.53588 29.9425 7.72926 29.9426H13.1683V29.3303H11.8394V24.5894H28.1599V29.3303H26.8313ZM31.3013 24.3242C31.4455 24.3242 31.5865 24.3649 31.7065 24.4412C31.8265 24.5176 31.92 24.6261 31.9753 24.7532C32.0305 24.8802 32.0451 25.0201 32.017 25.155C31.989 25.2899 31.9196 25.4138 31.8176 25.5112C31.7157 25.6085 31.5858 25.6748 31.4444 25.7017C31.3029 25.7286 31.1563 25.7149 31.023 25.6623C30.8897 25.6098 30.7758 25.5207 30.6956 25.4064C30.6154 25.2921 30.5725 25.1576 30.5724 25.0201C30.5724 24.9288 30.5912 24.8383 30.6278 24.7539C30.6644 24.6695 30.718 24.5928 30.7857 24.5282C30.8534 24.4636 30.9338 24.4123 31.0222 24.3773C31.1107 24.3423 31.2055 24.3243 31.3013 24.3242ZM31.3013 26.2618C31.4456 26.2617 31.5867 26.3025 31.7067 26.3789C31.8267 26.4554 31.9203 26.5641 31.9755 26.6912C32.0307 26.8184 32.0451 26.9583 32.0169 27.0933C31.9886 27.2282 31.919 27.3522 31.8169 27.4494C31.7148 27.5467 31.5847 27.6128 31.4431 27.6395C31.3015 27.6662 31.1548 27.6522 31.0215 27.5993C30.8883 27.5465 30.7745 27.4571 30.6945 27.3425C30.6146 27.2279 30.5721 27.0933 30.5724 26.9557C30.5728 26.7715 30.6497 26.595 30.7863 26.465C30.923 26.3349 31.1082 26.2618 31.3013 26.2618Z" fill="#F28C19"/>
<path d="M26.8313 29.3303V28.3303C26.2791 28.3303 25.8313 28.778 25.8313 29.3303H26.8313ZM26.8313 29.9426H25.8313C25.8313 30.4949 26.2791 30.9426 26.8313 30.9426V29.9426ZM32.27 29.9426L32.2705 28.9426H32.27V29.9426ZM33.0001 29.2471L34.0001 29.2477V29.2471H33.0001ZM33.0001 14.1005H34.0001V14.0999L33.0001 14.1005ZM32.27 13.4055V14.4055L32.2711 14.4055L32.27 13.4055ZM28.1603 13.4055H27.1603C27.1603 13.9578 27.608 14.4055 28.1603 14.4055V13.4055ZM28.1603 9.7875H29.1603L29.1603 9.78627L28.1603 9.7875ZM27.8026 9.44678V10.4468V9.44678ZM26.8313 9.44678V8.44678C26.2791 8.44678 25.8313 8.89449 25.8313 9.44678H26.8313ZM26.8313 14.6224V15.6224C27.3836 15.6224 27.8313 15.1747 27.8313 14.6224H26.8313ZM13.1683 14.6224H12.1683C12.1683 15.1747 12.616 15.6224 13.1683 15.6224V14.6224ZM13.1683 9.44678H14.1683C14.1683 8.89449 13.7206 8.44678 13.1683 8.44678V9.44678ZM12.1975 9.44678L12.1964 10.4468H12.1975V9.44678ZM11.8394 9.7875L10.8394 9.78627V9.7875H11.8394ZM11.8394 13.4055V14.4055C12.3917 14.4055 12.8394 13.9578 12.8394 13.4055H11.8394ZM7.72968 13.4055L7.72913 14.4055H7.72968V13.4055ZM7.45057 13.4583L7.81744 14.3885L7.45057 13.4583ZM7 14.1005L6 14.0999V14.1005H7ZM7 29.2471H6L6 29.2477L7 29.2471ZM7.72926 29.9426L7.72871 30.9426H7.72926V29.9426ZM13.1683 29.9426V30.9426C13.7206 30.9426 14.1683 30.4949 14.1683 29.9426H13.1683ZM13.1683 29.3303H14.1683C14.1683 28.778 13.7206 28.3303 13.1683 28.3303V29.3303ZM11.8394 29.3303H10.8394C10.8394 29.8826 11.2871 30.3303 11.8394 30.3303V29.3303ZM11.8394 24.5894V23.5894C11.2871 23.5894 10.8394 24.0371 10.8394 24.5894H11.8394ZM28.1599 24.5894H29.1599C29.1599 24.0371 28.7121 23.5894 28.1599 23.5894V24.5894ZM28.1599 29.3303V30.3303C28.7121 30.3303 29.1599 29.8826 29.1599 29.3303H28.1599ZM31.3013 24.3242L31.3007 23.3242L31.3013 24.3242ZM30.5724 25.0201L31.5724 25.0195L30.5724 25.0201ZM31.3013 26.2618V27.2618H31.3018L31.3013 26.2618ZM30.5724 26.9557L31.5724 26.9581L31.5724 26.9575L30.5724 26.9557ZM25.8313 29.3303V29.9426H27.8313V29.3303H25.8313ZM26.8313 30.9426H32.27V28.9426H26.8313V30.9426ZM32.2694 30.9426C32.4902 30.9427 32.7098 30.9014 32.9161 30.82L32.1824 28.9595C32.2116 28.948 32.2414 28.9426 32.2705 28.9426L32.2694 30.9426ZM32.9161 30.82C33.1225 30.7386 33.3131 30.6181 33.4758 30.4631L32.0963 29.015C32.1234 28.9892 32.1531 28.9711 32.1824 28.9595L32.9161 30.82ZM33.4758 30.4631C33.6386 30.3081 33.7704 30.1214 33.8613 29.9123L32.0274 29.1145C32.0449 29.0742 32.0691 29.0409 32.0963 29.015L33.4758 30.4631ZM33.8613 29.9123C33.9523 29.7032 33.9999 29.4772 34.0001 29.2477L32.0001 29.2465C32.0001 29.1998 32.0098 29.1548 32.0274 29.1145L33.8613 29.9123ZM34.0001 29.2471V14.1005H32.0001V29.2471H34.0001ZM34.0001 14.0999C33.9999 13.8704 33.9523 13.6444 33.8613 13.4353L32.0274 14.2334C32.0099 14.193 32.0001 14.1479 32.0001 14.1011L34.0001 14.0999ZM33.8613 13.4353C33.7703 13.2262 33.6384 13.0395 33.4755 12.8845L32.0965 14.333C32.0693 14.3071 32.045 14.2737 32.0274 14.2334L33.8613 13.4353ZM33.4755 12.8845C33.3128 12.7295 33.1222 12.6091 32.9157 12.5277L32.1827 14.3886C32.1534 14.377 32.1237 14.3589 32.0965 14.333L33.4755 12.8845ZM32.9157 12.5277C32.7093 12.4464 32.4896 12.4052 32.2689 12.4055L32.2711 14.4055C32.2419 14.4055 32.212 14.4001 32.1827 14.3886L32.9157 12.5277ZM32.27 12.4055H28.1603V14.4055H32.27V12.4055ZM29.1603 13.4055V9.7875H27.1603V13.4055H29.1603ZM29.1603 9.78627C29.1598 9.41514 29.0045 9.06955 28.7451 8.82246L27.3657 10.2706C27.2404 10.1513 27.1605 9.97906 27.1603 9.78873L29.1603 9.78627ZM28.7451 8.82246C28.4873 8.5769 28.1475 8.44678 27.8026 8.44678L27.8026 10.4468C27.6473 10.4468 27.4893 10.3884 27.3657 10.2706L28.7451 8.82246ZM27.8026 8.44678H26.8313V10.4468H27.8026V8.44678ZM25.8313 9.44678V14.6224H27.8313V9.44678H25.8313ZM26.8313 13.6224H13.1683V15.6224H26.8313V13.6224ZM14.1683 14.6224V9.44678H12.1683V14.6224H14.1683ZM13.1683 8.44678H12.1975V10.4468H13.1683V8.44678ZM12.1986 8.44678C12.0267 8.44659 11.8555 8.47863 11.6942 8.54211L12.4269 10.4031C12.3525 10.4324 12.2743 10.4469 12.1964 10.4468L12.1986 8.44678ZM11.6942 8.54211C11.5329 8.60561 11.3834 8.69994 11.2552 8.82191L12.6337 10.2709C12.572 10.3296 12.5014 10.3738 12.4269 10.4031L11.6942 8.54211ZM11.2552 8.82191C11.1269 8.94398 11.0223 9.09154 10.95 9.25748L12.7835 10.0565C12.7472 10.1397 12.6955 10.2121 12.6337 10.2709L11.2552 8.82191ZM10.95 9.25748C10.8777 9.42356 10.8396 9.60339 10.8394 9.78627L12.8394 9.78873C12.8393 9.88202 12.8198 9.97316 12.7835 10.0565L10.95 9.25748ZM10.8394 9.7875V13.4055H12.8394V9.7875H10.8394ZM11.8394 12.4055H7.72968V14.4055H11.8394V12.4055ZM7.73023 12.4055C7.50955 12.4054 7.29 12.4466 7.08371 12.528L7.81744 14.3885C7.78814 14.4001 7.75827 14.4055 7.72913 14.4055L7.73023 12.4055ZM7.08371 12.528C6.87735 12.6094 6.68683 12.7299 6.52418 12.8848L7.90361 14.333C7.87646 14.3588 7.84679 14.377 7.81744 14.3885L7.08371 12.528ZM6.52418 12.8848C6.36142 13.0398 6.22961 13.2265 6.1387 13.4355L7.97265 14.2334C7.95513 14.2736 7.93084 14.307 7.90361 14.333L6.52418 12.8848ZM6.1387 13.4355C6.04772 13.6446 6.00014 13.8705 6 14.0999L8 14.1011C7.99997 14.1479 7.99022 14.193 7.97265 14.2334L6.1387 13.4355ZM6 14.1005V29.2471H8V14.1005H6ZM6 29.2477C6.00028 29.7129 6.1946 30.1487 6.52359 30.4625L7.90385 29.0151C7.95936 29.068 7.99994 29.1502 8 29.2465L6 29.2477ZM6.52359 30.4625C6.85097 30.7747 7.28522 30.9423 7.72871 30.9426L7.72981 28.9426C7.78654 28.9426 7.84994 28.9637 7.90385 29.0151L6.52359 30.4625ZM7.72926 30.9426H13.1683V28.9426H7.72926V30.9426ZM14.1683 29.9426V29.3303H12.1683V29.9426H14.1683ZM13.1683 28.3303H11.8394V30.3303H13.1683V28.3303ZM12.8394 29.3303V24.5894H10.8394V29.3303H12.8394ZM11.8394 25.5894H28.1599V23.5894H11.8394V25.5894ZM27.1599 24.5894V29.3303H29.1599V24.5894H27.1599ZM28.1599 28.3303H26.8313V30.3303H28.1599V28.3303ZM31.3018 25.3242C31.2585 25.3243 31.2126 25.3123 31.1696 25.2849L32.2434 23.5976C31.9604 23.4175 31.6324 23.3241 31.3007 23.3242L31.3018 25.3242ZM31.1696 25.2849C31.1261 25.2572 31.0848 25.2129 31.0583 25.1521L32.8922 24.3542C32.7552 24.0393 32.5268 23.778 32.2434 23.5976L31.1696 25.2849ZM31.0583 25.1521C31.0316 25.0907 31.0237 25.0201 31.038 24.9514L32.9961 25.3586C33.0665 25.0201 33.0295 24.6698 32.8922 24.3542L31.0583 25.1521ZM31.038 24.9514C31.0522 24.8831 31.0859 24.8272 31.1271 24.7879L32.5082 26.2345C32.7532 26.0005 32.9257 25.6967 32.9961 25.3586L31.038 24.9514ZM31.1271 24.7879C31.1677 24.7491 31.2139 24.7276 31.2575 24.7193L31.6313 26.6841C31.9577 26.622 32.2637 26.4679 32.5082 26.2345L31.1271 24.7879ZM31.2575 24.7193C31.3008 24.7111 31.3463 24.7149 31.3899 24.7321L30.6561 26.5926C30.9663 26.7149 31.305 26.7461 31.6313 26.6841L31.2575 24.7193ZM31.3899 24.7321C31.4338 24.7494 31.4789 24.7817 31.5142 24.8321L29.8769 25.9807C30.0727 26.2597 30.3457 26.4702 30.6561 26.5926L31.3899 24.7321ZM31.5142 24.8321C31.55 24.8831 31.5724 24.9484 31.5724 25.0195L29.5724 25.0207C29.5726 25.3669 29.6807 25.7011 29.8769 25.9807L31.5142 24.8321ZM31.5724 25.0195C31.5724 25.0663 31.5627 25.1114 31.5452 25.1518L29.7103 24.3561C29.6196 24.5653 29.5723 24.7913 29.5724 25.0207L31.5724 25.0195ZM31.5452 25.1518C31.5278 25.1921 31.5035 25.2255 31.4763 25.2515L30.0952 23.8049C29.9326 23.9602 29.801 24.147 29.7103 24.3561L31.5452 25.1518ZM31.4763 25.2515C31.4491 25.2774 31.4195 25.2956 31.3901 25.3072L30.6543 23.4475C30.448 23.5291 30.2577 23.6498 30.0952 23.8049L31.4763 25.2515ZM31.3901 25.3072C31.3608 25.3188 31.3309 25.3242 31.3018 25.3242L31.3007 23.3242C31.08 23.3244 30.8605 23.3659 30.6543 23.4475L31.3901 25.3072ZM31.3018 27.2618C31.2585 27.2618 31.2126 27.2498 31.1695 27.2224L32.2439 25.5355C31.9608 25.3552 31.6327 25.2616 31.3007 25.2618L31.3018 27.2618ZM31.1695 27.2224C31.126 27.1947 31.0846 27.1504 31.0582 27.0895L32.8927 26.293C32.7559 25.9777 32.5275 25.7161 32.2439 25.5355L31.1695 27.2224ZM31.0582 27.0895C31.0315 27.0279 31.0237 26.9573 31.038 26.8886L32.9957 27.298C33.0665 26.9593 33.0299 26.6088 32.8927 26.293L31.0582 27.0895ZM31.038 26.8886C31.0523 26.8203 31.0862 26.7644 31.1274 26.7252L32.5064 28.1737C32.7519 27.94 32.9249 27.6362 32.9957 27.298L31.038 26.8886ZM31.1274 26.7252C31.1681 26.6864 31.2143 26.665 31.2579 26.6568L31.6283 28.6222C31.955 28.5606 32.2614 28.4069 32.5064 28.1737L31.1274 26.7252ZM31.2579 26.6568C31.3013 26.6486 31.3467 26.6525 31.3903 26.6698L30.6527 28.5288C30.9628 28.6519 31.3017 28.6838 31.6283 28.6222L31.2579 26.6568ZM31.3903 26.6698C31.4343 26.6873 31.4794 26.7197 31.5146 26.7703L29.8744 27.9147C30.0696 28.1944 30.3423 28.4057 30.6527 28.5288L31.3903 26.6698ZM31.5146 26.7703C31.5504 26.8215 31.5726 26.8869 31.5724 26.9581L29.5724 26.9532C29.5716 27.2997 29.6788 27.6344 29.8744 27.9147L31.5146 26.7703ZM31.5724 26.9575C31.5722 27.054 31.5315 27.1362 31.4758 27.1892L30.0968 25.7407C29.7679 26.0538 29.5733 26.4891 29.5724 26.9538L31.5724 26.9575ZM31.4758 27.1892C31.4218 27.2407 31.3582 27.2618 31.3013 27.2618L31.3013 25.2618C30.8582 25.2618 30.4242 25.429 30.0968 25.7407L31.4758 27.1892Z" fill="black" mask="url(#path-1-outside-1_47_12)"/>
<path d="M26.8313 29.3303V28.3303C26.2791 28.3303 25.8313 28.778 25.8313 29.3303H26.8313ZM26.8313 29.9426H25.8313C25.8313 30.4949 26.2791 30.9426 26.8313 30.9426V29.9426ZM32.27 29.9426L32.2705 28.9426H32.27V29.9426ZM33.0001 29.2471L34.0001 29.2477V29.2471H33.0001ZM33.0001 14.1005H34.0001V14.0999L33.0001 14.1005ZM32.27 13.4055V14.4055L32.2711 14.4055L32.27 13.4055ZM28.1603 13.4055H27.1603C27.1603 13.9578 27.608 14.4055 28.1603 14.4055V13.4055ZM28.1603 9.7875H29.1603L29.1603 9.78627L28.1603 9.7875ZM27.8026 9.44678V10.4468V9.44678ZM26.8313 9.44678V8.44678C26.2791 8.44678 25.8313 8.89449 25.8313 9.44678H26.8313ZM26.8313 14.6224V15.6224C27.3836 15.6224 27.8313 15.1747 27.8313 14.6224H26.8313ZM13.1683 14.6224H12.1683C12.1683 15.1747 12.616 15.6224 13.1683 15.6224V14.6224ZM13.1683 9.44678H14.1683C14.1683 8.89449 13.7206 8.44678 13.1683 8.44678V9.44678ZM12.1975 9.44678L12.1964 10.4468H12.1975V9.44678ZM11.8394 9.7875L10.8394 9.78627V9.7875H11.8394ZM11.8394 13.4055V14.4055C12.3917 14.4055 12.8394 13.9578 12.8394 13.4055H11.8394ZM7.72968 13.4055L7.72913 14.4055H7.72968V13.4055ZM7.45057 13.4583L7.81744 14.3885L7.45057 13.4583ZM7 14.1005L6 14.0999V14.1005H7ZM7 29.2471H6L6 29.2477L7 29.2471ZM7.72926 29.9426L7.72871 30.9426H7.72926V29.9426ZM13.1683 29.9426V30.9426C13.7206 30.9426 14.1683 30.4949 14.1683 29.9426H13.1683ZM13.1683 29.3303H14.1683C14.1683 28.778 13.7206 28.3303 13.1683 28.3303V29.3303ZM11.8394 29.3303H10.8394C10.8394 29.8826 11.2871 30.3303 11.8394 30.3303V29.3303ZM11.8394 24.5894V23.5894C11.2871 23.5894 10.8394 24.0371 10.8394 24.5894H11.8394ZM28.1599 24.5894H29.1599C29.1599 24.0371 28.7121 23.5894 28.1599 23.5894V24.5894ZM28.1599 29.3303V30.3303C28.7121 30.3303 29.1599 29.8826 29.1599 29.3303H28.1599ZM31.3013 24.3242L31.3007 23.3242L31.3013 24.3242ZM30.5724 25.0201L31.5724 25.0195L30.5724 25.0201ZM31.3013 26.2618V27.2618H31.3018L31.3013 26.2618ZM30.5724 26.9557L31.5724 26.9581L31.5724 26.9575L30.5724 26.9557ZM25.8313 29.3303V29.9426H27.8313V29.3303H25.8313ZM26.8313 30.9426H32.27V28.9426H26.8313V30.9426ZM32.2694 30.9426C32.4902 30.9427 32.7098 30.9014 32.9161 30.82L32.1824 28.9595C32.2116 28.948 32.2414 28.9426 32.2705 28.9426L32.2694 30.9426ZM32.9161 30.82C33.1225 30.7386 33.3131 30.6181 33.4758 30.4631L32.0963 29.015C32.1234 28.9892 32.1531 28.9711 32.1824 28.9595L32.9161 30.82ZM33.4758 30.4631C33.6386 30.3081 33.7704 30.1214 33.8613 29.9123L32.0274 29.1145C32.0449 29.0742 32.0691 29.0409 32.0963 29.015L33.4758 30.4631ZM33.8613 29.9123C33.9523 29.7032 33.9999 29.4772 34.0001 29.2477L32.0001 29.2465C32.0001 29.1998 32.0098 29.1548 32.0274 29.1145L33.8613 29.9123ZM34.0001 29.2471V14.1005H32.0001V29.2471H34.0001ZM34.0001 14.0999C33.9999 13.8704 33.9523 13.6444 33.8613 13.4353L32.0274 14.2334C32.0099 14.193 32.0001 14.1479 32.0001 14.1011L34.0001 14.0999ZM33.8613 13.4353C33.7703 13.2262 33.6384 13.0395 33.4755 12.8845L32.0965 14.333C32.0693 14.3071 32.045 14.2737 32.0274 14.2334L33.8613 13.4353ZM33.4755 12.8845C33.3128 12.7295 33.1222 12.6091 32.9157 12.5277L32.1827 14.3886C32.1534 14.377 32.1237 14.3589 32.0965 14.333L33.4755 12.8845ZM32.9157 12.5277C32.7093 12.4464 32.4896 12.4052 32.2689 12.4055L32.2711 14.4055C32.2419 14.4055 32.212 14.4001 32.1827 14.3886L32.9157 12.5277ZM32.27 12.4055H28.1603V14.4055H32.27V12.4055ZM29.1603 13.4055V9.7875H27.1603V13.4055H29.1603ZM29.1603 9.78627C29.1598 9.41514 29.0045 9.06955 28.7451 8.82246L27.3657 10.2706C27.2404 10.1513 27.1605 9.97906 27.1603 9.78873L29.1603 9.78627ZM28.7451 8.82246C28.4873 8.5769 28.1475 8.44678 27.8026 8.44678L27.8026 10.4468C27.6473 10.4468 27.4893 10.3884 27.3657 10.2706L28.7451 8.82246ZM27.8026 8.44678H26.8313V10.4468H27.8026V8.44678ZM25.8313 9.44678V14.6224H27.8313V9.44678H25.8313ZM26.8313 13.6224H13.1683V15.6224H26.8313V13.6224ZM14.1683 14.6224V9.44678H12.1683V14.6224H14.1683ZM13.1683 8.44678H12.1975V10.4468H13.1683V8.44678ZM12.1986 8.44678C12.0267 8.44659 11.8555 8.47863 11.6942 8.54211L12.4269 10.4031C12.3525 10.4324 12.2743 10.4469 12.1964 10.4468L12.1986 8.44678ZM11.6942 8.54211C11.5329 8.60561 11.3834 8.69994 11.2552 8.82191L12.6337 10.2709C12.572 10.3296 12.5014 10.3738 12.4269 10.4031L11.6942 8.54211ZM11.2552 8.82191C11.1269 8.94398 11.0223 9.09154 10.95 9.25748L12.7835 10.0565C12.7472 10.1397 12.6955 10.2121 12.6337 10.2709L11.2552 8.82191ZM10.95 9.25748C10.8777 9.42356 10.8396 9.60339 10.8394 9.78627L12.8394 9.78873C12.8393 9.88202 12.8198 9.97316 12.7835 10.0565L10.95 9.25748ZM10.8394 9.7875V13.4055H12.8394V9.7875H10.8394ZM11.8394 12.4055H7.72968V14.4055H11.8394V12.4055ZM7.73023 12.4055C7.50955 12.4054 7.29 12.4466 7.08371 12.528L7.81744 14.3885C7.78814 14.4001 7.75827 14.4055 7.72913 14.4055L7.73023 12.4055ZM7.08371 12.528C6.87735 12.6094 6.68683 12.7299 6.52418 12.8848L7.90361 14.333C7.87646 14.3588 7.84679 14.377 7.81744 14.3885L7.08371 12.528ZM6.52418 12.8848C6.36142 13.0398 6.22961 13.2265 6.1387 13.4355L7.97265 14.2334C7.95513 14.2736 7.93084 14.307 7.90361 14.333L6.52418 12.8848ZM6.1387 13.4355C6.04772 13.6446 6.00014 13.8705 6 14.0999L8 14.1011C7.99997 14.1479 7.99022 14.193 7.97265 14.2334L6.1387 13.4355ZM6 14.1005V29.2471H8V14.1005H6ZM6 29.2477C6.00028 29.7129 6.1946 30.1487 6.52359 30.4625L7.90385 29.0151C7.95936 29.068 7.99994 29.1502 8 29.2465L6 29.2477ZM6.52359 30.4625C6.85097 30.7747 7.28522 30.9423 7.72871 30.9426L7.72981 28.9426C7.78654 28.9426 7.84994 28.9637 7.90385 29.0151L6.52359 30.4625ZM7.72926 30.9426H13.1683V28.9426H7.72926V30.9426ZM14.1683 29.9426V29.3303H12.1683V29.9426H14.1683ZM13.1683 28.3303H11.8394V30.3303H13.1683V28.3303ZM12.8394 29.3303V24.5894H10.8394V29.3303H12.8394ZM11.8394 25.5894H28.1599V23.5894H11.8394V25.5894ZM27.1599 24.5894V29.3303H29.1599V24.5894H27.1599ZM28.1599 28.3303H26.8313V30.3303H28.1599V28.3303ZM31.3018 25.3242C31.2585 25.3243 31.2126 25.3123 31.1696 25.2849L32.2434 23.5976C31.9604 23.4175 31.6324 23.3241 31.3007 23.3242L31.3018 25.3242ZM31.1696 25.2849C31.1261 25.2572 31.0848 25.2129 31.0583 25.1521L32.8922 24.3542C32.7552 24.0393 32.5268 23.778 32.2434 23.5976L31.1696 25.2849ZM31.0583 25.1521C31.0316 25.0907 31.0237 25.0201 31.038 24.9514L32.9961 25.3586C33.0665 25.0201 33.0295 24.6698 32.8922 24.3542L31.0583 25.1521ZM31.038 24.9514C31.0522 24.8831 31.0859 24.8272 31.1271 24.7879L32.5082 26.2345C32.7532 26.0005 32.9257 25.6967 32.9961 25.3586L31.038 24.9514ZM31.1271 24.7879C31.1677 24.7491 31.2139 24.7276 31.2575 24.7193L31.6313 26.6841C31.9577 26.622 32.2637 26.4679 32.5082 26.2345L31.1271 24.7879ZM31.2575 24.7193C31.3008 24.7111 31.3463 24.7149 31.3899 24.7321L30.6561 26.5926C30.9663 26.7149 31.305 26.7461 31.6313 26.6841L31.2575 24.7193ZM31.3899 24.7321C31.4338 24.7494 31.4789 24.7817 31.5142 24.8321L29.8769 25.9807C30.0727 26.2597 30.3457 26.4702 30.6561 26.5926L31.3899 24.7321ZM31.5142 24.8321C31.55 24.8831 31.5724 24.9484 31.5724 25.0195L29.5724 25.0207C29.5726 25.3669 29.6807 25.7011 29.8769 25.9807L31.5142 24.8321ZM31.5724 25.0195C31.5724 25.0663 31.5627 25.1114 31.5452 25.1518L29.7103 24.3561C29.6196 24.5653 29.5723 24.7913 29.5724 25.0207L31.5724 25.0195ZM31.5452 25.1518C31.5278 25.1921 31.5035 25.2255 31.4763 25.2515L30.0952 23.8049C29.9326 23.9602 29.801 24.147 29.7103 24.3561L31.5452 25.1518ZM31.4763 25.2515C31.4491 25.2774 31.4195 25.2956 31.3901 25.3072L30.6543 23.4475C30.448 23.5291 30.2577 23.6498 30.0952 23.8049L31.4763 25.2515ZM31.3901 25.3072C31.3608 25.3188 31.3309 25.3242 31.3018 25.3242L31.3007 23.3242C31.08 23.3244 30.8605 23.3659 30.6543 23.4475L31.3901 25.3072ZM31.3018 27.2618C31.2585 27.2618 31.2126 27.2498 31.1695 27.2224L32.2439 25.5355C31.9608 25.3552 31.6327 25.2616 31.3007 25.2618L31.3018 27.2618ZM31.1695 27.2224C31.126 27.1947 31.0846 27.1504 31.0582 27.0895L32.8927 26.293C32.7559 25.9777 32.5275 25.7161 32.2439 25.5355L31.1695 27.2224ZM31.0582 27.0895C31.0315 27.0279 31.0237 26.9573 31.038 26.8886L32.9957 27.298C33.0665 26.9593 33.0299 26.6088 32.8927 26.293L31.0582 27.0895ZM31.038 26.8886C31.0523 26.8203 31.0862 26.7644 31.1274 26.7252L32.5064 28.1737C32.7519 27.94 32.9249 27.6362 32.9957 27.298L31.038 26.8886ZM31.1274 26.7252C31.1681 26.6864 31.2143 26.665 31.2579 26.6568L31.6283 28.6222C31.955 28.5606 32.2614 28.4069 32.5064 28.1737L31.1274 26.7252ZM31.2579 26.6568C31.3013 26.6486 31.3467 26.6525 31.3903 26.6698L30.6527 28.5288C30.9628 28.6519 31.3017 28.6838 31.6283 28.6222L31.2579 26.6568ZM31.3903 26.6698C31.4343 26.6873 31.4794 26.7197 31.5146 26.7703L29.8744 27.9147C30.0696 28.1944 30.3423 28.4057 30.6527 28.5288L31.3903 26.6698ZM31.5146 26.7703C31.5504 26.8215 31.5726 26.8869 31.5724 26.9581L29.5724 26.9532C29.5716 27.2997 29.6788 27.6344 29.8744 27.9147L31.5146 26.7703ZM31.5724 26.9575C31.5722 27.054 31.5315 27.1362 31.4758 27.1892L30.0968 25.7407C29.7679 26.0538 29.5733 26.4891 29.5724 26.9538L31.5724 26.9575ZM31.4758 27.1892C31.4218 27.2407 31.3582 27.2618 31.3013 27.2618L31.3013 25.2618C30.8582 25.2618 30.4242 25.429 30.0968 25.7407L31.4758 27.1892Z" fill="black" fill-opacity="0.63" mask="url(#path-1-outside-1_47_12)"/>
</g>
<g id="Vector_2">
<path d="M28.6599 24.5894C28.6599 24.3132 28.436 24.0894 28.1599 24.0894H26.8314C26.5552 24.0894 26.3314 24.3132 26.3314 24.5894V29.3303C26.3314 29.6064 26.5552 29.8303 26.8314 29.8303H28.1599C28.436 29.8303 28.6599 29.6064 28.6599 29.3303V24.5894Z" fill="#4C8F79"/>
<path d="M28.6599 24.5894C28.6599 24.3132 28.436 24.0894 28.1599 24.0894H26.8314C26.5552 24.0894 26.3314 24.3132 26.3314 24.5894V29.3303C26.3314 29.6064 26.5552 29.8303 26.8314 29.8303H28.1599C28.436 29.8303 28.6599 29.6064 28.6599 29.3303V24.5894Z" stroke="black" stroke-linejoin="round"/>
<path d="M28.6599 24.5894C28.6599 24.3132 28.436 24.0894 28.1599 24.0894H26.8314C26.5552 24.0894 26.3314 24.3132 26.3314 24.5894V29.3303C26.3314 29.6064 26.5552 29.8303 26.8314 29.8303H28.1599C28.436 29.8303 28.6599 29.6064 28.6599 29.3303V24.5894Z" stroke="black" stroke-opacity="0.63" stroke-linejoin="round"/>
</g>
<g id="Vector_3">
<path d="M13.6683 24.5894C13.6683 24.3132 13.4445 24.0894 13.1683 24.0894H11.8394C11.5632 24.0894 11.3394 24.3132 11.3394 24.5894V29.3303C11.3394 29.6064 11.5632 29.8303 11.8394 29.8303H13.1683C13.4445 29.8303 13.6683 29.6064 13.6683 29.3303V24.5894Z" fill="#4C8F79"/>
<path d="M13.6683 24.5894C13.6683 24.3132 13.4445 24.0894 13.1683 24.0894H11.8394C11.5632 24.0894 11.3394 24.3132 11.3394 24.5894V29.3303C11.3394 29.6064 11.5632 29.8303 11.8394 29.8303H13.1683C13.4445 29.8303 13.6683 29.6064 13.6683 29.3303V24.5894Z" stroke="black" stroke-linejoin="round"/>
<path d="M13.6683 24.5894C13.6683 24.3132 13.4445 24.0894 13.1683 24.0894H11.8394C11.5632 24.0894 11.3394 24.3132 11.3394 24.5894V29.3303C11.3394 29.6064 11.5632 29.8303 11.8394 29.8303H13.1683C13.4445 29.8303 13.6683 29.6064 13.6683 29.3303V24.5894Z" stroke="black" stroke-opacity="0.63" stroke-linejoin="round"/>
</g>
<g id="Vector_4">
<path d="M12.6683 32.9999C12.6683 33.276 12.8922 33.4999 13.1683 33.4999H26.8313C27.1075 33.4999 27.3313 33.276 27.3313 32.9999V24.5894C27.3313 24.3132 27.1075 24.0894 26.8313 24.0894H13.1683C12.8922 24.0894 12.6683 24.3132 12.6683 24.5894V29.9426V32.9999Z" fill="#AAD4C8"/>
<path d="M12.6683 32.9999C12.6683 33.276 12.8922 33.4999 13.1683 33.4999H26.8313C27.1075 33.4999 27.3313 33.276 27.3313 32.9999V24.5894C27.3313 24.3132 27.1075 24.0894 26.8313 24.0894H13.1683C12.8922 24.0894 12.6683 24.3132 12.6683 24.5894V29.9426V32.9999Z" stroke="black" stroke-linejoin="round"/>
<path d="M12.6683 32.9999C12.6683 33.276 12.8922 33.4999 13.1683 33.4999H26.8313C27.1075 33.4999 27.3313 33.276 27.3313 32.9999V24.5894C27.3313 24.3132 27.1075 24.0894 26.8313 24.0894H13.1683C12.8922 24.0894 12.6683 24.3132 12.6683 24.5894V29.9426V32.9999Z" stroke="black" stroke-opacity="0.63" stroke-linejoin="round"/>
</g>
<g id="Vector_5">
<path d="M12.6683 14.6225C12.6683 14.8987 12.8922 15.1225 13.1683 15.1225H26.8313C27.1075 15.1225 27.3313 14.8987 27.3313 14.6225V9.44688V8C27.3313 7.72386 27.1075 7.5 26.8313 7.5H13.1683C12.8922 7.5 12.6683 7.72386 12.6683 8V9.44688V14.6225Z" fill="#4C8F79"/>
<path d="M12.6683 14.6225C12.6683 14.8987 12.8922 15.1225 13.1683 15.1225H26.8313C27.1075 15.1225 27.3313 14.8987 27.3313 14.6225V9.44688V8C27.3313 7.72386 27.1075 7.5 26.8313 7.5H13.1683C12.8922 7.5 12.6683 7.72386 12.6683 8V9.44688V14.6225Z" stroke="black" stroke-linejoin="round"/>
<path d="M12.6683 14.6225C12.6683 14.8987 12.8922 15.1225 13.1683 15.1225H26.8313C27.1075 15.1225 27.3313 14.8987 27.3313 14.6225V9.44688V8C27.3313 7.72386 27.1075 7.5 26.8313 7.5H13.1683C12.8922 7.5 12.6683 7.72386 12.6683 8V9.44688V14.6225Z" stroke="black" stroke-opacity="0.63" stroke-linejoin="round"/>
</g>
<g id="Vector_6">
<path d="M30.2862 25.6935C30.1481 25.4966 30.0726 25.2624 30.0724 25.0207C30.0724 25.0206 30.0724 25.0206 30.0724 25.0205C30.0724 25.0205 30.0724 25.0204 30.0724 25.0204C30.0722 24.86 30.1052 24.7018 30.1688 24.555C30.2325 24.4082 30.3251 24.2764 30.4403 24.1664C30.5554 24.0565 30.6909 23.9705 30.8383 23.9122C30.9856 23.854 31.1428 23.8243 31.301 23.8242L30.2862 25.6935ZM30.2862 25.6935C30.4242 25.8902 30.6176 26.04 30.8395 26.1275C31.0612 26.2149 31.3039 26.2373 31.5378 26.1929C31.7717 26.1483 31.9897 26.0382 32.1629 25.8728C32.3364 25.7072 32.4573 25.4933 32.5065 25.2567L32.017 25.1549L32.5065 25.2567C32.5557 25.02 32.53 24.775 32.4337 24.5537C32.3376 24.3327 32.1766 24.1477 31.9749 24.0194C31.7735 23.8912 31.5391 23.8241 31.3012 23.8242L30.2862 25.6935Z" fill="white"/>
<path d="M30.2862 25.6935C30.1481 25.4966 30.0726 25.2624 30.0724 25.0207C30.0724 25.0206 30.0724 25.0206 30.0724 25.0205C30.0724 25.0205 30.0724 25.0204 30.0724 25.0204C30.0722 24.86 30.1052 24.7018 30.1688 24.555C30.2325 24.4082 30.3251 24.2764 30.4403 24.1664C30.5554 24.0565 30.6909 23.9705 30.8383 23.9122C30.9856 23.854 31.1428 23.8243 31.301 23.8242L30.2862 25.6935ZM30.2862 25.6935C30.4242 25.8902 30.6176 26.04 30.8395 26.1275C31.0612 26.2149 31.3039 26.2373 31.5378 26.1929C31.7717 26.1483 31.9897 26.0382 32.1629 25.8728C32.3364 25.7072 32.4573 25.4933 32.5065 25.2567L32.017 25.1549L32.5065 25.2567C32.5557 25.02 32.53 24.775 32.4337 24.5537C32.3376 24.3327 32.1766 24.1477 31.9749 24.0194C31.7735 23.8912 31.5391 23.8241 31.3012 23.8242L30.2862 25.6935Z" stroke="black" stroke-linejoin="round"/>
<path d="M30.2862 25.6935C30.1481 25.4966 30.0726 25.2624 30.0724 25.0207C30.0724 25.0206 30.0724 25.0206 30.0724 25.0205C30.0724 25.0205 30.0724 25.0204 30.0724 25.0204C30.0722 24.86 30.1052 24.7018 30.1688 24.555C30.2325 24.4082 30.3251 24.2764 30.4403 24.1664C30.5554 24.0565 30.6909 23.9705 30.8383 23.9122C30.9856 23.854 31.1428 23.8243 31.301 23.8242L30.2862 25.6935ZM30.2862 25.6935C30.4242 25.8902 30.6176 26.04 30.8395 26.1275C31.0612 26.2149 31.3039 26.2373 31.5378 26.1929C31.7717 26.1483 31.9897 26.0382 32.1629 25.8728C32.3364 25.7072 32.4573 25.4933 32.5065 25.2567L32.017 25.1549L32.5065 25.2567C32.5557 25.02 32.53 24.775 32.4337 24.5537C32.3376 24.3327 32.1766 24.1477 31.9749 24.0194C31.7735 23.8912 31.5391 23.8241 31.3012 23.8242L30.2862 25.6935Z" stroke="black" stroke-opacity="0.63" stroke-linejoin="round"/>
</g>
<g id="Vector_7">
<path d="M31.301 25.761C30.9827 25.7611 30.673 25.8814 30.4411 26.1025C30.2083 26.3243 30.0727 26.6304 30.0724 26.955C30.0724 26.9551 30.0724 26.9551 30.0724 26.9552C30.0724 26.9552 30.0724 26.9553 30.0724 26.9553C30.0722 27.1972 30.1473 27.4316 30.2852 27.6288C30.4229 27.8257 30.6162 27.9758 30.8381 28.0637C31.0598 28.1514 31.3025 28.1741 31.5365 28.1299C31.7706 28.0856 31.9887 27.9756 32.1621 27.8103C32.3358 27.6447 32.457 27.4309 32.5063 27.1943C32.5557 26.9575 32.5302 26.7124 32.4339 26.4909C32.3379 26.2698 32.1769 26.0847 31.9751 25.9563C31.7737 25.828 31.5392 25.7609 31.3012 25.761M31.301 25.761L31.3012 26.261L31.3012 25.761M31.301 25.761C31.301 25.761 31.3011 25.761 31.3012 25.761M31.301 25.761L31.3012 25.761" fill="#AAD4C8"/>
<path d="M31.301 25.761C30.9827 25.7611 30.673 25.8814 30.4411 26.1025C30.2083 26.3243 30.0727 26.6304 30.0724 26.955C30.0724 26.9551 30.0724 26.9551 30.0724 26.9552C30.0724 26.9552 30.0724 26.9553 30.0724 26.9553C30.0722 27.1972 30.1473 27.4316 30.2852 27.6288C30.4229 27.8257 30.6162 27.9758 30.8381 28.0637C31.0598 28.1514 31.3025 28.1741 31.5365 28.1299C31.7706 28.0856 31.9887 27.9756 32.1621 27.8103C32.3358 27.6447 32.457 27.4309 32.5063 27.1943C32.5557 26.9575 32.5302 26.7124 32.4339 26.4909C32.3379 26.2698 32.1769 26.0847 31.9751 25.9563C31.7737 25.828 31.5392 25.7609 31.3012 25.761M31.301 25.761L31.3012 26.261L31.3012 25.761M31.301 25.761C31.301 25.761 31.3011 25.761 31.3012 25.761M31.301 25.761L31.3012 25.761" stroke="black" stroke-linejoin="round"/>
<path d="M31.301 25.761C30.9827 25.7611 30.673 25.8814 30.4411 26.1025C30.2083 26.3243 30.0727 26.6304 30.0724 26.955C30.0724 26.9551 30.0724 26.9551 30.0724 26.9552C30.0724 26.9552 30.0724 26.9553 30.0724 26.9553C30.0722 27.1972 30.1473 27.4316 30.2852 27.6288C30.4229 27.8257 30.6162 27.9758 30.8381 28.0637C31.0598 28.1514 31.3025 28.1741 31.5365 28.1299C31.7706 28.0856 31.9887 27.9756 32.1621 27.8103C32.3358 27.6447 32.457 27.4309 32.5063 27.1943C32.5557 26.9575 32.5302 26.7124 32.4339 26.4909C32.3379 26.2698 32.1769 26.0847 31.9751 25.9563C31.7737 25.828 31.5392 25.7609 31.3012 25.761M31.301 25.761L31.3012 26.261L31.3012 25.761M31.301 25.761C31.301 25.761 31.3011 25.761 31.3012 25.761M31.301 25.761L31.3012 25.761" stroke="black" stroke-opacity="0.63" stroke-linejoin="round"/>
</g>
<g id="Vector_8">
<path d="M25.578 26.2371C25.578 25.9609 25.3542 25.7371 25.078 25.7371H14.8172C14.5411 25.7371 14.3172 25.9609 14.3172 26.2371V26.8329C14.3172 27.1091 14.5411 27.3329 14.8172 27.3329H25.078C25.3542 27.3329 25.578 27.1091 25.578 26.8329V26.2371Z" fill="white"/>
<path d="M25.578 26.2371C25.578 25.9609 25.3542 25.7371 25.078 25.7371H14.8172C14.5411 25.7371 14.3172 25.9609 14.3172 26.2371V26.8329C14.3172 27.1091 14.5411 27.3329 14.8172 27.3329H25.078C25.3542 27.3329 25.578 27.1091 25.578 26.8329V26.2371Z" stroke="black" stroke-linejoin="round"/>
<path d="M25.578 26.2371C25.578 25.9609 25.3542 25.7371 25.078 25.7371H14.8172C14.5411 25.7371 14.3172 25.9609 14.3172 26.2371V26.8329C14.3172 27.1091 14.5411 27.3329 14.8172 27.3329H25.078C25.3542 27.3329 25.578 27.1091 25.578 26.8329V26.2371Z" stroke="black" stroke-opacity="0.63" stroke-linejoin="round"/>
</g>
<g id="Vector_9">
<path d="M25.578 28.1243C25.578 27.8481 25.3542 27.6243 25.078 27.6243H14.8172C14.5411 27.6243 14.3172 27.8481 14.3172 28.1243V28.7205C14.3172 28.9967 14.5411 29.2205 14.8172 29.2205H25.078C25.3542 29.2205 25.578 28.9967 25.578 28.7205V28.1243Z" fill="white"/>
<path d="M25.578 28.1243C25.578 27.8481 25.3542 27.6243 25.078 27.6243H14.8172C14.5411 27.6243 14.3172 27.8481 14.3172 28.1243V28.7205C14.3172 28.9967 14.5411 29.2205 14.8172 29.2205H25.078C25.3542 29.2205 25.578 28.9967 25.578 28.7205V28.1243Z" stroke="black" stroke-linejoin="round"/>
<path d="M25.578 28.1243C25.578 27.8481 25.3542 27.6243 25.078 27.6243H14.8172C14.5411 27.6243 14.3172 27.8481 14.3172 28.1243V28.7205C14.3172 28.9967 14.5411 29.2205 14.8172 29.2205H25.078C25.3542 29.2205 25.578 28.9967 25.578 28.7205V28.1243Z" stroke="black" stroke-opacity="0.63" stroke-linejoin="round"/>
</g>
<g id="Vector_10">
<path d="M25.578 30.0115C25.578 29.7353 25.3542 29.5115 25.078 29.5115H14.8172C14.5411 29.5115 14.3172 29.7353 14.3172 30.0115V30.6077C14.3172 30.8839 14.5411 31.1077 14.8172 31.1077H25.078C25.3542 31.1077 25.578 30.8839 25.578 30.6077V30.0115Z" fill="white"/>
<path d="M25.578 30.0115C25.578 29.7353 25.3542 29.5115 25.078 29.5115H14.8172C14.5411 29.5115 14.3172 29.7353 14.3172 30.0115V30.6077C14.3172 30.8839 14.5411 31.1077 14.8172 31.1077H25.078C25.3542 31.1077 25.578 30.8839 25.578 30.6077V30.0115Z" stroke="black" stroke-linejoin="round"/>
<path d="M25.578 30.0115C25.578 29.7353 25.3542 29.5115 25.078 29.5115H14.8172C14.5411 29.5115 14.3172 29.7353 14.3172 30.0115V30.6077C14.3172 30.8839 14.5411 31.1077 14.8172 31.1077H25.078C25.3542 31.1077 25.578 30.8839 25.578 30.6077V30.0115Z" stroke="black" stroke-opacity="0.63" stroke-linejoin="round"/>
</g>
</g>
</g>
<defs>
<filter id="filter0_d_47_12" x="2" y="7" width="36.0001" height="34.9998" filterUnits="userSpaceOnUse" color-interpolation-filters="sRGB">
<feFlood flood-opacity="0" result="BackgroundImageFix"/>
<feColorMatrix in="SourceAlpha" type="matrix" values="0 0 0 0 0 0 0 0 0 0 0 0 0 0 0 0 0 0 127 0" result="hardAlpha"/>
<feOffset dy="4"/>
<feGaussianBlur stdDeviation="2"/>
<feComposite in2="hardAlpha" operator="out"/>
<feColorMatrix type="matrix" values="0 0 0 0 0 0 0 0 0 0 0 0 0 0 0 0 0 0 0.25 0"/>
<feBlend mode="normal" in2="BackgroundImageFix" result="effect1_dropShadow_47_12"/>
<feBlend mode="normal" in="SourceGraphic" in2="effect1_dropShadow_47_12" result="shape"/>
</filter>
</defs>
</svg>
